<?xml version="1.0" standalone="no"?>
<!DOCTYPE svg PUBLIC "-//W3C//DTD SVG 1.1//EN" "http://www.w3.org/Graphics/SVG/1.1/DTD/svg11.dtd" >
<svg xmlns="http://www.w3.org/2000/svg" xmlns:xlink="http://www.w3.org/1999/xlink" version="1.1">
<metadata></metadata>
<defs>
<font id="montserratblack" horiz-adv-x="0" >
<font-face units-per-em="1000" ascent="800" descent="-200" />
<missing-glyph horiz-adv-x="285" />
<glyph unicode="fi" horiz-adv-x="738" d="M583 561q-58 0 -93.5 31.5t-35.5 78.5q0 31 15.5 55.5t45.5 39t68 14.5q59 0 94 -29.5t35 -76.5q0 -32 -15.5 -57.5t-45 -40.5t-68.5 -15zM331 552q-52 0 -52 -60v-1h113v-157h-106v-334h-215v334h-71v157h71v3q0 102 61 161t171 59q80 0 127 -25l-51 -149q-26 12 -48 12 zM691 0h-215v520h215v-520z" />
<glyph unicode="fl" horiz-adv-x="738" d="M331 552q-52 0 -52 -60v-1h113v-157h-106v-334h-215v334h-71v157h71v3q0 102 61 161t171 59q80 0 127 -25l-51 -149q-26 12 -48 12zM476 0v705h215v-705h-215z" />
<glyph />
<glyph />
<glyph unicode="&#xd;" horiz-adv-x="285" />
<glyph unicode=" "  horiz-adv-x="285" />
<glyph unicode="&#x09;" horiz-adv-x="285" />
<glyph unicode="&#xa0;" horiz-adv-x="285" />
<glyph unicode="!" horiz-adv-x="298" d="M235 255h-171l-43 410h256zM149 -10q-55 0 -90 33.5t-35 80.5q0 49 35 81t90 32t90.5 -32t35.5 -81q0 -47 -35.5 -80.5t-90.5 -33.5z" />
<glyph unicode="&#x22;" horiz-adv-x="464" d="M197 380h-152l-15 285h181zM420 380h-152l-14 285h180z" />
<glyph unicode="#" horiz-adv-x="703" d="M691 535v-143h-133l-15 -119h115v-143h-133l-16 -130h-152l16 130h-94l-16 -130h-152l16 130h-115v143h133l15 119h-115v143h133l16 130h152l-16 -130h94l16 130h152l-16 -130h115zM297 273h94l15 119h-94z" />
<glyph unicode="$" horiz-adv-x="624" d="M612 209q0 -80 -57.5 -139.5t-164.5 -78.5v-105h-134v101q-46 3 -92 12t-84.5 23t-67.5 31l73 164q47 -28 106 -44.5t113 -16.5q86 0 86 36q0 15 -15.5 25.5t-41.5 16t-59 13.5t-67.5 15.5t-67.5 23t-59 36t-41.5 55.5t-15.5 79q0 84 60 144t173 75v104h134v-102 q114 -10 193 -55l-67 -162q-98 49 -185 49t-87 -42q0 -15 20.5 -25.5t53 -17.5t71.5 -14.5t78 -21.5t71.5 -34.5t53 -57.5t20.5 -87z" />
<glyph unicode="%" horiz-adv-x="871" d="M192 304q-78 0 -127.5 49t-49.5 136q0 86 49.5 135.5t127.5 49.5q51 0 90.5 -21t63 -63.5t23.5 -100.5q0 -87 -49.5 -136t-127.5 -49zM289 0h-161l454 665h161zM192 407q18 0 30 19t12 63q0 30 -6.5 49.5t-15.5 26.5t-20 7q-18 0 -30 -19.5t-12 -63.5q0 -23 3.5 -39.5 t9.5 -25.5t13.5 -13t15.5 -4zM679 -10q-78 0 -127 49.5t-49 136.5q0 86 49.5 135.5t127 49.5t127 -49.5t49.5 -135.5q0 -87 -49.5 -136.5t-127.5 -49.5zM679 93q18 0 30 19.5t12 63.5t-12 63t-30 19q-11 0 -20 -7t-15.5 -26t-6.5 -49t6.5 -49.5t15.5 -26.5t20 -7z" />
<glyph unicode="&#x26;" horiz-adv-x="738" d="M538 372l172 -51q-19 -83 -63 -150l63 -53l-115 -130l-71 60q-99 -63 -222 -63q-79 0 -142.5 25t-99 69t-35.5 99q0 62 31 108t98 84q-57 61 -57 127q0 80 65.5 129.5t173.5 49.5q49 0 90 -11.5t70 -33.5t45 -53.5t16 -69.5q0 -98 -115 -162l70 -60q17 38 26 86zM337 538 q-14 0 -24.5 -5t-15.5 -13.5t-5 -19.5q0 -13 6.5 -24t26.5 -30q52 29 52 58q0 10 -4.5 17.5t-13.5 12t-22 4.5zM318 144q39 0 75 17l-121 104q-37 -26 -37 -64q0 -24 22.5 -40.5t60.5 -16.5z" />
<glyph unicode="'" horiz-adv-x="241" d="M197 380h-152l-15 285h181z" />
<glyph unicode="(" horiz-adv-x="361" d="M376 -184h-205q-61 85 -93.5 199.5t-32.5 245t32.5 244.5t93.5 200h205q-121 -216 -121 -444.5t121 -444.5z" />
<glyph unicode=")" horiz-adv-x="361" d="M191 -184h-205q121 216 121 444.5t-121 444.5h205q61 -86 93.5 -200t32.5 -244.5t-32.5 -245t-93.5 -199.5z" />
<glyph unicode="*" horiz-adv-x="449" d="M378 660l66 -106l-92 -49l92 -48l-66 -106l-93 57l3 -102h-127l2 102l-93 -57l-64 106l91 48l-91 49l64 106l93 -57l-2 102h127l-3 -102z" />
<glyph unicode="+" horiz-adv-x="589" d="M380 413h157v-161h-157v-152h-171v152h-157v161h157v152h171v-152z" />
<glyph unicode="," horiz-adv-x="288" d="M144 236q55 0 90.5 -33.5t35.5 -88.5q0 -25 -7 -49.5t-30 -74.5l-67 -142h-133l48 161q-62 29 -62 105q0 55 35 88.5t90 33.5z" />
<glyph unicode="-" horiz-adv-x="370" d="M328 194h-285v161h285v-161z" />
<glyph unicode="." horiz-adv-x="288" d="M144 -10q-35 0 -63.5 16t-45 44.5t-16.5 63.5q0 54 35.5 88t90 34t90 -34t35.5 -88t-36 -89t-90 -35z" />
<glyph unicode="/" horiz-adv-x="418" d="M152 -95h-190l314 895h190z" />
<glyph unicode="0" horiz-adv-x="657" d="M328.5 -15q-134.5 0 -217.5 92.5t-83 255t83 255t217.5 92.5t218 -92.5t83.5 -255t-83.5 -255t-218 -92.5zM329 164q76 0 76 168.5t-76 168.5t-76 -168.5t76 -168.5z" />
<glyph unicode="1" horiz-adv-x="397" d="M5 496v169h338v-665h-224v496h-114z" />
<glyph unicode="2" horiz-adv-x="577" d="M430 260l-95 -86h225v-174h-533v138l240 222q52 49 52 91q0 25 -16.5 39t-47.5 14t-57.5 -16.5t-40.5 -45.5l-169 84q18 35 45 63t62.5 48.5t81.5 31.5t99 11q119 0 193.5 -57t74.5 -151q0 -55 -23 -103t-91 -109z" />
<glyph unicode="3" horiz-adv-x="583" d="M524 527l-123 -125q77 -19 118 -69t41 -120q0 -44 -18 -84t-53.5 -72.5t-95.5 -52t-137 -19.5q-70 0 -140 15.5t-122 44.5l76 165q83 -48 179 -48q25 0 44.5 5.5t30.5 17t11 28.5q0 45 -79 45h-88v138l98 100h-238v169h496v-138z" />
<glyph unicode="4" horiz-adv-x="676" d="M584 288h89v-174h-89v-114h-217v114h-345v142l282 409h230l-251 -377h90v102h211v-102z" />
<glyph unicode="5" horiz-adv-x="588" d="M265 430h34q140 0 206 -58t66 -154q0 -36 -11 -69.5t-35 -63.5t-59 -52t-86 -35t-113 -13q-71 0 -140.5 15.5t-121.5 44.5l76 165q83 -48 177 -48q39 0 63.5 13.5t24.5 38.5q0 23 -22 35t-79 12h-193l34 404h441v-169h-257z" />
<glyph unicode="6" horiz-adv-x="627" d="M389 430q94 0 161 -59t67 -153q0 -105 -77.5 -169t-192.5 -64q-147 0 -233 84t-86 243q0 172 100.5 270t267.5 98q127 0 206 -52l-80 -157q-50 35 -121 35q-58 0 -95.5 -29t-49.5 -84q52 37 133 37zM331.5 140q19.5 0 35 8t24.5 23.5t9 35.5q0 31 -19 50t-49.5 19 t-49.5 -19t-19 -50q0 -20 9 -35.5t24.5 -23.5t35 -8z" />
<glyph unicode="7" horiz-adv-x="612" d="M20 394v271h569v-138l-221 -527h-245l210 491h-128v-97h-185z" />
<glyph unicode="8" horiz-adv-x="644" d="M531 351q89 -55 89 -153q0 -97 -82.5 -155t-215.5 -58t-215.5 58t-82.5 155q0 98 89 153q-65 51 -65 131q0 89 76 143.5t198 54.5t198.5 -54.5t76.5 -143.5q0 -80 -66 -131zM322 529q-23 0 -38 -15t-15 -41.5t15 -42t38 -15.5q15 0 27 6.5t19 20t7 30.5q0 27 -15 42 t-38 15zM322 136q21 0 37.5 8.5t26 24t9.5 36.5q0 32 -20 51t-52.5 19t-53 -19t-20.5 -50.5t20.5 -50.5t52.5 -19z" />
<glyph unicode="9" horiz-adv-x="627" d="M281 680q96 0 167 -35.5t111.5 -110t40.5 -181.5q0 -172 -100.5 -270t-267.5 -98q-127 0 -206 52l80 157q50 -35 121 -35q58 0 95.5 29t48.5 84q-51 -37 -132 -37q-94 0 -161 59t-67 153q0 105 77.5 169t192.5 64zM296.5 390q30.5 0 49.5 18.5t19 49.5q0 15 -5 28 t-14 21.5t-22 13t-28 4.5q-20 0 -35 -8t-24 -23.5t-9 -35.5q0 -31 19 -49.5t49.5 -18.5z" />
<glyph unicode=":" horiz-adv-x="288" d="M144 284q-17 0 -33.5 4t-30.5 12t-25 19t-19 24.5t-12.5 30t-4.5 34.5q0 54 35.5 87.5t90 33.5t90 -33.5t35.5 -87.5t-36 -89t-90 -35zM144 -10q-35 0 -63.5 16t-45 44.5t-16.5 63.5q0 54 35.5 88t90 34t90 -34t35.5 -88t-36 -89t-90 -35z" />
<glyph unicode=";" horiz-adv-x="288" d="M144 284q-17 0 -33.5 4t-30.5 12t-25 19t-19 24.5t-12.5 30t-4.5 34.5q0 54 35.5 87.5t90 33.5t90 -33.5t35.5 -87.5t-36 -89t-90 -35zM144 236q55 0 90.5 -33.5t35.5 -88.5q0 -25 -7 -49.5t-30 -74.5l-67 -142h-133l48 161q-62 29 -62 105q0 55 35 88.5t90 33.5z" />
<glyph unicode="&#x3c;" horiz-adv-x="589" d="M52 417l485 176v-162l-288 -99l288 -98v-162l-485 176v169z" />
<glyph unicode="=" horiz-adv-x="589" d="M537 375h-485v162h485v-162zM537 128h-485v162h485v-162z" />
<glyph unicode="&#x3e;" horiz-adv-x="589" d="M52 431v162l485 -176v-169l-485 -176v162l288 98z" />
<glyph unicode="?" horiz-adv-x="575" d="M392 255h-195q0 27 9 51t22.5 40.5t29.5 33t29.5 28.5t22.5 26t9 28q0 21 -18 32.5t-45 11.5q-21 0 -40 -7.5t-34 -22t-25 -34.5l-169 84q38 72 112 113t184 41q116 0 188 -47.5t72 -133.5q0 -34 -11 -63.5t-28 -48.5t-36.5 -37.5t-36.5 -31.5t-28.5 -30t-11.5 -33z M294.5 -10q-54.5 0 -90 33.5t-35.5 80.5q0 49 35 81t90.5 32t90.5 -32t35 -81q0 -47 -35.5 -80.5t-90 -33.5z" />
<glyph unicode="@" horiz-adv-x="985" d="M501 678q100 0 186 -32t145 -87.5t92.5 -131t33.5 -160.5q0 -131 -64 -203.5t-160 -72.5q-110 0 -150 83q-42 -83 -144 -83q-81 0 -141.5 66t-60.5 171q0 106 59.5 171t142.5 65q75 0 117 -47v38h182v-272q0 -52 37 -52q49 0 49 133q0 86 -40 152.5t-114 104t-170 37.5 q-145 0 -235.5 -90.5t-90.5 -227.5q0 -140 89 -229.5t233 -89.5q100 0 192 42l40 -117q-43 -21 -106 -33.5t-126 -12.5q-105 0 -193.5 34t-149 93t-93.5 140t-33 173t33.5 172t93.5 139t149.5 93t196.5 34zM492.5 141q30.5 0 49 22.5t18.5 64.5q0 28 -9 47.5t-24 29t-35 9.5 q-30 0 -48.5 -22t-18.5 -64t18.5 -64.5t49 -22.5z" />
<glyph unicode="A" horiz-adv-x="765" d="M784 0h-232l-45 116h-252l-45 -116h-228l291 665h220zM381 445l-65 -168h130z" />
<glyph unicode="B" horiz-adv-x="734" d="M586 348q17 -6 31.5 -14t27 -17.5t23 -20.5t18 -24t13 -27t8.5 -29.5t3 -32.5q0 -87 -72.5 -135t-209.5 -48h-374v665h355q133 0 201 -47.5t68 -126.5q0 -97 -92 -143zM379 508h-104v-99h104q73 0 73 49.5t-73 49.5zM275 157h134q75 0 75 52t-75 52h-134v-104z" />
<glyph unicode="C" horiz-adv-x="706" d="M398 -15q-161 0 -265.5 97.5t-104.5 250t104.5 250t265.5 97.5q196 0 298 -133l-141 -126q-62 78 -146 78q-70 0 -112.5 -45.5t-42.5 -121.5q0 -50 19.5 -87.5t54.5 -58t81 -20.5q84 0 146 78l141 -126q-102 -133 -298 -133z" />
<glyph unicode="D" horiz-adv-x="784" d="M382 0h-328v665h328q169 0 272 -90t103 -242.5t-103 -242.5t-272 -90zM278 490v-315h94q72 0 115.5 41.5t43.5 116t-43.5 116t-115.5 41.5h-94z" />
<glyph unicode="E" horiz-adv-x="639" d="M275 256v-87h332v-169h-553v665h541v-169h-320v-78h281v-162h-281z" />
<glyph unicode="F" horiz-adv-x="611" d="M595 665v-169h-317v-114h278v-169h-278v-213h-224v665h541z" />
<glyph unicode="G" horiz-adv-x="730" d="M494 182v169h195v-282q-59 -40 -137 -62t-153 -22q-162 0 -266.5 97.5t-104.5 249.5q0 153 105.5 250.5t270.5 97.5q199 0 304 -128l-144 -126q-63 73 -149 73q-74 0 -117.5 -45t-43.5 -122q0 -49 19.5 -86.5t55.5 -58.5t83 -21q43 0 82 16z" />
<glyph unicode="H" horiz-adv-x="763" d="M485 429v236h225v-665h-225v245h-207v-245h-224v665h224v-236h207z" />
<glyph unicode="I" horiz-adv-x="332" d="M278 0h-224v665h224v-665z" />
<glyph unicode="J" horiz-adv-x="545" d="M222 -15q-161 0 -245 99l121 142q53 -65 105 -65q24 0 40 9t24.5 27.5t8.5 45.5v253h-227v169h448v-409q0 -135 -70 -203t-205 -68z" />
<glyph unicode="K" horiz-adv-x="726" d="M750 0h-259l-166 220l-50 -56v-164h-221v665h221v-241l218 241h244l-266 -293z" />
<glyph unicode="L" horiz-adv-x="586" d="M579 0h-525v665h224v-491h301v-174z" />
<glyph unicode="M" horiz-adv-x="906" d="M850 665l2 -665h-204l-2 303l-144 -243h-99l-145 233v-293h-204v665h184l217 -354l211 354h184z" />
<glyph unicode="N" horiz-adv-x="763" d="M491 363v302h219v-665h-185l-252 302v-302h-219v665h184z" />
<glyph unicode="O" horiz-adv-x="805" d="M402.5 -15q-162.5 0 -268.5 98.5t-106 249t106 249t268.5 98.5t269 -98.5t106.5 -249t-106.5 -249t-269 -98.5zM403 166q41 0 75 20t54 58t20 88q0 76 -42.5 121.5t-106.5 45.5t-106.5 -45.5t-42.5 -121t42.5 -121t106.5 -45.5z" />
<glyph unicode="P" horiz-adv-x="705" d="M54 665h320q139 0 221 -67.5t82 -183t-82 -183.5t-221 -68h-96v-163h-224v665zM278 336h82q45 0 68 20.5t23 57.5t-23 57.5t-68 20.5h-82v-156z" />
<glyph unicode="Q" horiz-adv-x="805" d="M717 30l97 -114q-71 -84 -194 -84q-88 0 -154.5 34.5t-155.5 127.5q-63 13 -115 44t-89 74.5t-57.5 100t-20.5 119.5q0 151 106 249.5t268.5 98.5t269 -98.5t106.5 -249.5q0 -109 -58 -193t-157 -124q27 -27 62 -27q50 0 92 42zM403 499q-64 0 -106.5 -45.5t-42.5 -121 t42.5 -121t106.5 -45.5q41 0 75 20t54 58t20 88q0 76 -42.5 121.5t-106.5 45.5z" />
<glyph unicode="R" horiz-adv-x="707" d="M692 0h-240l-113 167h-61v-167h-224v665h320q139 0 221 -67.5t82 -183.5q0 -71 -32.5 -124.5t-92.5 -84.5zM451 414q0 37 -23 57.5t-68 20.5h-82v-156h82q45 0 68 20.5t23 57.5z" />
<glyph unicode="S" horiz-adv-x="624" d="M302 -15q-82 0 -160.5 18.5t-129.5 49.5l73 164q47 -28 106 -44.5t113 -16.5q86 0 86 36q0 15 -15.5 25.5t-41.5 16t-59 13.5t-67.5 15.5t-67.5 23t-59 36t-41.5 55.5t-15.5 79q0 97 80.5 160.5t228.5 63.5t251 -58l-67 -162q-98 49 -185 49t-87 -42q0 -15 20.5 -25.5 t53 -17.5t71.5 -14.5t78 -21.5t71.5 -34.5t53 -57.5t20.5 -87q0 -96 -81 -160t-229 -64z" />
<glyph unicode="T" horiz-adv-x="621" d="M423 0h-224v491h-195v174h614v-174h-195v-491z" />
<glyph unicode="U" horiz-adv-x="744" d="M372.5 -15q-153.5 0 -239 82.5t-85.5 231.5v366h225v-359q0 -140 101.5 -140t101.5 140v359h220v-366q0 -149 -85 -231.5t-238.5 -82.5z" />
<glyph unicode="V" horiz-adv-x="746" d="M382 276l162 389h221l-281 -665h-221l-281 665h241z" />
<glyph unicode="W" horiz-adv-x="1145" d="M801 282l122 383h213l-213 -665h-240l-107 355l-113 -355h-241l-212 665h230l116 -378l123 378h206z" />
<glyph unicode="X" horiz-adv-x="723" d="M486 344l246 -344h-257l-115 178l-112 -178h-256l241 335l-232 330h252l113 -167l110 167h241z" />
<glyph unicode="Y" horiz-adv-x="674" d="M484 665h216l-251 -424v-241h-224v244l-251 421h237l136 -230z" />
<glyph unicode="Z" horiz-adv-x="652" d="M626 527l-304 -353h319v-174h-611v138l304 353h-294v174h586v-138z" />
<glyph unicode="[" horiz-adv-x="389" d="M380 -184h-326v889h326v-162h-111v-566h111v-161z" />
<glyph unicode="\" horiz-adv-x="418" d="M142 800l314 -895h-190l-314 895h190z" />
<glyph unicode="]" horiz-adv-x="389" d="M335 705v-889h-325v161h111v566h-111v162h325z" />
<glyph unicode="^" horiz-adv-x="589" d="M379 533l176 -401h-162l-99 238l-98 -238h-162l176 401h169z" />
<glyph unicode="_" horiz-adv-x="475" d="M475 -114h-475v114h475v-114z" />
<glyph unicode="`" horiz-adv-x="570" d="M385 577h-143l-187 152h204z" />
<glyph unicode="a" horiz-adv-x="607" d="M280 529q281 0 281 -250v-279h-199v68q-37 -78 -147 -78q-92 0 -142.5 46t-50.5 116q0 157 237 157h87q-10 61 -98 61q-35 0 -71.5 -11t-61.5 -30l-68 141q29 19 69 32.5t82 20t82 6.5zM279 120q51 0 68 49v36h-53q-66 0 -66 -43q0 -19 14 -30.5t37 -11.5z" />
<glyph unicode="b" horiz-adv-x="665" d="M394 529q106 0 178.5 -73.5t72.5 -195t-72.5 -196t-178.5 -74.5q-96 0 -142 53v-43h-204v705h214v-221q46 45 132 45zM343 158q24 0 43 11t30.5 35t11.5 56.5t-11.5 56t-30.5 34.5t-43 11q-37 0 -61 -26.5t-24 -75.5t24 -75.5t61 -26.5z" />
<glyph unicode="c" horiz-adv-x="584" d="M327 -10q-135 0 -221 75.5t-86 194.5t86 194t221 75q94 0 162 -41t93 -113l-166 -81q-31 68 -90 68q-38 0 -63 -26.5t-25 -75.5t25 -75.5t63 -26.5q59 0 90 68l166 -82q-25 -72 -93 -113t-162 -41z" />
<glyph unicode="d" horiz-adv-x="669" d="M408 484v221h214v-705h-204v43q-47 -53 -142 -53q-106 0 -178.5 74.5t-72.5 196t72.5 195t178.5 73.5q86 0 132 -45zM327 158q24 0 43 11t30 35t11 56q0 49 -23.5 75.5t-60.5 26.5t-61 -26.5t-24 -75.5t24 -75.5t61 -26.5z" />
<glyph unicode="e" horiz-adv-x="620" d="M600 260q0 -4 -2 -50h-361q23 -61 104 -61q23 0 42 4.5t33.5 12t32.5 21.5l112 -113q-76 -84 -227 -84q-141 0 -227.5 76.5t-86.5 193.5q0 118 84 193.5t210 75.5q79 0 143 -30t103.5 -92t39.5 -147zM316 383q-33 0 -55 -18.5t-28 -50.5h167q-6 32 -28.5 50.5t-55.5 18.5 z" />
<glyph unicode="f" horiz-adv-x="404" d="M279 492v-1h113v-157h-106v-334h-215v334h-71v157h71v3q0 102 61 161t171 59q80 0 127 -25l-51 -149q-26 12 -48 12q-52 0 -52 -60z" />
<glyph unicode="g" horiz-adv-x="675" d="M424 461v59h204v-416q0 -149 -82.5 -223.5t-233.5 -74.5q-163 0 -261 65l73 146q30 -23 76.5 -37t89.5 -14q64 0 93.5 27.5t29.5 80.5v10q-48 -56 -143 -56q-103 0 -176.5 70t-73.5 181.5t73.5 180.5t176.5 69q106 0 154 -68zM326.5 196q38.5 0 63.5 23t25 60t-25 60 t-63.5 23t-63.5 -23t-25 -60t25 -60t63.5 -23z" />
<glyph unicode="h" horiz-adv-x="666" d="M408 529q96 0 154.5 -58t58.5 -175v-296h-214v259q0 90 -64 90q-36 0 -58.5 -25.5t-22.5 -79.5v-244h-214v705h214v-227q60 51 146 51z" />
<glyph unicode="i" horiz-adv-x="309" d="M155 561q-58 0 -93.5 31.5t-35.5 78.5q0 31 15.5 55.5t45 39t68.5 14.5q58 0 93.5 -29.5t35.5 -76.5q0 -32 -15.5 -57.5t-45 -40.5t-68.5 -15zM262 0h-214v520h214v-520z" />
<glyph unicode="j" horiz-adv-x="317" d="M162 561q-29 0 -53 8.5t-40.5 23.5t-26 35t-9.5 43q0 47 35.5 78t93.5 31q59 0 94.5 -29.5t35.5 -76.5q0 -49 -35.5 -81t-94.5 -32zM43 -194q-82 0 -132 26l51 149q23 -12 48 -12q21 0 33 14.5t12 44.5v492h215v-493q0 -102 -60.5 -161.5t-166.5 -59.5z" />
<glyph unicode="k" horiz-adv-x="677" d="M682 0h-259l-127 160l-34 -37v-123h-214v705h214v-336l149 151h254l-215 -226z" />
<glyph unicode="l" horiz-adv-x="309" d="M262 0h-214v705h214v-705z" />
<glyph unicode="m" horiz-adv-x="988" d="M735 529q94 0 150.5 -57.5t56.5 -175.5v-296h-214v259q0 90 -58 90q-31 0 -49.5 -23t-18.5 -72v-254h-214v259q0 90 -58 90q-31 0 -49.5 -23t-18.5 -72v-254h-214v520h204v-49q58 58 147 58q110 0 162 -79q66 79 174 79z" />
<glyph unicode="n" horiz-adv-x="666" d="M408 529q96 0 154.5 -58t58.5 -175v-296h-214v259q0 90 -64 90q-36 0 -58.5 -25.5t-22.5 -79.5v-244h-214v520h204v-52q61 61 156 61z" />
<glyph unicode="o" horiz-adv-x="644" d="M322 -10q-132 0 -217 76t-85 194t85 193.5t217 75.5q133 0 217.5 -75.5t84.5 -193.5t-84.5 -194t-217.5 -76zM322 158q24 0 43 11t30.5 35t11.5 56q0 49 -24 75.5t-61 26.5t-60.5 -26.5t-23.5 -75.5t23.5 -75.5t60.5 -26.5z" />
<glyph unicode="p" horiz-adv-x="665" d="M394 529q106 0 178.5 -74t72.5 -195.5t-72.5 -195.5t-178.5 -74q-86 0 -132 45v-219h-214v704h204v-43q46 52 142 52zM343 158q37 0 61 26.5t24 75t-24 75.5t-61 27t-61 -27t-24 -76q0 -24 6.5 -43.5t18 -32t27 -19t33.5 -6.5z" />
<glyph unicode="q" horiz-adv-x="665" d="M413 477v43h205v-704h-215v219q-46 -45 -132 -45q-106 0 -178.5 74t-72.5 195.5t72.5 195.5t178.5 74q96 0 142 -52zM322 158q37 0 61 26.5t24 75t-24 75.5t-61 27t-60.5 -27t-23.5 -75.5t23.5 -75t60.5 -26.5z" />
<glyph unicode="r" horiz-adv-x="433" d="M252 520v-56q57 65 168 65v-190q-25 4 -48 4q-110 0 -110 -112v-231h-214v520h204z" />
<glyph unicode="s" horiz-adv-x="536" d="M251 -10q-67 0 -131.5 14.5t-104.5 37.5l59 141q24 -14 55 -24.5t63.5 -16t63.5 -5.5q66 0 66 25q0 10 -16.5 15.5t-43 8.5t-58.5 7t-63.5 13.5t-58 25.5t-43 46.5t-16.5 73.5q0 76 70 126.5t196 50.5q129 0 212 -43l-59 -141q-69 38 -150 38q-71 0 -71 -25 q0 -12 22.5 -18.5t55.5 -8.5t71.5 -11t71.5 -23.5t55.5 -48t22.5 -82.5q0 -75 -70 -125.5t-199 -50.5z" />
<glyph unicode="t" horiz-adv-x="437" d="M379 167l51 -149q-48 -28 -132 -28q-109 0 -168 53t-59 158v133h-71v157h71v145h215v-145h106v-157h-106v-131q0 -23 12.5 -36.5t32.5 -13.5q27 0 48 14z" />
<glyph unicode="u" horiz-adv-x="663" d="M401 276v244h215v-520h-205v49q-57 -59 -147 -59q-99 0 -158.5 60.5t-59.5 182.5v287h214v-250q0 -53 17.5 -76t50.5 -23q31 0 52 25.5t21 79.5z" />
<glyph unicode="v" horiz-adv-x="611" d="M311 241l112 279h203l-209 -520h-222l-209 520h220z" />
<glyph unicode="w" horiz-adv-x="928" d="M653 242l93 278h188l-181 -520h-209l-78 240l-82 -240h-209l-181 520h204l89 -275l93 275h182z" />
<glyph unicode="x" horiz-adv-x="612" d="M426 267l195 -267h-246l-71 111l-80 -111h-233l197 257l-191 263h242l75 -111l77 111h226z" />
<glyph unicode="y" horiz-adv-x="611" d="M314 241l109 279h203l-214 -530q-40 -102 -101 -143t-149 -41q-44 0 -88 13t-70 34l71 147q36 -28 76 -28q35 0 53 21l-218 527h220z" />
<glyph unicode="z" horiz-adv-x="541" d="M514 396l-215 -239h225v-157h-496v124l215 239h-207v157h478v-124z" />
<glyph unicode="{" horiz-adv-x="416" d="M330 478v-90q0 -38 -8.5 -63.5t-25 -40.5t-43.5 -24q40 -12 58.5 -41.5t18.5 -85.5v-90q0 -66 67 -66h10v-161h-71q-109 0 -165 52.5t-56 149.5v120q0 20 -11 31t-30 11h-31v161h31q12 0 21 4.5t14.5 14t5.5 23.5v120q0 97 56 149.5t165 52.5h71v-162h-10q-67 0 -67 -65z " />
<glyph unicode="|" horiz-adv-x="304" d="M250 -184h-196v889h196v-889z" />
<glyph unicode="}" horiz-adv-x="416" d="M342 341h31v-161h-31q-19 0 -30 -11t-11 -31v-120q0 -97 -56 -149.5t-165 -52.5h-70v161h9q67 0 67 66v90q0 56 18.5 85.5t58.5 41.5q-40 13 -58.5 42t-18.5 86v90q0 65 -67 65h-9v162h70q73 0 122.5 -24t74 -69t24.5 -109v-120q0 -14 5.5 -23.5t14.5 -14t21 -4.5z" />
<glyph unicode="~" horiz-adv-x="589" d="M389 223q-30 0 -57.5 11.5t-45 24.5t-36.5 24t-32 11q-21 0 -34 -15.5t-15 -43.5h-131q1 65 22 112.5t57 72.5t83 25q30 0 57.5 -11.5t45 -24.5t36.5 -24.5t32 -11.5q11 0 19.5 4t15 12t10 19t4.5 25h131q-1 -97 -46 -153.5t-116 -56.5z" />
<glyph unicode="&#xa1;" horiz-adv-x="298" d="M149 529q36 0 65 -15.5t45 -41.5t16 -57q0 -48 -35.5 -80t-90.5 -32q-36 0 -65 14.5t-44.5 40.5t-15.5 57q0 48 35 81t90 33zM64 265h171l42 -411h-256z" />
<glyph unicode="&#xa2;" horiz-adv-x="584" d="M326 158q59 0 90 68l166 -82q-21 -60 -73 -99t-125 -51v-108h-134v112q-104 20 -167 91t-63 171t63 170.5t167 91.5v112h134v-109q73 -11 125 -50t73 -100l-166 -81q-31 68 -90 68q-38 0 -63 -26.5t-25 -75.5t25 -75.5t63 -26.5z" />
<glyph unicode="&#xa3;" horiz-adv-x="659" d="M538 270h-200v-101h289v-169h-599v169h86v101h-86v125h86q5 137 93 211t246 74q121 0 198 -41l-65 -169q-53 29 -114 29q-127 0 -134 -104h200v-125z" />
<glyph unicode="&#xa4;" horiz-adv-x="665" d="M573 307q0 -55 -24 -104l98 -98l-119 -118l-100 99q-46 -20 -96 -20t-97 20l-99 -99l-119 118l97 97q-24 49 -24 105q0 50 21 97l-94 94l119 119l92 -93q49 24 104 24t104 -24l92 93l119 -119l-94 -94q20 -48 20 -97zM332 232q20 0 37.5 10t28 27t10.5 37.5t-10.5 38 t-28 28t-38 10.5t-38 -10.5t-27.5 -28t-10 -37.5q0 -32 22 -53.5t54 -21.5z" />
<glyph unicode="&#xa5;" horiz-adv-x="731" d="M538 665h219l-240 -371h113v-106h-152v-25h152v-106h-152v-57h-224v57h-152v106h152v25h-152v106h114l-242 371h240l161 -244z" />
<glyph unicode="&#xa6;" horiz-adv-x="304" d="M250 372h-196v333h196v-333zM250 -184h-196v332h196v-332z" />
<glyph unicode="&#xa7;" horiz-adv-x="521" d="M500 293q0 -67 -53 -113q36 -37 36 -99q0 -82 -62 -133.5t-177 -51.5q-62 0 -125.5 14t-103.5 37l59 141q36 -21 83 -33.5t85 -12.5q52 0 52 31q0 16 -20 25.5t-51 13t-67 13t-66.5 23t-51 45t-20.5 76.5q0 74 52 122q-34 38 -34 98q0 83 67.5 134t198.5 51q30 0 66 -4 t76 -14t65 -24l-59 -142q-68 38 -157 38q-69 0 -69 -31q0 -13 20.5 -21.5t51 -12.5t66.5 -14.5t66.5 -26t51 -49t20.5 -80.5zM203 287q0 -9 5.5 -16t19.5 -11.5t24.5 -7t33.5 -7.5q3 -1 5 -1q23 16 23 40q0 23 -50 35q-9 2 -37 8q-24 -17 -24 -40z" />
<glyph unicode="&#xa8;" horiz-adv-x="570" d="M180 569q-37 0 -61.5 23t-24.5 60.5t24.5 61t61 23.5t61 -23.5t24.5 -60.5q0 -19 -6.5 -34.5t-18 -26.5t-27 -17t-33.5 -6zM390 569q-36 0 -60.5 23t-24.5 61q0 24 11 43.5t30.5 30t43.5 10.5q37 0 61.5 -23.5t24.5 -60.5q0 -25 -11.5 -44t-30.5 -29.5t-44 -10.5z" />
<glyph unicode="&#xa9;" horiz-adv-x="725" d="M362 -3q-93 0 -170 44.5t-120.5 121.5t-43.5 169.5t43.5 169.5t121 121.5t171.5 44.5q143 0 238.5 -96t95.5 -237.5t-97 -239.5t-239 -98zM362 81q106 0 176.5 72.5t70.5 181t-68.5 179t-176.5 70.5t-177.5 -72t-69.5 -179.5t69.5 -179.5t175.5 -72zM377 144 q-90 0 -147.5 53t-57.5 135.5t57.5 135.5t147.5 53q42 0 77 -13t59 -37.5t35 -57.5l-121 -61q-17 38 -51 38q-20 0 -34 -15t-14 -42.5t14 -42t34 -14.5q34 0 51 38l121 -62q-8 -25 -24 -45t-38 -34t-49.5 -21.5t-59.5 -7.5z" />
<glyph unicode="&#xaa;" horiz-adv-x="400" d="M182 714q185 0 185 -151v-164h-135v40q-23 -46 -93 -46q-40 0 -68 13.5t-41.5 35t-13.5 48.5q0 93 153 93h50q-7 32 -61 32q-47 0 -81 -24l-46 88q62 35 151 35zM182 474q30 0 39 27v18h-29q-39 0 -39 -23q0 -10 8 -16t21 -6z" />
<glyph unicode="&#xab;" horiz-adv-x="610" d="M345 70h-190l-131 190l131 190h190l-127 -190zM597 70h-190l-131 190l131 190h190l-127 -190z" />
<glyph unicode="&#xac;" horiz-adv-x="589" d="M52 413h485v-323h-171v162h-314v161z" />
<glyph unicode="&#xad;" horiz-adv-x="370" d="M328 194h-285v161h285v-161z" />
<glyph unicode="&#xae;" horiz-adv-x="725" d="M364 668q143 0 238.5 -96t95.5 -237.5t-97 -239.5t-239 -98q-93 0 -170 44.5t-120.5 121.5t-43.5 169.5t43.5 169.5t121 121.5t171.5 44.5zM486 270l66 -102q57 71 57 166q0 109 -68.5 179.5t-176.5 70.5t-177.5 -72t-69.5 -179.5t69.5 -179.5t175.5 -72q107 0 177 73 h-116l-59 91h-22v-91h-137v357h170q53 0 91 -16.5t57.5 -46.5t19.5 -70q0 -75 -57 -108zM342 417v-78h25q19 0 29.5 10.5t10.5 28.5t-10.5 28.5t-29.5 10.5h-25z" />
<glyph unicode="&#xaf;" horiz-adv-x="570" d="M484 597h-398v112h398v-112z" />
<glyph unicode="&#xb0;" horiz-adv-x="395" d="M197.5 332q-73.5 0 -126 49.5t-52.5 122.5q0 35 14 67t38.5 55t57 36t69.5 13q73 0 125.5 -49.5t52.5 -122t-52.5 -122t-126 -49.5zM198 430q31 0 51.5 21.5t20.5 52t-20.5 52t-51.5 21.5t-52 -21.5t-21 -51.5q0 -21 9.5 -37.5t26 -26.5t37.5 -10z" />
<glyph unicode="&#xb1;" horiz-adv-x="589" d="M380 665v-144h157v-153h-157v-145h-171v145h-157v153h157v144h171zM537 0h-485v162h485v-162z" />
<glyph unicode="&#xb2;" horiz-adv-x="408" d="M293 464l-53 -45h141v-108h-348v86l151 129q34 29 34 52q0 26 -38 26q-44 0 -63 -36l-110 52q14 28 38.5 49t62.5 33t86 12q79 0 127 -34t48 -91q0 -31 -16 -59t-60 -66z" />
<glyph unicode="&#xb3;" horiz-adv-x="408" d="M370 618l-78 -67q25 -6 44.5 -16.5t32 -25t19 -32.5t6.5 -39q0 -56 -50.5 -96.5t-150.5 -40.5q-52 0 -102 11t-82 29l49 104q62 -34 131 -34q55 0 55 27q0 23 -45 23h-69v86l60 52h-160v106h340v-87z" />
<glyph unicode="&#xb4;" horiz-adv-x="570" d="M328 577h-143l126 152h204z" />
<glyph unicode="&#xb5;" horiz-adv-x="665" d="M403 276v244h215v-520h-186v48q-38 -58 -109 -58q-33 0 -61 14v-188h-214v704h214v-250q0 -53 17.5 -76t50.5 -23q31 0 52 25.5t21 79.5z" />
<glyph unicode="&#xb6;" horiz-adv-x="693" d="M390 -95h-172v411q-91 3 -150.5 56t-59.5 138q0 90 67 142.5t180 52.5h384v-800h-173v653h-76v-653z" />
<glyph unicode="&#xb7;" horiz-adv-x="326" d="M163.5 151q-55.5 0 -90.5 34t-35 90t34.5 89.5t90.5 33.5t91 -33.5t35 -89.5t-35 -90t-90.5 -34z" />
<glyph unicode="&#xb8;" horiz-adv-x="570" d="M246 -228q-56 0 -93 20l27 79q28 -12 57 -12q45 0 45 23q0 19 -39 19h-39l26 109h110l-13 -59q42 -6 61.5 -27t19.5 -49q0 -48 -44.5 -75.5t-117.5 -27.5z" />
<glyph unicode="&#xb9;" horiz-adv-x="408" d="M296 705v-289h71v-105h-306v105h83v183h-74v106h226z" />
<glyph unicode="&#xba;" horiz-adv-x="416" d="M208 393q-84 0 -138.5 45t-54.5 115.5t54.5 115.5t138.5 45q85 0 139 -45t54 -115q0 -35 -14.5 -65t-39.5 -51t-61 -33t-78 -12zM208 498q22 0 35.5 14.5t13.5 41.5t-13.5 41.5t-35.5 14.5t-35.5 -14.5t-13.5 -41.5t13.5 -41.5t35.5 -14.5z" />
<glyph unicode="&#xbb;" horiz-adv-x="610" d="M335 260l-131 -190h-190l127 190l-127 190h190zM587 260l-131 -190h-190l126 190l-126 190h190z" />
<glyph unicode="&#xbc;" horiz-adv-x="1004" d="M296 376h71v-105h-306v105h83v184h-74v105h226v-289zM195 0l454 665h160l-454 -665h-160zM947 173h48v-108h-48v-65h-144v65h-208v89l166 240h159l-154 -221h54v52h127v-52z" />
<glyph unicode="&#xbd;" horiz-adv-x="1004" d="M296 376h71v-105h-306v105h83v184h-74v105h226v-289zM195 0l454 665h160l-454 -665h-160zM888 153l-52 -45h141v-108h-348v86l151 130q34 28 34 51q0 27 -38 27q-44 0 -64 -37l-110 53q22 43 69.5 68.5t117.5 25.5q79 0 127 -34t48 -92q0 -30 -16 -58t-60 -67z" />
<glyph unicode="&#xbe;" horiz-adv-x="1004" d="M394 398q0 -56 -50.5 -96.5t-150.5 -40.5q-52 0 -102 11t-82 29l49 104q62 -34 131 -34q55 0 55 27q0 23 -45 23h-69v86l60 53h-160v105h340v-86l-78 -68q49 -11 75.5 -41t26.5 -72zM195 0l454 665h160l-454 -665h-160zM947 173h48v-108h-48v-65h-144v65h-208v89l166 240 h159l-154 -221h54v52h127v-52z" />
<glyph unicode="&#xbf;" horiz-adv-x="575" d="M281 303q-27 0 -50.5 8.5t-40 23.5t-25.5 36t-9 44q0 48 35.5 81t89.5 33q36 0 65 -15.5t45 -41.5t16 -57q0 -48 -35.5 -80t-90.5 -32zM292 -161q-116 0 -188.5 47.5t-72.5 134.5q0 26 6.5 49t17.5 40t24.5 32.5t28 27.5t28 24t24 22.5t17 23t6.5 25.5h196q0 -27 -9 -51 t-22.5 -41t-29.5 -33t-29.5 -28t-23 -26.5t-9.5 -27.5q0 -21 18.5 -33t45.5 -12q31 0 57.5 17.5t41.5 47.5l169 -85q-38 -71 -112.5 -112.5t-183.5 -41.5z" />
<glyph unicode="&#xc0;" horiz-adv-x="765" d="M357 871l126 -152h-143l-187 152h204zM784 0h-232l-45 116h-252l-45 -116h-228l291 665h220zM381 445l-65 -168h130z" />
<glyph unicode="&#xc1;" horiz-adv-x="765" d="M408 871h205l-187 -152h-143zM784 0h-232l-45 116h-252l-45 -116h-228l291 665h220zM381 445l-65 -168h130z" />
<glyph unicode="&#xc2;" horiz-adv-x="765" d="M463 719l-80 73l-80 -73h-133l122 152h182l122 -152h-133zM784 0h-232l-45 116h-252l-45 -116h-228l291 665h220zM381 445l-65 -168h130z" />
<glyph unicode="&#xc3;" horiz-adv-x="765" d="M319 766q-18 0 -29.5 -12.5t-13.5 -34.5h-101q1 76 36 120.5t95 44.5q30 0 58 -14.5t48.5 -28.5t33.5 -14q19 0 30.5 12t12.5 32h102q-2 -73 -36.5 -117t-94.5 -44q-30 0 -58 14t-49 28t-34 14zM784 0h-232l-45 116h-252l-45 -116h-228l291 665h220zM381 445l-65 -168 h130z" />
<glyph unicode="&#xc4;" horiz-adv-x="765" d="M277 712q-36 0 -60.5 23t-24.5 60t24.5 61t60.5 24q24 0 43.5 -10.5t31 -30t11.5 -44.5t-11.5 -44t-30.5 -29t-44 -10zM488 712q-37 0 -61 23t-24 60q0 25 11 44.5t30.5 30t43.5 10.5q37 0 61.5 -24t24.5 -61q0 -25 -11.5 -44t-31 -29t-43.5 -10zM784 0h-232l-45 116 h-252l-45 -116h-228l291 665h220zM381 445l-65 -168h130z" />
<glyph unicode="&#xc5;" horiz-adv-x="765" d="M383 706q-56 0 -94.5 37t-38.5 90.5t38.5 90t94.5 36.5t94.5 -36.5t38.5 -90.5q0 -35 -17.5 -64t-48 -46t-67.5 -17zM383 884q-22 0 -36.5 -14t-14.5 -36.5t14.5 -37t36.5 -14.5t36.5 14.5t14.5 36.5q0 15 -7 27t-18.5 18t-25.5 6zM784 0h-232l-45 116h-252l-45 -116 h-228l291 665h220zM381 445l-65 -168h130z" />
<glyph unicode="&#xc6;" horiz-adv-x="1063" d="M698 256v-87h333v-169h-553v116h-210l-58 -116h-228l350 665h686v-169h-320v-78h281v-162h-281zM456 496l-108 -219h130v219h-22z" />
<glyph unicode="&#xc7;" horiz-adv-x="706" d="M409 166q84 0 146 78l141 -126q-96 -125 -274 -132l-8 -35q42 -6 61.5 -27t19.5 -49q0 -32 -20 -55t-56.5 -35.5t-85.5 -12.5q-56 0 -93 20l27 79q28 -12 57 -12q46 0 46 23q0 19 -39 19h-39l22 91q-129 26 -207.5 118t-78.5 222q0 153 104.5 250.5t265.5 97.5 q196 0 298 -133l-141 -126q-62 78 -146 78q-70 0 -112.5 -45.5t-42.5 -121.5q0 -50 19.5 -87.5t54.5 -58t81 -20.5z" />
<glyph unicode="&#xc8;" horiz-adv-x="639" d="M299 871l126 -152h-143l-187 152h204zM275 256v-87h332v-169h-553v665h541v-169h-320v-78h281v-162h-281z" />
<glyph unicode="&#xc9;" horiz-adv-x="639" d="M351 871h204l-187 -152h-143zM275 256v-87h332v-169h-553v665h541v-169h-320v-78h281v-162h-281z" />
<glyph unicode="&#xca;" horiz-adv-x="639" d="M405 719l-80 73l-80 -73h-133l122 152h182l122 -152h-133zM275 256v-87h332v-169h-553v665h541v-169h-320v-78h281v-162h-281z" />
<glyph unicode="&#xcb;" horiz-adv-x="639" d="M219 712q-36 0 -60.5 23t-24.5 60t24.5 61t61 24t61 -24t24.5 -61q0 -25 -11.5 -44t-30.5 -29t-44 -10zM430 712q-37 0 -61 23t-24 60t24.5 61t61 24t61 -24t24.5 -61q0 -25 -11.5 -44t-31 -29t-43.5 -10zM275 256v-87h332v-169h-553v665h541v-169h-320v-78h281v-162 h-281z" />
<glyph unicode="&#xcc;" horiz-adv-x="332" d="M266 719h-142l-188 152h205zM278 0h-224v665h224v-665z" />
<glyph unicode="&#xcd;" horiz-adv-x="332" d="M209 719h-143l126 152h204zM278 0h-224v665h224v-665z" />
<glyph unicode="&#xce;" horiz-adv-x="332" d="M246 719l-80 73l-80 -73h-133l122 152h182l122 -152h-133zM278 0h-224v665h224v-665z" />
<glyph unicode="&#xcf;" horiz-adv-x="332" d="M61 712q-37 0 -61.5 23t-24.5 60t24.5 61t61.5 24t61 -24t24 -61q0 -25 -11 -44t-30.5 -29t-43.5 -10zM272 712q-37 0 -61.5 23t-24.5 60t24.5 61t61 24t61 -24t24.5 -61q0 -25 -11 -44t-30.5 -29t-43.5 -10zM278 0h-224v665h224v-665z" />
<glyph unicode="&#xd0;" horiz-adv-x="803" d="M73 665h328q169 0 272 -90t103 -242.5t-103 -242.5t-272 -90h-328v273h-82v129h82v263zM297 175h94q72 0 115.5 41.5t43.5 116t-43.5 116t-115.5 41.5h-94v-88h141v-129h-141v-98z" />
<glyph unicode="&#xd1;" horiz-adv-x="763" d="M318 766q-12 0 -21.5 -6t-15 -16.5t-5.5 -24.5h-102q1 76 36 120.5t95 44.5q30 0 58 -14.5t48.5 -28.5t34.5 -14q18 0 29.5 12t12.5 32h102q-1 -73 -36 -117t-95 -44q-30 0 -58 14t-49 28t-34 14zM491 363v302h219v-665h-185l-252 302v-302h-219v665h184z" />
<glyph unicode="&#xd2;" horiz-adv-x="805" d="M503 719h-143l-187 152h204zM402.5 -15q-162.5 0 -268.5 98.5t-106 249t106 249t268.5 98.5t269 -98.5t106.5 -249t-106.5 -249t-269 -98.5zM403 166q41 0 75 20t54 58t20 88q0 76 -42.5 121.5t-106.5 45.5t-106.5 -45.5t-42.5 -121t42.5 -121t106.5 -45.5z" />
<glyph unicode="&#xd3;" horiz-adv-x="805" d="M446 719h-143l125 152h205zM402.5 -15q-162.5 0 -268.5 98.5t-106 249t106 249t268.5 98.5t269 -98.5t106.5 -249t-106.5 -249t-269 -98.5zM403 166q41 0 75 20t54 58t20 88q0 76 -42.5 121.5t-106.5 45.5t-106.5 -45.5t-42.5 -121t42.5 -121t106.5 -45.5z" />
<glyph unicode="&#xd4;" horiz-adv-x="805" d="M483 719l-80 73l-80 -73h-133l122 152h182l122 -152h-133zM402.5 680q162.5 0 269 -98.5t106.5 -249t-106.5 -249t-269 -98.5t-268.5 98.5t-106 249t106 249t268.5 98.5zM403 166q41 0 75 20t54 58t20 88q0 76 -42.5 121.5t-106.5 45.5t-106.5 -45.5t-42.5 -121 t42.5 -121t106.5 -45.5z" />
<glyph unicode="&#xd5;" horiz-adv-x="805" d="M480 710q-31 0 -58.5 14t-48.5 28t-34 14q-18 0 -29.5 -12.5t-13.5 -34.5h-101q1 50 16.5 87t45 57.5t69.5 20.5q30 0 58 -14.5t48.5 -28.5t33.5 -14q19 0 30.5 12t12.5 32h102q-2 -73 -36.5 -117t-94.5 -44zM402.5 -15q-162.5 0 -268.5 98.5t-106 249t106 249 t268.5 98.5t269 -98.5t106.5 -249t-106.5 -249t-269 -98.5zM403 166q41 0 75 20t54 58t20 88q0 76 -42.5 121.5t-106.5 45.5t-106.5 -45.5t-42.5 -121t42.5 -121t106.5 -45.5z" />
<glyph unicode="&#xd6;" horiz-adv-x="805" d="M297 712q-24 0 -43.5 10t-30.5 29t-11 44q0 37 24.5 61t61 24t61 -24t24.5 -61q0 -25 -11.5 -44t-31 -29t-43.5 -10zM508 712q-37 0 -61 23t-24 60q0 25 11 44.5t30.5 30t43.5 10.5q37 0 61.5 -24t24.5 -61q0 -25 -11.5 -44t-31 -29t-43.5 -10zM402.5 -15 q-162.5 0 -268.5 98.5t-106 249t106 249t268.5 98.5t269 -98.5t106.5 -249t-106.5 -249t-269 -98.5zM403 166q41 0 75 20t54 58t20 88q0 76 -42.5 121.5t-106.5 45.5t-106.5 -45.5t-42.5 -121t42.5 -121t106.5 -45.5z" />
<glyph unicode="&#xd7;" horiz-adv-x="589" d="M408 560l114 -114l-114 -114l114 -114l-114 -114l-114 114l-114 -114l-114 114l114 114l-114 114l114 114l114 -114z" />
<glyph unicode="&#xd8;" horiz-adv-x="805" d="M748 732l-95 -134q59 -48 92 -116t33 -150q0 -150 -106.5 -248.5t-268.5 -98.5q-87 0 -163 31l-59 -82h-123l95 133q-60 48 -92.5 116t-32.5 149q0 151 106 249.5t269 98.5q86 0 162 -31l59 83h124zM254 332q0 -54 22 -92l177 250q-24 9 -50 9q-64 0 -106.5 -45.5 t-42.5 -121.5zM403 166q41 0 75 20t54 58t20 88q0 55 -22 93l-178 -250q25 -9 51 -9z" />
<glyph unicode="&#xd9;" horiz-adv-x="744" d="M474 719h-142l-188 152h205zM372.5 -15q-153.5 0 -239 82.5t-85.5 231.5v366h225v-359q0 -140 101.5 -140t101.5 140v359h220v-366q0 -149 -85 -231.5t-238.5 -82.5z" />
<glyph unicode="&#xda;" horiz-adv-x="744" d="M417 719h-142l125 152h204zM372.5 -15q-153.5 0 -239 82.5t-85.5 231.5v366h225v-359q0 -140 101.5 -140t101.5 140v359h220v-366q0 -149 -85 -231.5t-238.5 -82.5z" />
<glyph unicode="&#xdb;" horiz-adv-x="744" d="M454 719l-80 73l-80 -73h-132l121 152h183l121 -152h-133zM476 306v359h220v-366q0 -149 -85 -231.5t-238.5 -82.5t-239 82.5t-85.5 231.5v366h225v-359q0 -140 101.5 -140t101.5 140z" />
<glyph unicode="&#xdc;" horiz-adv-x="744" d="M269 712q-37 0 -61.5 23t-24.5 60t24.5 61t61.5 24t61 -24t24 -61q0 -25 -11 -44t-30.5 -29t-43.5 -10zM480 712q-37 0 -61.5 23t-24.5 60q0 25 11.5 44.5t31 30t43.5 10.5q37 0 61 -24t24 -61q0 -25 -11 -44t-30.5 -29t-43.5 -10zM372.5 -15q-153.5 0 -239 82.5 t-85.5 231.5v366h225v-359q0 -140 101.5 -140t101.5 140v359h220v-366q0 -149 -85 -231.5t-238.5 -82.5z" />
<glyph unicode="&#xdd;" horiz-adv-x="674" d="M363 871h204l-187 -152h-142zM484 665h216l-251 -424v-241h-224v244l-251 421h237l136 -230z" />
<glyph unicode="&#xde;" horiz-adv-x="705" d="M278 601h96q139 0 221 -67.5t82 -182.5q0 -77 -37 -133.5t-105.5 -87t-160.5 -30.5h-96v-100h-224v666h224v-65zM278 273h82q30 0 51 9.5t30.5 26.5t9.5 42q0 37 -23 57t-68 20h-82v-155z" />
<glyph unicode="&#xdf;" horiz-adv-x="678" d="M538 376q120 -47 120 -174q0 -99 -67.5 -155.5t-182.5 -56.5q-74 0 -115 16l21 163q29 -11 62 -11q29 0 47 13t18 37q0 49 -72 49h-50v162q33 1 53 19t20 47t-17 46.5t-44 17.5q-32 0 -50.5 -18.5t-18.5 -52.5v-478h-214v448q0 64 22 115.5t61 84t90 49.5t109 17 q125 0 196.5 -58.5t71.5 -149.5q0 -75 -60 -130z" />
<glyph unicode="&#xe0;" horiz-adv-x="607" d="M279 729l126 -152h-143l-187 152h204zM280 529q281 0 281 -250v-279h-199v68q-37 -78 -147 -78q-92 0 -142.5 46t-50.5 116q0 157 237 157h87q-10 61 -98 61q-35 0 -71.5 -11t-61.5 -30l-68 141q29 19 69 32.5t82 20t82 6.5zM279 120q51 0 68 49v36h-53q-66 0 -66 -43 q0 -19 14 -30.5t37 -11.5z" />
<glyph unicode="&#xe1;" horiz-adv-x="607" d="M331 729h204l-187 -152h-143zM280 529q281 0 281 -250v-279h-199v68q-37 -78 -147 -78q-92 0 -142.5 46t-50.5 116q0 157 237 157h87q-10 61 -98 61q-35 0 -71.5 -11t-61.5 -30l-68 141q29 19 69 32.5t82 20t82 6.5zM279 120q51 0 68 49v36h-53q-66 0 -66 -43 q0 -19 14 -30.5t37 -11.5z" />
<glyph unicode="&#xe2;" horiz-adv-x="607" d="M385 577l-80 73l-80 -73h-133l122 152h182l122 -152h-133zM280 529q281 0 281 -250v-279h-199v68q-37 -78 -147 -78q-92 0 -142.5 46t-50.5 116q0 157 237 157h87q-10 61 -98 61q-35 0 -71.5 -11t-61.5 -30l-68 141q29 19 69 32.5t82 20t82 6.5zM279 120q51 0 68 49v36 h-53q-66 0 -66 -43q0 -19 14 -30.5t37 -11.5z" />
<glyph unicode="&#xe3;" horiz-adv-x="607" d="M241 623q-12 0 -21.5 -5.5t-15 -16t-5.5 -24.5h-102q1 75 36 119.5t95 44.5q30 0 58 -14t48.5 -28t34.5 -14q18 0 29.5 12t12.5 32h102q-1 -74 -36 -118t-95 -44q-30 0 -58 14t-48.5 28t-34.5 14zM280 529q281 0 281 -250v-279h-199v68q-37 -78 -147 -78q-92 0 -142.5 46 t-50.5 116q0 157 237 157h87q-10 61 -98 61q-35 0 -71.5 -11t-61.5 -30l-68 141q29 19 69 32.5t82 20t82 6.5zM279 120q51 0 68 49v36h-53q-66 0 -66 -43q0 -19 14 -30.5t37 -11.5z" />
<glyph unicode="&#xe4;" horiz-adv-x="607" d="M200 569q-37 0 -61.5 23t-24.5 60.5t24.5 61t61 23.5t61 -23.5t24.5 -60.5q0 -25 -11.5 -44t-30.5 -29.5t-43 -10.5zM410.5 569q-36.5 0 -61 23t-24.5 61q0 24 11 43.5t30.5 30t43.5 10.5t43.5 -10.5t31 -30t11.5 -43.5q0 -38 -24.5 -61t-61 -23zM280 529q281 0 281 -250 v-279h-199v68q-37 -78 -147 -78q-92 0 -142.5 46t-50.5 116q0 157 237 157h87q-10 61 -98 61q-35 0 -71.5 -11t-61.5 -30l-68 141q29 19 69 32.5t82 20t82 6.5zM279 120q51 0 68 49v36h-53q-66 0 -66 -43q0 -19 14 -30.5t37 -11.5z" />
<glyph unicode="&#xe5;" horiz-adv-x="607" d="M305 560q-56 0 -94.5 37t-38.5 90.5t38.5 90.5t94.5 37t94.5 -37t38.5 -90.5t-38.5 -90.5t-94.5 -37zM305 739q-11 0 -20.5 -3.5t-16 -10.5t-10.5 -16.5t-4 -20.5q0 -23 14.5 -37.5t36.5 -14.5t36.5 14.5t14.5 37t-14.5 37t-36.5 14.5zM280 529q281 0 281 -250v-279h-199 v68q-37 -78 -147 -78q-92 0 -142.5 46t-50.5 116q0 157 237 157h87q-10 61 -98 61q-35 0 -71.5 -11t-61.5 -30l-68 141q29 19 69 32.5t82 20t82 6.5zM279 120q51 0 68 49v36h-53q-66 0 -66 -43q0 -19 14 -30.5t37 -11.5z" />
<glyph unicode="&#xe6;" horiz-adv-x="952" d="M933 262q0 -24 -4 -54h-360q22 -59 103 -59q55 0 109 38l112 -113q-79 -84 -224 -84q-140 0 -222 78q-61 -78 -191 -78q-109 0 -171.5 46.5t-62.5 123.5q0 72 59.5 112t177.5 40h86q-12 58 -96 58q-80 0 -134 -41l-68 141q44 28 106.5 43.5t125.5 15.5q122 0 188 -57 q80 57 184 57q75 0 138 -30t103.5 -92t40.5 -145zM647 383q-32 0 -54.5 -19t-29.5 -52h165q-7 33 -28.5 52t-52.5 19zM281 120q31 0 48.5 18.5t17.5 51.5v18h-53q-66 0 -66 -44q0 -20 13.5 -32t39.5 -12z" />
<glyph unicode="&#xe7;" horiz-adv-x="584" d="M326 158q59 0 90 68l166 -82q-24 -67 -84.5 -107.5t-145.5 -45.5l-10 -40q42 -6 61.5 -27t19.5 -49q0 -48 -44 -75.5t-118 -27.5q-56 0 -93 20l27 79q28 -12 57 -12q45 0 45 23q0 19 -39 19h-39l23 98q-101 22 -161.5 92.5t-60.5 168.5q0 119 86 194t221 75q94 0 162 -41 t93 -113l-166 -81q-31 68 -90 68q-38 0 -63 -26.5t-25 -75.5t25 -75.5t63 -26.5z" />
<glyph unicode="&#xe8;" horiz-adv-x="620" d="M285 729l125 -152h-142l-187 152h204zM600 260q0 -4 -2 -50h-361q23 -61 104 -61q23 0 42 4.5t33.5 12t32.5 21.5l112 -113q-76 -84 -227 -84q-141 0 -227.5 76.5t-86.5 193.5q0 118 84 193.5t210 75.5q79 0 143 -30t103.5 -92t39.5 -147zM316 383q-33 0 -55 -18.5 t-28 -50.5h167q-6 32 -28.5 50.5t-55.5 18.5z" />
<glyph unicode="&#xe9;" horiz-adv-x="620" d="M336 729h205l-188 -152h-142zM600 260q0 -4 -2 -50h-361q23 -61 104 -61q23 0 42 4.5t33.5 12t32.5 21.5l112 -113q-76 -84 -227 -84q-141 0 -227.5 76.5t-86.5 193.5q0 118 84 193.5t210 75.5q79 0 143 -30t103.5 -92t39.5 -147zM316 383q-33 0 -55 -18.5t-28 -50.5h167 q-6 32 -28.5 50.5t-55.5 18.5z" />
<glyph unicode="&#xea;" horiz-adv-x="620" d="M390 577l-79 73l-80 -73h-133l121 152h183l121 -152h-133zM600 260q0 -4 -2 -50h-361q23 -61 104 -61q23 0 42 4.5t33.5 12t32.5 21.5l112 -113q-76 -84 -227 -84q-141 0 -227.5 76.5t-86.5 193.5q0 118 84 193.5t210 75.5q79 0 143 -30t103.5 -92t39.5 -147zM316 383 q-33 0 -55 -18.5t-28 -50.5h167q-6 32 -28.5 50.5t-55.5 18.5z" />
<glyph unicode="&#xeb;" horiz-adv-x="620" d="M205 569q-37 0 -61 23t-24 60.5t24 61t61 23.5t61.5 -23.5t24.5 -60.5q0 -25 -11.5 -44t-31 -29.5t-43.5 -10.5zM416 569q-37 0 -61 23t-24 60.5t24 61t61 23.5t61.5 -23.5t24.5 -60.5q0 -25 -11.5 -44t-31 -29.5t-43.5 -10.5zM600 260q0 -4 -2 -50h-361q23 -61 104 -61 q23 0 42 4.5t33.5 12t32.5 21.5l112 -113q-76 -84 -227 -84q-141 0 -227.5 76.5t-86.5 193.5q0 118 84 193.5t210 75.5q79 0 143 -30t103.5 -92t39.5 -147zM316 383q-33 0 -55 -18.5t-28 -50.5h167q-6 32 -28.5 50.5t-55.5 18.5z" />
<glyph unicode="&#xec;" horiz-adv-x="309" d="M255 577h-143l-187 152h204zM262 0h-214v520h214v-520z" />
<glyph unicode="&#xed;" horiz-adv-x="309" d="M198 577h-143l125 152h205zM262 0h-214v520h214v-520z" />
<glyph unicode="&#xee;" horiz-adv-x="309" d="M211 577l-56 63l-56 -63h-133l100 152h178l100 -152h-133zM262 0h-214v520h214v-520z" />
<glyph unicode="&#xef;" horiz-adv-x="309" d="M66 569q-33 0 -55.5 23t-22.5 60.5t22.5 61t55.5 23.5q22 0 40 -10.5t28 -30t10 -43.5q0 -38 -22 -61t-56 -23zM244 569q-34 0 -56.5 23t-22.5 60.5t22.5 61t56.5 23.5q22 0 39.5 -10.5t28 -30t10.5 -44t-10.5 -43.5t-28 -29.5t-39.5 -10.5zM262 0h-214v520h214v-520z " />
<glyph unicode="&#xf0;" horiz-adv-x="642" d="M599 596l-48 -18q71 -98 71 -257q0 -158 -89 -247t-239 -89q-117 0 -195.5 64.5t-78.5 168.5q0 94 68 153t167 59q87 0 139 -40q-3 75 -37 117l-220 -79l-33 86l138 50q-23 2 -35 2q-62 0 -115 -17l-20 155q77 16 148 16q157 0 258 -70l88 32zM311.5 140q31.5 0 52.5 18 t21 49t-21 50t-52.5 19t-52.5 -19t-21 -50t21 -49t52.5 -18z" />
<glyph unicode="&#xf1;" horiz-adv-x="666" d="M274 623q-19 0 -30.5 -12.5t-12.5 -33.5h-102q2 75 36.5 119.5t94.5 44.5q31 0 58.5 -14t48.5 -28t34 -14q18 0 29.5 12t13.5 32h101q-1 -74 -36 -118t-95 -44q-30 0 -58 14t-48.5 28t-33.5 14zM408 529q96 0 154.5 -58t58.5 -175v-296h-214v259q0 90 -64 90 q-36 0 -58.5 -25.5t-22.5 -79.5v-244h-214v520h204v-52q61 61 156 61z" />
<glyph unicode="&#xf2;" horiz-adv-x="644" d="M419 577h-143l-187 152h205zM322 -10q-132 0 -217 76t-85 194t85 193.5t217 75.5q133 0 217.5 -75.5t84.5 -193.5t-84.5 -194t-217.5 -76zM322 158q24 0 43 11t30.5 35t11.5 56q0 49 -24 75.5t-61 26.5t-60.5 -26.5t-23.5 -75.5t23.5 -75.5t60.5 -26.5z" />
<glyph unicode="&#xf3;" horiz-adv-x="644" d="M362 577h-143l126 152h204zM322 -10q-132 0 -217 76t-85 194t85 193.5t217 75.5q133 0 217.5 -75.5t84.5 -193.5t-84.5 -194t-217.5 -76zM322 158q24 0 43 11t30.5 35t11.5 56q0 49 -24 75.5t-61 26.5t-60.5 -26.5t-23.5 -75.5t23.5 -75.5t60.5 -26.5z" />
<glyph unicode="&#xf4;" horiz-adv-x="644" d="M399 577l-80 73l-80 -73h-133l122 152h182l122 -152h-133zM322 529q133 0 217.5 -75.5t84.5 -193.5t-84.5 -194t-217.5 -76q-132 0 -217 76t-85 194t85 193.5t217 75.5zM322 158q24 0 43 11t30.5 35t11.5 56q0 49 -24 75.5t-61 26.5t-60.5 -26.5t-23.5 -75.5t23.5 -75.5 t60.5 -26.5z" />
<glyph unicode="&#xf5;" horiz-adv-x="644" d="M396 567q-30 0 -58 14t-48.5 28t-33.5 14q-19 0 -30.5 -12.5t-12.5 -33.5h-102q2 75 36.5 119.5t94.5 44.5q31 0 58.5 -14t48.5 -28t34 -14q18 0 29.5 12t13.5 32h101q-1 -74 -36 -118t-95 -44zM322 -10q-132 0 -217 76t-85 194t85 193.5t217 75.5q133 0 217.5 -75.5 t84.5 -193.5t-84.5 -194t-217.5 -76zM322 158q24 0 43 11t30.5 35t11.5 56q0 49 -24 75.5t-61 26.5t-60.5 -26.5t-23.5 -75.5t23.5 -75.5t60.5 -26.5z" />
<glyph unicode="&#xf6;" horiz-adv-x="644" d="M214 569q-37 0 -61.5 23t-24.5 60.5t24.5 61t61.5 23.5t61 -23.5t24 -60.5q0 -25 -11 -44t-30.5 -29.5t-43.5 -10.5zM425 569q-37 0 -61.5 23t-24.5 61q0 24 11.5 43.5t31 30t43.5 10.5t43.5 -10.5t30.5 -30t11 -43.5q0 -38 -24 -61t-61 -23zM322 -10q-132 0 -217 76 t-85 194t85 193.5t217 75.5q133 0 217.5 -75.5t84.5 -193.5t-84.5 -194t-217.5 -76zM322 158q24 0 43 11t30.5 35t11.5 56q0 49 -24 75.5t-61 26.5t-60.5 -26.5t-23.5 -75.5t23.5 -75.5t60.5 -26.5z" />
<glyph unicode="&#xf7;" horiz-adv-x="589" d="M294.5 439q-45.5 0 -76 29.5t-30.5 74.5q0 31 14 54.5t38.5 36t53.5 12.5q46 0 76.5 -28.5t30.5 -74.5q0 -45 -30.5 -74.5t-76 -29.5zM537 252h-485v161h485v-161zM294 19q-29 0 -53.5 13.5t-38.5 37.5t-14 54q0 18 5.5 34t15 28.5t22.5 21.5t29.5 13.5t33.5 4.5 q46 0 76.5 -28.5t30.5 -73.5q0 -46 -30.5 -75.5t-76.5 -29.5z" />
<glyph unicode="&#xf8;" horiz-adv-x="644" d="M574 580l-66 -102q55 -36 85.5 -92.5t30.5 -125.5q0 -118 -84.5 -194t-217.5 -76q-64 0 -118 20l-49 -76h-90l71 109q-55 36 -85.5 92t-30.5 125q0 118 85 193.5t217 75.5q61 0 117 -18l45 69h90zM238 260q0 -25 7 -48l96 148q-11 2 -19 2q-37 0 -60.5 -26.5t-23.5 -75.5 zM322 158q24 0 43 11t30.5 35t11.5 56q0 29 -9 49l-96 -149q12 -2 20 -2z" />
<glyph unicode="&#xf9;" horiz-adv-x="663" d="M305 729l125 -152h-142l-187 152h204zM401 276v244h215v-520h-205v49q-57 -59 -147 -59q-99 0 -158.5 60.5t-59.5 182.5v287h214v-250q0 -53 17.5 -76t50.5 -23q31 0 52 25.5t21 79.5z" />
<glyph unicode="&#xfa;" horiz-adv-x="663" d="M356 729h204l-187 -152h-142zM401 276v244h215v-520h-205v49q-57 -59 -147 -59q-99 0 -158.5 60.5t-59.5 182.5v287h214v-250q0 -53 17.5 -76t50.5 -23q31 0 52 25.5t21 79.5z" />
<glyph unicode="&#xfb;" horiz-adv-x="663" d="M410 577l-79 73l-80 -73h-133l121 152h183l121 -152h-133zM401 276v244h215v-520h-205v49q-57 -59 -147 -59q-99 0 -158.5 60.5t-59.5 182.5v287h214v-250q0 -53 17.5 -76t50.5 -23q31 0 52 25.5t21 79.5z" />
<glyph unicode="&#xfc;" horiz-adv-x="663" d="M225 569q-37 0 -61 23t-24 60.5t24 61t61 23.5q24 0 43.5 -10.5t31 -30t11.5 -43.5q0 -38 -24.5 -61t-61.5 -23zM436 569q-37 0 -61 23t-24 60.5t24 61t61 23.5t61.5 -23.5t24.5 -60.5q0 -25 -11.5 -44t-31 -29.5t-43.5 -10.5zM401 276v244h215v-520h-205v49 q-57 -59 -147 -59q-99 0 -158.5 60.5t-59.5 182.5v287h214v-250q0 -53 17.5 -76t50.5 -23q31 0 52 25.5t21 79.5z" />
<glyph unicode="&#xfd;" horiz-adv-x="611" d="M323 729h204l-187 -152h-142zM314 241l109 279h203l-214 -530q-40 -102 -101 -143t-149 -41q-44 0 -88 13t-70 34l71 147q36 -28 76 -28q35 0 53 21l-218 527h220z" />
<glyph unicode="&#xfe;" horiz-adv-x="665" d="M394 529q106 0 178.5 -74t72.5 -195.5t-72.5 -195.5t-178.5 -74q-86 0 -132 45v-219h-214v889h214v-218q46 42 132 42zM343 158q37 0 61 26.5t24 75t-24 75.5t-61 27t-61 -27t-24 -76q0 -24 6.5 -43.5t18 -32t27 -19t33.5 -6.5z" />
<glyph unicode="&#xff;" horiz-adv-x="611" d="M192 569q-37 0 -61.5 23t-24.5 60.5t24.5 61t61.5 23.5q24 0 43.5 -10.5t30.5 -30t11 -43.5q0 -38 -24 -61t-61 -23zM403 569q-37 0 -61.5 23t-24.5 61q0 24 11.5 43.5t31 30t43.5 10.5q37 0 61 -23.5t24 -60.5q0 -25 -11 -44t-30.5 -29.5t-43.5 -10.5zM314 241l109 279 h203l-214 -530q-40 -102 -101 -143t-149 -41q-44 0 -88 13t-70 34l71 147q36 -28 76 -28q35 0 53 21l-218 527h220z" />
<glyph unicode="&#x100;" horiz-adv-x="765" d="M183 851h399v-112h-399v112zM784 0h-232l-45 116h-252l-45 -116h-228l291 665h220zM381 445l-65 -168h130z" />
<glyph unicode="&#x101;" horiz-adv-x="607" d="M105 709h399v-112h-399v112zM280 529q281 0 281 -250v-279h-199v68q-37 -78 -147 -78q-92 0 -142.5 46t-50.5 116q0 157 237 157h87q-10 61 -98 61q-35 0 -71.5 -11t-61.5 -30l-68 141q29 19 69 32.5t82 20t82 6.5zM279 120q51 0 68 49v36h-53q-66 0 -66 -43 q0 -19 14 -30.5t37 -11.5z" />
<glyph unicode="&#x102;" horiz-adv-x="765" d="M383 710q-86 0 -140.5 43.5t-58.5 117.5h129q1 -17 10.5 -30.5t25 -20.5t34.5 -7q29 0 48.5 16t21.5 42h128q-3 -74 -57.5 -117.5t-140.5 -43.5zM784 0h-232l-45 116h-252l-45 -116h-228l291 665h220zM381 445l-65 -168h130z" />
<glyph unicode="&#x103;" horiz-adv-x="607" d="M305 567q-86 0 -140.5 43.5t-58.5 118.5h129q2 -27 21.5 -42.5t48.5 -15.5t48.5 15.5t21.5 42.5h129q-4 -75 -58.5 -118.5t-140.5 -43.5zM280 529q281 0 281 -250v-279h-199v68q-37 -78 -147 -78q-92 0 -142.5 46t-50.5 116q0 157 237 157h87q-10 61 -98 61 q-35 0 -71.5 -11t-61.5 -30l-68 141q29 19 69 32.5t82 20t82 6.5zM279 120q51 0 68 49v36h-53q-66 0 -66 -43q0 -19 14 -30.5t37 -11.5z" />
<glyph unicode="&#x104;" horiz-adv-x="765" d="M782 -118l26 -88q-41 -22 -108 -22q-70 0 -110 31.5t-40 85.5q0 64 63 111h-61l-45 116h-252l-45 -116h-228l291 665h220l291 -665q-60 -26 -84.5 -47.5t-24.5 -44.5q0 -11 5.5 -20t17 -14t28.5 -5q27 0 56 13zM381 445l-65 -168h130z" />
<glyph unicode="&#x105;" horiz-adv-x="607" d="M560 -118l25 -88q-40 -22 -107 -22q-47 0 -81 14.5t-51.5 40.5t-17.5 62q0 64 62 111h-28v68q-37 -78 -147 -78q-92 0 -142.5 46t-50.5 116q0 157 237 157h87q-10 61 -98 61q-35 0 -71.5 -11t-61.5 -30l-68 141q29 19 69 32.5t82 20t82 6.5q281 0 281 -250v-279 q-59 -26 -83.5 -47.5t-24.5 -44.5q0 -18 12.5 -28.5t38.5 -10.5q27 0 56 13zM279 120q51 0 68 49v36h-53q-66 0 -66 -43q0 -19 14 -30.5t37 -11.5z" />
<glyph unicode="&#x106;" horiz-adv-x="706" d="M440 720h-143l126 152h204zM398 -15q-161 0 -265.5 97.5t-104.5 250t104.5 250t265.5 97.5q196 0 298 -133l-141 -126q-62 78 -146 78q-70 0 -112.5 -45.5t-42.5 -121.5q0 -50 19.5 -87.5t54.5 -58t81 -20.5q84 0 146 78l141 -126q-102 -133 -298 -133z" />
<glyph unicode="&#x107;" horiz-adv-x="584" d="M351 577h-143l125 152h205zM327 -10q-135 0 -221 75.5t-86 194.5t86 194t221 75q94 0 162 -41t93 -113l-166 -81q-31 68 -90 68q-38 0 -63 -26.5t-25 -75.5t25 -75.5t63 -26.5q59 0 90 68l166 -82q-25 -72 -93 -113t-162 -41z" />
<glyph unicode="&#x108;" horiz-adv-x="706" d="M477 720l-80 73l-80 -73h-133l122 152h182l122 -152h-133zM409 166q84 0 146 78l141 -126q-102 -133 -298 -133q-161 0 -265.5 97.5t-104.5 250t104.5 250t265.5 97.5q196 0 298 -133l-141 -126q-62 78 -146 78q-70 0 -112.5 -45.5t-42.5 -121.5q0 -50 19.5 -87.5 t54.5 -58t81 -20.5z" />
<glyph unicode="&#x109;" horiz-adv-x="584" d="M388 577l-80 73l-80 -73h-133l122 152h182l122 -152h-133zM326 158q59 0 90 68l166 -82q-25 -72 -93 -113t-162 -41q-135 0 -221 75.5t-86 194.5t86 194t221 75q94 0 162 -41t93 -113l-166 -81q-31 68 -90 68q-38 0 -63 -26.5t-25 -75.5t25 -75.5t63 -26.5z" />
<glyph unicode="&#x10a;" horiz-adv-x="706" d="M397 711q-48 0 -78 30t-30 78t30 78t78 30t78 -30t30 -78t-30 -78t-78 -30zM398 -15q-161 0 -265.5 97.5t-104.5 250t104.5 250t265.5 97.5q196 0 298 -133l-141 -126q-62 78 -146 78q-70 0 -112.5 -45.5t-42.5 -121.5q0 -50 19.5 -87.5t54.5 -58t81 -20.5q84 0 146 78 l141 -126q-102 -133 -298 -133z" />
<glyph unicode="&#x10b;" horiz-adv-x="584" d="M308 567q-48 0 -78 30.5t-30 78t30 78t78 30.5t78 -30.5t30 -78t-30 -78t-78 -30.5zM327 -10q-135 0 -221 75.5t-86 194.5t86 194t221 75q94 0 162 -41t93 -113l-166 -81q-31 68 -90 68q-38 0 -63 -26.5t-25 -75.5t25 -75.5t63 -26.5q59 0 90 68l166 -82 q-25 -72 -93 -113t-162 -41z" />
<glyph unicode="&#x10c;" horiz-adv-x="706" d="M610 872l-122 -152h-182l-122 152h133l80 -73l80 73h133zM409 166q84 0 146 78l141 -126q-102 -133 -298 -133q-161 0 -265.5 97.5t-104.5 250t104.5 250t265.5 97.5q196 0 298 -133l-141 -126q-62 78 -146 78q-70 0 -112.5 -45.5t-42.5 -121.5q0 -50 19.5 -87.5 t54.5 -58t81 -20.5z" />
<glyph unicode="&#x10d;" horiz-adv-x="584" d="M521 729l-122 -152h-182l-122 152h133l80 -73l80 73h133zM326 158q59 0 90 68l166 -82q-25 -72 -93 -113t-162 -41q-135 0 -221 75.5t-86 194.5t86 194t221 75q94 0 162 -41t93 -113l-166 -81q-31 68 -90 68q-38 0 -63 -26.5t-25 -75.5t25 -75.5t63 -26.5z" />
<glyph unicode="&#x10e;" horiz-adv-x="784" d="M554 871l-122 -152h-182l-122 152h133l80 -73l80 73h133zM54 665h328q169 0 272 -90t103 -242.5t-103 -242.5t-272 -90h-328v665zM278 175h94q72 0 115.5 41.5t43.5 116t-43.5 116t-115.5 41.5h-94v-315z" />
<glyph unicode="&#x10f;" horiz-adv-x="669" d="M692 553v199h150l-29 -199h-121zM408 484v221h214v-705h-204v43q-47 -53 -142 -53q-106 0 -178.5 74.5t-72.5 196t72.5 195t178.5 73.5q86 0 132 -45zM327 158q24 0 43 11t30 35t11 56q0 49 -23.5 75.5t-60.5 26.5t-61 -26.5t-24 -75.5t24 -75.5t61 -26.5z" />
<glyph unicode="&#x110;" horiz-adv-x="803" d="M73 665h328q169 0 272 -90t103 -242.5t-103 -242.5t-272 -90h-328v273h-82v129h82v263zM297 175h94q72 0 115.5 41.5t43.5 116t-43.5 116t-115.5 41.5h-94v-88h141v-129h-141v-98z" />
<glyph unicode="&#x111;" horiz-adv-x="669" d="M622 660h49v-104h-49v-556h-204v43q-47 -53 -142 -53q-106 0 -178.5 74.5t-72.5 196t72.5 195t178.5 73.5q86 0 132 -45v72h-144v104h144v45h214v-45zM327 158q24 0 43 11t30 35t11 56q0 49 -23.5 75.5t-60.5 26.5t-61 -26.5t-24 -75.5t24 -75.5t61 -26.5z" />
<glyph unicode="&#x112;" horiz-adv-x="639" d="M125 851h399v-112h-399v112zM275 256v-87h332v-169h-553v665h541v-169h-320v-78h281v-162h-281z" />
<glyph unicode="&#x113;" horiz-adv-x="620" d="M111 709h399v-112h-399v112zM600 260q0 -4 -2 -50h-361q23 -61 104 -61q23 0 42 4.5t33.5 12t32.5 21.5l112 -113q-76 -84 -227 -84q-141 0 -227.5 76.5t-86.5 193.5q0 118 84 193.5t210 75.5q79 0 143 -30t103.5 -92t39.5 -147zM316 383q-33 0 -55 -18.5t-28 -50.5h167 q-6 32 -28.5 50.5t-55.5 18.5z" />
<glyph unicode="&#x114;" horiz-adv-x="639" d="M325 710q-86 0 -140.5 43.5t-58.5 117.5h129q2 -26 21.5 -42t48.5 -16t48.5 16t21.5 42h128q-3 -74 -57.5 -117.5t-140.5 -43.5zM275 256v-87h332v-169h-553v665h541v-169h-320v-78h281v-162h-281z" />
<glyph unicode="&#x115;" horiz-adv-x="620" d="M310.5 567q-86.5 0 -140.5 43.5t-58 118.5h128q2 -27 21.5 -42.5t49 -15.5t49 15.5t21.5 42.5h128q-3 -75 -57.5 -118.5t-141 -43.5zM600 260q0 -4 -2 -50h-361q23 -61 104 -61q23 0 42 4.5t33.5 12t32.5 21.5l112 -113q-76 -84 -227 -84q-141 0 -227.5 76.5t-86.5 193.5 q0 118 84 193.5t210 75.5q79 0 143 -30t103.5 -92t39.5 -147zM316 383q-33 0 -55 -18.5t-28 -50.5h167q-6 32 -28.5 50.5t-55.5 18.5z" />
<glyph unicode="&#x116;" horiz-adv-x="639" d="M325 710q-48 0 -78 30t-30 78q0 31 13.5 56t38 38.5t56.5 13.5q48 0 78 -30t30 -78t-30 -78t-78 -30zM275 256v-87h332v-169h-553v665h541v-169h-320v-78h281v-162h-281z" />
<glyph unicode="&#x117;" horiz-adv-x="620" d="M310.5 567q-47.5 0 -78 30.5t-30.5 78t30.5 78t78 30.5t78 -30.5t30.5 -78t-30.5 -78t-78 -30.5zM600 260q0 -4 -2 -50h-361q23 -61 104 -61q23 0 42 4.5t33.5 12t32.5 21.5l112 -113q-76 -84 -227 -84q-141 0 -227.5 76.5t-86.5 193.5q0 118 84 193.5t210 75.5 q79 0 143 -30t103.5 -92t39.5 -147zM316 383q-33 0 -55 -18.5t-28 -50.5h167q-6 32 -28.5 50.5t-55.5 18.5z" />
<glyph unicode="&#x118;" horiz-adv-x="639" d="M605 -118l26 -88q-41 -22 -108 -22q-70 0 -110 31.5t-40 85.5q0 64 63 111h-382v665h541v-169h-320v-78h281v-162h-281v-87h332v-169q-60 -26 -84 -47.5t-24 -44.5q0 -18 12.5 -28.5t37.5 -10.5q28 0 56 13z" />
<glyph unicode="&#x119;" horiz-adv-x="620" d="M600 260q0 -4 -2 -50h-361q23 -61 104 -61q23 0 42 4.5t33.5 12t32.5 21.5l113 -113q-21 -23 -40 -35q-63 -39 -84.5 -67t-21.5 -57q0 -20 14 -33t38 -13q26 0 54 13l26 -88q-40 -22 -107 -22q-47 0 -81 14.5t-51.5 41.5t-17.5 64q0 56 48 98h-5q-141 0 -227.5 76.5 t-86.5 193.5q0 118 84 193.5t210 75.5q79 0 143 -30t103.5 -92t39.5 -147zM316 383q-33 0 -55 -18.5t-28 -50.5h167q-6 32 -28.5 50.5t-55.5 18.5z" />
<glyph unicode="&#x11a;" horiz-adv-x="639" d="M538 871l-122 -152h-182l-122 152h133l80 -73l80 73h133zM275 256v-87h332v-169h-553v665h541v-169h-320v-78h281v-162h-281z" />
<glyph unicode="&#x11b;" horiz-adv-x="620" d="M523 729l-121 -152h-183l-121 152h133l80 -73l79 73h133zM600 260q0 -4 -2 -50h-361q23 -61 104 -61q23 0 42 4.5t33.5 12t32.5 21.5l112 -113q-76 -84 -227 -84q-141 0 -227.5 76.5t-86.5 193.5q0 118 84 193.5t210 75.5q79 0 143 -30t103.5 -92t39.5 -147zM316 383 q-33 0 -55 -18.5t-28 -50.5h167q-6 32 -28.5 50.5t-55.5 18.5z" />
<glyph unicode="&#x11c;" horiz-adv-x="730" d="M483 720l-80 73l-80 -73h-133l122 152h182l122 -152h-133zM494 182v169h195v-282q-59 -40 -137 -62t-153 -22q-162 0 -266.5 97.5t-104.5 249.5q0 153 105.5 250.5t270.5 97.5q199 0 304 -128l-144 -126q-63 73 -149 73q-74 0 -117.5 -45t-43.5 -122q0 -49 19.5 -86.5 t55.5 -58.5t83 -21q43 0 82 16z" />
<glyph unicode="&#x11d;" horiz-adv-x="675" d="M417 577l-80 73l-80 -73h-133l122 152h182l122 -152h-133zM424 461v59h204v-416q0 -149 -82.5 -223.5t-233.5 -74.5q-163 0 -261 65l73 146q30 -23 76.5 -37t89.5 -14q64 0 93.5 27.5t29.5 80.5v10q-48 -56 -143 -56q-103 0 -176.5 70t-73.5 181.5t73.5 180.5t176.5 69 q106 0 154 -68zM326.5 196q38.5 0 63.5 23t25 60t-25 60t-63.5 23t-63.5 -23t-25 -60t25 -60t63.5 -23z" />
<glyph unicode="&#x11e;" horiz-adv-x="730" d="M403 711q-86 0 -140.5 43.5t-58.5 117.5h128q3 -26 22 -42t49 -16q19 0 34.5 7t25 20.5t10.5 30.5h128q-3 -74 -57.5 -117.5t-140.5 -43.5zM494 182v169h195v-282q-59 -40 -137 -62t-153 -22q-162 0 -266.5 97.5t-104.5 249.5q0 153 105.5 250.5t270.5 97.5 q199 0 304 -128l-144 -126q-63 73 -149 73q-74 0 -117.5 -45t-43.5 -122q0 -49 19.5 -86.5t55.5 -58.5t83 -21q43 0 82 16z" />
<glyph unicode="&#x11f;" horiz-adv-x="675" d="M337 567q-86 0 -140.5 43.5t-57.5 118.5h128q2 -27 21.5 -42.5t49 -15.5t48.5 15.5t22 42.5h128q-4 -75 -58.5 -118.5t-140.5 -43.5zM424 461v59h204v-416q0 -149 -82.5 -223.5t-233.5 -74.5q-163 0 -261 65l73 146q30 -23 76.5 -37t89.5 -14q64 0 93.5 27.5t29.5 80.5 v10q-48 -56 -143 -56q-103 0 -176.5 70t-73.5 181.5t73.5 180.5t176.5 69q106 0 154 -68zM326.5 196q38.5 0 63.5 23t25 60t-25 60t-63.5 23t-63.5 -23t-25 -60t25 -60t63.5 -23z" />
<glyph unicode="&#x120;" horiz-adv-x="730" d="M403 711q-48 0 -78.5 30t-30.5 78t30.5 78t78.5 30t78 -30t30 -78t-30 -78t-78 -30zM494 182v169h195v-282q-59 -40 -137 -62t-153 -22q-162 0 -266.5 97.5t-104.5 249.5q0 153 105.5 250.5t270.5 97.5q199 0 304 -128l-144 -126q-63 73 -149 73q-74 0 -117.5 -45 t-43.5 -122q0 -49 19.5 -86.5t55.5 -58.5t83 -21q43 0 82 16z" />
<glyph unicode="&#x121;" horiz-adv-x="675" d="M337.5 567q-47.5 0 -78 30.5t-30.5 78t30.5 78t78 30.5t78 -30.5t30.5 -78t-30.5 -78t-78 -30.5zM424 461v59h204v-416q0 -149 -82.5 -223.5t-233.5 -74.5q-163 0 -261 65l73 146q30 -23 76.5 -37t89.5 -14q64 0 93.5 27.5t29.5 80.5v10q-48 -56 -143 -56 q-103 0 -176.5 70t-73.5 181.5t73.5 180.5t176.5 69q106 0 154 -68zM326.5 196q38.5 0 63.5 23t25 60t-25 60t-63.5 23t-63.5 -23t-25 -60t25 -60t63.5 -23z" />
<glyph unicode="&#x122;" horiz-adv-x="730" d="M494 182v169h195v-282q-59 -40 -137 -62t-153 -22q-162 0 -266.5 97.5t-104.5 249.5q0 153 105.5 250.5t270.5 97.5q199 0 304 -128l-144 -126q-63 73 -149 73q-74 0 -117.5 -45t-43.5 -122q0 -49 19.5 -86.5t55.5 -58.5t83 -21q43 0 82 16zM389.5 -48q39.5 0 62.5 -19 t23 -52q0 -35 -24 -76l-37 -61h-94l25 75q-41 15 -41 62q0 33 23 52t62.5 19z" />
<glyph unicode="&#x123;" horiz-adv-x="675" d="M337 567q-50 0 -75.5 19t-25.5 52q0 31 28 76l51 81h113l-38 -95q49 -16 49 -62q0 -33 -26 -52t-76 -19zM424 461v59h204v-416q0 -149 -82.5 -223.5t-233.5 -74.5q-163 0 -261 65l73 146q30 -23 76.5 -37t89.5 -14q64 0 93.5 27.5t29.5 80.5v10q-48 -56 -143 -56 q-103 0 -176.5 70t-73.5 181.5t73.5 180.5t176.5 69q106 0 154 -68zM326.5 196q38.5 0 63.5 23t25 60t-25 60t-63.5 23t-63.5 -23t-25 -60t25 -60t63.5 -23z" />
<glyph unicode="&#x124;" horiz-adv-x="763" d="M462 719l-80 73l-80 -73h-133l122 152h182l122 -152h-133zM485 429v236h225v-665h-225v245h-207v-245h-224v665h224v-236h207z" />
<glyph unicode="&#x125;" horiz-adv-x="666" d="M235 759l-80 73l-80 -73h-133l122 152h182l122 -152h-133zM408 529q96 0 154.5 -58t58.5 -175v-296h-214v259q0 90 -64 90q-36 0 -58.5 -25.5t-22.5 -79.5v-244h-214v705h214v-227q60 51 146 51z" />
<glyph unicode="&#x126;" horiz-adv-x="801" d="M729 611h81v-129h-81v-482h-225v245h-207v-245h-224v482h-82v129h82v54h224v-54h207v54h225v-54zM297 429h207v53h-207v-53z" />
<glyph unicode="&#x127;" horiz-adv-x="666" d="M408 529q96 0 154.5 -58t58.5 -175v-296h-214v259q0 90 -64 90q-36 0 -58.5 -25.5t-22.5 -79.5v-244h-214v556h-48v104h48v45h214v-45h145v-104h-145v-78q60 51 146 51z" />
<glyph unicode="&#x128;" horiz-adv-x="332" d="M243 710q-30 0 -58 14t-48.5 28t-33.5 14q-19 0 -30.5 -12.5t-12.5 -34.5h-102q2 76 36.5 120.5t94.5 44.5q31 0 58.5 -14.5t48.5 -28.5t34 -14q18 0 29.5 12t13.5 32h101q-1 -48 -16.5 -84.5t-45 -56.5t-69.5 -20zM278 0h-224v665h224v-665z" />
<glyph unicode="&#x129;" horiz-adv-x="309" d="M224 567q-22 0 -43 9.5t-34 21t-25.5 21t-19.5 9.5q-27 0 -27 -51h-100q0 164 111 164q22 0 43 -9.5t33.5 -21t25.5 -21t20 -9.5q27 0 27 49h99q0 -162 -110 -162zM262 0h-214v520h214v-520z" />
<glyph unicode="&#x12a;" horiz-adv-x="332" d="M328 738h-323v112h323v-112zM278 0h-224v665h224v-665z" />
<glyph unicode="&#x12b;" horiz-adv-x="309" d="M316 597h-323v112h323v-112zM262 0h-214v520h214v-520z" />
<glyph unicode="&#x12c;" horiz-adv-x="332" d="M166 710q-86 0 -140.5 43.5t-57.5 117.5h128q1 -13 6.5 -24t15 -18.5t22 -11.5t26.5 -4q30 0 49 16t22 42h128q-4 -74 -58.5 -117.5t-140.5 -43.5zM278 0h-224v665h224v-665z" />
<glyph unicode="&#x12d;" horiz-adv-x="309" d="M155 567q-38 0 -70 11.5t-55 32t-36 51t-14 67.5h124q0 -27 13 -43.5t37.5 -16.5t38 16.5t13.5 43.5h124q-2 -74 -50.5 -118t-124.5 -44zM262 0h-214v520h214v-520z" />
<glyph unicode="&#x12e;" horiz-adv-x="332" d="M277 -121l25 -85q-33 -22 -81 -22q-62 0 -99 32.5t-37 86.5q0 64 51 109h-82v665h224v-665q-37 -24 -52 -44.5t-15 -45.5q0 -18 10.5 -29.5t25.5 -11.5q17 0 30 10z" />
<glyph unicode="&#x12f;" horiz-adv-x="309" d="M155 561q-58 0 -93.5 31.5t-35.5 78.5q0 31 15.5 55.5t45 39t68.5 14.5q58 0 93.5 -29.5t35.5 -76.5q0 -32 -15.5 -57.5t-45 -40.5t-68.5 -15zM261 -121l25 -85q-33 -22 -81 -22q-62 0 -99.5 32.5t-37.5 86.5q0 64 52 109h-72v520h214v-520q-37 -24 -52 -44.5t-15 -45.5 q0 -18 10.5 -29.5t25.5 -11.5q17 0 30 10z" />
<glyph unicode="&#x130;" horiz-adv-x="332" d="M166.5 710q-47.5 0 -78 30t-30.5 78t30.5 78t78 30t78 -30t30.5 -78t-30.5 -78t-78 -30zM278 0h-224v665h224v-665z" />
<glyph unicode="&#x131;" horiz-adv-x="309" d="M262 0h-214v520h214v-520z" />
<glyph unicode="&#x132;" horiz-adv-x="692" d="M312 -15q-169 0 -283 81l82 158q96 -61 190 -61q62 0 90.5 32t28.5 101v369h224v-356q0 -154 -90 -239t-242 -85zM273 319h-225v346h225v-346z" />
<glyph unicode="&#x133;" horiz-adv-x="627" d="M155 561q-58 0 -93.5 31.5t-35.5 78.5q0 31 15.5 55.5t45 39t68.5 14.5q58 0 93.5 -29.5t35.5 -76.5q0 -32 -15.5 -57.5t-45 -40.5t-68.5 -15zM472 561q-38 0 -68 14.5t-45.5 39.5t-15.5 56q0 47 35.5 78t93.5 31q29 0 53.5 -8t41 -21.5t25.5 -33.5t9 -43q0 -49 -35 -81 t-94 -32zM262 0h-214v520h214v-520zM352 -194q-82 0 -132 26l52 149q23 -12 48 -12q20 0 32.5 14.5t12.5 44.5v492h215v-493q0 -102 -60.5 -161.5t-167.5 -59.5z" />
<glyph unicode="&#x134;" horiz-adv-x="545" d="M353 719l-79 73l-80 -73h-133l121 152h183l121 -152h-133zM49 496v169h448v-409q0 -135 -70 -203t-205 -68q-161 0 -245 99l121 142q53 -65 105 -65q24 0 40 9t24.5 27.5t8.5 45.5v253h-227z" />
<glyph unicode="&#x135;" horiz-adv-x="317" d="M218 577l-56 63l-56 -63h-133l100 152h179l100 -152h-134zM55 28v492h215v-493q0 -102 -60.5 -161.5t-166.5 -59.5q-82 0 -132 26l51 149q23 -12 48 -12q21 0 33 14.5t12 44.5z" />
<glyph unicode="&#x136;" horiz-adv-x="726" d="M737 665l-266 -293l279 -372h-259l-166 220l-50 -56v-164h-221v665h221v-241l218 241h244zM364.5 -48q39.5 0 62.5 -19t23 -52q0 -35 -23 -76l-37 -61h-95l25 75q-41 15 -41 62q0 33 23 52t62.5 19z" />
<glyph unicode="&#x137;" horiz-adv-x="677" d="M665 520l-215 -226l232 -294h-259l-127 160l-34 -37v-123h-214v705h214v-336l149 151h254zM306.5 -48q39.5 0 62.5 -19t23 -52q0 -35 -23 -76l-37 -61h-94l24 75q-41 15 -41 62q0 33 23 52t62.5 19z" />
<glyph unicode="&#x138;" horiz-adv-x="655" d="M682 0h-259l-127 160l-34 -37v-123h-214v520h214v-151l149 151h254l-215 -226z" />
<glyph unicode="&#x139;" horiz-adv-x="586" d="M209 719h-143l126 152h204zM579 0h-525v665h224v-491h301v-174z" />
<glyph unicode="&#x13a;" horiz-adv-x="309" d="M198 762h-143l125 152h205zM262 0h-214v705h214v-705z" />
<glyph unicode="&#x13b;" horiz-adv-x="586" d="M278 665v-491h301v-174h-525v665h224zM327.5 -48q39.5 0 62.5 -19t23 -52q0 -35 -23 -76l-38 -61h-94l25 75q-41 15 -41 62q0 33 23 52t62.5 19z" />
<glyph unicode="&#x13c;" horiz-adv-x="309" d="M48 0v705h214v-705h-214zM154.5 -48q39.5 0 62.5 -19t23 -52q0 -35 -23 -76l-37 -61h-94l24 75q-41 15 -41 62q0 33 23 52t62.5 19z" />
<glyph unicode="&#x13d;" horiz-adv-x="586" d="M523 513h-121v199h150zM579 0h-525v665h224v-491h301v-174z" />
<glyph unicode="&#x13e;" horiz-adv-x="309" d="M450 553h-121v199h150zM262 0h-214v705h214v-705z" />
<glyph unicode="&#x13f;" horiz-adv-x="586" d="M579 0h-525v665h224v-491h301v-174zM460 311q-48 0 -78 30t-30 78t30 78t78 30t78 -30t30 -78t-30 -78t-78 -30z" />
<glyph unicode="&#x140;" horiz-adv-x="480" d="M262 0h-214v705h214v-705zM395 254q-28 0 -50 12t-34.5 34.5t-12.5 51.5q0 42 27 69t70 27q44 0 71 -27t27 -69q0 -44 -27 -71t-71 -27z" />
<glyph unicode="&#x141;" horiz-adv-x="605" d="M297 390v-216h301v-174h-525v224l-41 -30l-66 95l107 80v296h224v-130l92 67l66 -95z" />
<glyph unicode="&#x142;" horiz-adv-x="347" d="M327 536l66 -95l-112 -83v-358h-215v200l-45 -35l-67 95l112 83v362h215v-203z" />
<glyph unicode="&#x143;" horiz-adv-x="763" d="M408 871h204l-187 -152h-143zM491 363v302h219v-665h-185l-252 302v-302h-219v665h184z" />
<glyph unicode="&#x144;" horiz-adv-x="666" d="M363 729h204l-187 -152h-142zM408 529q96 0 154.5 -58t58.5 -175v-296h-214v259q0 90 -64 90q-36 0 -58.5 -25.5t-22.5 -79.5v-244h-214v520h204v-52q61 61 156 61z" />
<glyph unicode="&#x145;" horiz-adv-x="763" d="M491 363v302h219v-665h-185l-252 302v-302h-219v665h184zM381.5 -48q39.5 0 62.5 -19t23 -52q0 -35 -23 -76l-37 -61h-94l24 75q-41 15 -41 62q0 33 23 52t62.5 19z" />
<glyph unicode="&#x146;" horiz-adv-x="666" d="M408 529q96 0 154.5 -58t58.5 -175v-296h-214v259q0 90 -64 90q-36 0 -58.5 -25.5t-22.5 -79.5v-244h-214v520h204v-52q61 61 156 61zM337.5 -48q39.5 0 62.5 -19t23 -52q0 -35 -24 -76l-37 -61h-94l25 75q-41 15 -41 62q0 33 23 52t62.5 19z" />
<glyph unicode="&#x147;" horiz-adv-x="763" d="M595 871l-122 -152h-182l-122 152h133l80 -73l80 73h133zM491 363v302h219v-665h-185l-252 302v-302h-219v665h184z" />
<glyph unicode="&#x148;" horiz-adv-x="666" d="M550 729l-122 -152h-182l-122 152h133l80 -73l80 73h133zM408 529q96 0 154.5 -58t58.5 -175v-296h-214v259q0 90 -64 90q-36 0 -58.5 -25.5t-22.5 -79.5v-244h-214v520h204v-52q61 61 156 61z" />
<glyph unicode="&#x149;" horiz-adv-x="839" d="M97 714q55 0 90 -33t35 -88q0 -25 -6.5 -50t-30.5 -75l-66 -141h-133l47 160q-61 30 -61 106q0 55 35 88t90 33zM581 529q96 0 154.5 -58t58.5 -175v-296h-214v259q0 90 -64 90q-36 0 -58.5 -25.5t-22.5 -79.5v-244h-215v520h205v-52q60 61 156 61z" />
<glyph unicode="&#x14a;" horiz-adv-x="763" d="M491 363v302h219v-568q0 -149 -68 -220t-204 -71q-115 0 -187 49l102 150q35 -24 66 -24q62 0 70 62l-216 259v-302h-219v665h184z" />
<glyph unicode="&#x14b;" horiz-adv-x="666" d="M408 529q96 0 154.5 -58t58.5 -175v-269q0 -102 -60 -161.5t-167 -59.5q-82 0 -132 26l52 149q23 -12 48 -12q20 0 32.5 14.5t12.5 44.5v231q0 90 -64 90q-36 0 -58.5 -25.5t-22.5 -79.5v-244h-214v520h204v-52q61 61 156 61z" />
<glyph unicode="&#x14c;" horiz-adv-x="805" d="M602 739h-399v112h399v-112zM402.5 -15q-162.5 0 -268.5 98.5t-106 249t106 249t268.5 98.5t269 -98.5t106.5 -249t-106.5 -249t-269 -98.5zM403 166q41 0 75 20t54 58t20 88q0 76 -42.5 121.5t-106.5 45.5t-106.5 -45.5t-42.5 -121t42.5 -121t106.5 -45.5z" />
<glyph unicode="&#x14d;" horiz-adv-x="644" d="M519 597h-399v112h399v-112zM322 -10q-132 0 -217 76t-85 194t85 193.5t217 75.5q133 0 217.5 -75.5t84.5 -193.5t-84.5 -194t-217.5 -76zM322 158q24 0 43 11t30.5 35t11.5 56q0 49 -24 75.5t-61 26.5t-60.5 -26.5t-23.5 -75.5t23.5 -75.5t60.5 -26.5z" />
<glyph unicode="&#x14e;" horiz-adv-x="805" d="M403 710q-86 0 -140.5 43.5t-58.5 117.5h128q3 -26 22 -42t48.5 -16t49 16t21.5 42h128q-3 -74 -57.5 -117.5t-140.5 -43.5zM402.5 -15q-162.5 0 -268.5 98.5t-106 249t106 249t268.5 98.5t269 -98.5t106.5 -249t-106.5 -249t-269 -98.5zM403 166q41 0 75 20t54 58t20 88 q0 76 -42.5 121.5t-106.5 45.5t-106.5 -45.5t-42.5 -121t42.5 -121t106.5 -45.5z" />
<glyph unicode="&#x14f;" horiz-adv-x="644" d="M319 567q-86 0 -140.5 43.5t-57.5 118.5h128q2 -27 21.5 -42.5t49 -15.5t48.5 15.5t22 42.5h128q-4 -75 -58.5 -118.5t-140.5 -43.5zM322 -10q-132 0 -217 76t-85 194t85 193.5t217 75.5q133 0 217.5 -75.5t84.5 -193.5t-84.5 -194t-217.5 -76zM322 158q24 0 43 11 t30.5 35t11.5 56q0 49 -24 75.5t-61 26.5t-60.5 -26.5t-23.5 -75.5t23.5 -75.5t60.5 -26.5z" />
<glyph unicode="&#x150;" horiz-adv-x="805" d="M363 719h-143l50 152h185zM585 719h-142l49 152h185zM402.5 -15q-162.5 0 -268.5 98.5t-106 249t106 249t268.5 98.5t269 -98.5t106.5 -249t-106.5 -249t-269 -98.5zM403 166q41 0 75 20t54 58t20 88q0 76 -42.5 121.5t-106.5 45.5t-106.5 -45.5t-42.5 -121t42.5 -121 t106.5 -45.5z" />
<glyph unicode="&#x151;" horiz-adv-x="644" d="M279 577h-142l49 152h185zM502 577h-143l49 152h186zM322 -10q-132 0 -217 76t-85 194t85 193.5t217 75.5q133 0 217.5 -75.5t84.5 -193.5t-84.5 -194t-217.5 -76zM322 158q24 0 43 11t30.5 35t11.5 56q0 49 -24 75.5t-61 26.5t-60.5 -26.5t-23.5 -75.5t23.5 -75.5 t60.5 -26.5z" />
<glyph unicode="&#x152;" horiz-adv-x="1091" d="M727 256v-87h332v-169h-656q-169 0 -272 90t-103 242.5t103 242.5t272 90h644v-169h-320v-78h281v-162h-281zM412 175h94v315h-94q-47 0 -82.5 -18t-55.5 -54t-20 -85.5t20 -85.5t55.5 -54t82.5 -18z" />
<glyph unicode="&#x153;" horiz-adv-x="1008" d="M989 263q0 -23 -4 -53h-364q22 -61 107 -61q54 0 106 38l115 -113q-79 -84 -227 -84q-128 0 -209 69q-76 -69 -195 -69q-129 0 -213.5 76t-84.5 194t84.5 193.5t213.5 75.5q119 0 193 -66q77 66 191 66q77 0 141.5 -29.5t105 -91.5t40.5 -145zM702 383q-34 0 -56 -18.5 t-28 -50.5h167q-3 16 -10 29t-17.5 21.5t-24.5 13.5t-31 5zM322 158q24 0 43 11t30.5 35t11.5 56q0 49 -24 75.5t-61 26.5t-60.5 -26.5t-23.5 -75.5t23.5 -75.5t60.5 -26.5z" />
<glyph unicode="&#x154;" horiz-adv-x="707" d="M386 871h204l-187 -152h-143zM692 0h-240l-113 167h-61v-167h-224v665h320q139 0 221 -67.5t82 -183.5q0 -71 -32.5 -124.5t-92.5 -84.5zM451 414q0 37 -23 57.5t-68 20.5h-82v-156h82q45 0 68 20.5t23 57.5z" />
<glyph unicode="&#x155;" horiz-adv-x="433" d="M258 729h205l-187 -152h-143zM252 520v-56q57 65 168 65v-190q-25 4 -48 4q-110 0 -110 -112v-231h-214v520h204z" />
<glyph unicode="&#x156;" horiz-adv-x="707" d="M552 205l140 -205h-240l-113 167h-61v-167h-224v665h320q139 0 221 -67.5t82 -183.5q0 -71 -32.5 -124.5t-92.5 -84.5zM451 414q0 37 -23 57.5t-68 20.5h-82v-156h82q45 0 68 20.5t23 57.5zM360 -48q40 0 63 -19t23 -52q0 -35 -24 -76l-37 -61h-94l24 75q-40 15 -40 62 q0 33 22.5 52t62.5 19z" />
<glyph unicode="&#x157;" horiz-adv-x="433" d="M252 520v-56q57 65 168 65v-190q-25 4 -48 4q-110 0 -110 -112v-231h-214v520h204zM154.5 -48q39.5 0 62.5 -19t23 -52q0 -35 -23 -76l-37 -61h-94l24 75q-41 15 -41 62q0 33 23 52t62.5 19z" />
<glyph unicode="&#x158;" horiz-adv-x="707" d="M573 871l-122 -152h-182l-122 152h133l80 -73l80 73h133zM692 0h-240l-113 167h-61v-167h-224v665h320q139 0 221 -67.5t82 -183.5q0 -71 -32.5 -124.5t-92.5 -84.5zM451 414q0 37 -23 57.5t-68 20.5h-82v-156h82q45 0 68 20.5t23 57.5z" />
<glyph unicode="&#x159;" horiz-adv-x="433" d="M446 729l-122 -152h-182l-122 152h133l80 -73l80 73h133zM252 520v-56q57 65 168 65v-190q-25 4 -48 4q-110 0 -110 -112v-231h-214v520h204z" />
<glyph unicode="&#x15a;" horiz-adv-x="624" d="M355 719h-142l125 152h204zM302 -15q-82 0 -160.5 18.5t-129.5 49.5l73 164q47 -28 106 -44.5t113 -16.5q86 0 86 36q0 15 -15.5 25.5t-41.5 16t-59 13.5t-67.5 15.5t-67.5 23t-59 36t-41.5 55.5t-15.5 79q0 97 80.5 160.5t228.5 63.5t251 -58l-67 -162q-98 49 -185 49 t-87 -42q0 -15 20.5 -25.5t53 -17.5t71.5 -14.5t78 -21.5t71.5 -34.5t53 -57.5t20.5 -87q0 -96 -81 -160t-229 -64z" />
<glyph unicode="&#x15b;" horiz-adv-x="536" d="M305 577h-143l126 152h204zM251 -10q-67 0 -131.5 14.5t-104.5 37.5l59 141q24 -14 55 -24.5t63.5 -16t63.5 -5.5q66 0 66 25q0 10 -16.5 15.5t-43 8.5t-58.5 7t-63.5 13.5t-58 25.5t-43 46.5t-16.5 73.5q0 76 70 126.5t196 50.5q129 0 212 -43l-59 -141q-69 38 -150 38 q-71 0 -71 -25q0 -12 22.5 -18.5t55.5 -8.5t71.5 -11t71.5 -23.5t55.5 -48t22.5 -82.5q0 -75 -70 -125.5t-199 -50.5z" />
<glyph unicode="&#x15c;" horiz-adv-x="624" d="M392 719l-79 73l-80 -73h-133l121 152h183l121 -152h-133zM244 467q0 -15 20.5 -25.5t53 -17.5t71.5 -14.5t78 -21.5t71.5 -34.5t53 -57.5t20.5 -87q0 -96 -81 -160t-229 -64q-82 0 -160.5 18.5t-129.5 49.5l73 164q47 -28 106 -44.5t113 -16.5q86 0 86 36 q0 15 -15.5 25.5t-41.5 16t-59 13.5t-67.5 15.5t-67.5 23t-59 36t-41.5 55.5t-15.5 79q0 97 80.5 160.5t228.5 63.5t251 -58l-67 -162q-98 49 -185 49t-87 -42z" />
<glyph unicode="&#x15d;" horiz-adv-x="536" d="M342 577l-80 73l-80 -73h-133l122 152h182l122 -152h-133zM221 358q0 -12 22.5 -18.5t55.5 -8.5t71.5 -11t71.5 -23.5t55.5 -48t22.5 -82.5q0 -75 -70 -125.5t-199 -50.5q-67 0 -131.5 14.5t-104.5 37.5l59 141q24 -14 55 -24.5t63.5 -16t63.5 -5.5q66 0 66 25 q0 10 -16.5 15.5t-43 8.5t-58.5 7t-63.5 13.5t-58 25.5t-43 46.5t-16.5 73.5q0 76 70 126.5t196 50.5q129 0 212 -43l-59 -141q-69 38 -150 38q-71 0 -71 -25z" />
<glyph unicode="&#x15e;" horiz-adv-x="624" d="M612 209q0 -85 -64.5 -146.5t-184.5 -74.5l-9 -37q42 -6 61.5 -27t19.5 -49q0 -48 -44 -75.5t-117 -27.5q-57 0 -94 20l27 79q29 -12 57 -12q46 0 46 23q0 19 -39 19h-39l20 86q-151 10 -240 66l73 164q47 -28 106 -44.5t113 -16.5q86 0 86 36q0 15 -15.5 25.5t-41.5 16 t-59 13.5t-67.5 15.5t-67.5 23t-59 36t-41.5 55.5t-15.5 79q0 97 80.5 160.5t228.5 63.5t251 -58l-67 -162q-98 49 -185 49t-87 -42q0 -15 20.5 -25.5t53 -17.5t71.5 -14.5t78 -21.5t71.5 -34.5t53 -57.5t20.5 -87z" />
<glyph unicode="&#x15f;" horiz-adv-x="536" d="M520 166q0 -65 -53 -112t-153 -60l-10 -43q42 -6 61.5 -27t19.5 -49q0 -48 -44 -75.5t-118 -27.5q-56 0 -93 20l27 79q28 -12 57 -12q45 0 45 23q0 19 -39 19h-39l22 91q-116 9 -188 50l59 141q24 -14 55 -24.5t63.5 -16t63.5 -5.5q66 0 66 25q0 10 -16.5 15.5t-43 8.5 t-58.5 7t-63.5 13.5t-58 25.5t-43 46.5t-16.5 73.5q0 76 70 126.5t196 50.5q129 0 212 -43l-59 -141q-69 38 -150 38q-71 0 -71 -25q0 -12 22.5 -18.5t55.5 -8.5t71.5 -11t71.5 -23.5t55.5 -48t22.5 -82.5z" />
<glyph unicode="&#x160;" horiz-adv-x="624" d="M525 871l-121 -152h-183l-121 152h133l80 -73l79 73h133zM244 467q0 -15 20.5 -25.5t53 -17.5t71.5 -14.5t78 -21.5t71.5 -34.5t53 -57.5t20.5 -87q0 -96 -81 -160t-229 -64q-82 0 -160.5 18.5t-129.5 49.5l73 164q47 -28 106 -44.5t113 -16.5q86 0 86 36 q0 15 -15.5 25.5t-41.5 16t-59 13.5t-67.5 15.5t-67.5 23t-59 36t-41.5 55.5t-15.5 79q0 97 80.5 160.5t228.5 63.5t251 -58l-67 -162q-98 49 -185 49t-87 -42z" />
<glyph unicode="&#x161;" horiz-adv-x="536" d="M475 729l-122 -152h-182l-122 152h133l80 -73l80 73h133zM221 358q0 -12 22.5 -18.5t55.5 -8.5t71.5 -11t71.5 -23.5t55.5 -48t22.5 -82.5q0 -75 -70 -125.5t-199 -50.5q-67 0 -131.5 14.5t-104.5 37.5l59 141q24 -14 55 -24.5t63.5 -16t63.5 -5.5q66 0 66 25 q0 10 -16.5 15.5t-43 8.5t-58.5 7t-63.5 13.5t-58 25.5t-43 46.5t-16.5 73.5q0 76 70 126.5t196 50.5q129 0 212 -43l-59 -141q-69 38 -150 38q-71 0 -71 -25z" />
<glyph unicode="&#x162;" horiz-adv-x="621" d="M423 491v-491h-59l-12 -49q42 -6 61.5 -27t19.5 -49q0 -32 -20 -55t-56.5 -35.5t-84.5 -12.5q-57 0 -93 20l26 79q29 -12 57 -12q46 0 46 23q0 19 -39 19h-39l24 99h-55v491h-195v174h614v-174h-195z" />
<glyph unicode="&#x163;" horiz-adv-x="437" d="M312 -10l-10 -39q42 -6 61.5 -27t19.5 -49q0 -48 -44 -75.5t-118 -27.5q-56 0 -93 20l27 79q28 -12 57 -12q45 0 45 23q0 19 -39 19h-38l23 102q-132 40 -132 198v133h-71v157h71v145h215v-145h106v-157h-106v-131q0 -23 12.5 -36.5t32.5 -13.5q27 0 48 14l51 -149 q-22 -12 -52.5 -19t-65.5 -9z" />
<glyph unicode="&#x164;" horiz-adv-x="621" d="M523 871l-121 -152h-183l-121 152h133l80 -73l79 73h133zM4 491v174h614v-174h-195v-491h-224v491h-195z" />
<glyph unicode="&#x165;" horiz-adv-x="437" d="M332 533v199h140l-19 -199h-121zM331 153q27 0 48 14l51 -149q-48 -28 -132 -28q-109 0 -168 53t-59 158v133h-71v157h71v145h215v-145h106v-157h-106v-131q0 -23 12.5 -36.5t32.5 -13.5z" />
<glyph unicode="&#x166;" horiz-adv-x="621" d="M618 665v-174h-195v-127h111v-129h-111v-235h-224v235h-112v129h112v127h-195v174h614z" />
<glyph unicode="&#x167;" horiz-adv-x="446" d="M384 167l51 -149q-48 -28 -132 -28q-108 0 -167 51.5t-60 154.5h-59v104h59v34h-71v157h71v145h215v-145h106v-157h-106v-34h94v-104h-94q2 -21 14 -32t30 -11q27 0 49 14z" />
<glyph unicode="&#x168;" horiz-adv-x="744" d="M451 710q-30 0 -58 14t-48.5 28t-33.5 14q-19 0 -30.5 -12.5t-12.5 -34.5h-102q1 50 17 87t45.5 57.5t68.5 20.5q31 0 58.5 -14.5t48.5 -28.5t34 -14q18 0 29.5 12t13.5 32h101q-1 -73 -36 -117t-95 -44zM372.5 -15q-153.5 0 -239 82.5t-85.5 231.5v366h225v-359 q0 -140 101.5 -140t101.5 140v359h220v-366q0 -149 -85 -231.5t-238.5 -82.5z" />
<glyph unicode="&#x169;" horiz-adv-x="663" d="M267 623q-18 0 -29.5 -12.5t-13.5 -33.5h-101q1 75 36 119.5t95 44.5q30 0 57.5 -14t48.5 -28t34 -14q12 0 21.5 5.5t15 15t6.5 23.5h102q-2 -74 -37 -118t-94 -44q-31 0 -58.5 14t-48.5 28t-34 14zM401 276v244h215v-520h-205v49q-57 -59 -147 -59q-99 0 -158.5 60.5 t-59.5 182.5v287h214v-250q0 -53 17.5 -76t50.5 -23q31 0 52 25.5t21 79.5z" />
<glyph unicode="&#x16a;" horiz-adv-x="744" d="M574 739h-399v112h399v-112zM372.5 -15q-153.5 0 -239 82.5t-85.5 231.5v366h225v-359q0 -140 101.5 -140t101.5 140v359h220v-366q0 -149 -85 -231.5t-238.5 -82.5z" />
<glyph unicode="&#x16b;" horiz-adv-x="663" d="M131 709h399v-112h-399v112zM401 276v244h215v-520h-205v49q-57 -59 -147 -59q-99 0 -158.5 60.5t-59.5 182.5v287h214v-250q0 -53 17.5 -76t50.5 -23q31 0 52 25.5t21 79.5z" />
<glyph unicode="&#x16c;" horiz-adv-x="744" d="M374.5 710q-86.5 0 -141 43.5t-57.5 117.5h128q2 -26 21.5 -42t49 -16t48.5 16t22 42h128q-4 -74 -58 -117.5t-140.5 -43.5zM372.5 -15q-153.5 0 -239 82.5t-85.5 231.5v366h225v-359q0 -140 101.5 -140t101.5 140v359h220v-366q0 -149 -85 -231.5t-238.5 -82.5z" />
<glyph unicode="&#x16d;" horiz-adv-x="663" d="M330.5 567q-86.5 0 -140.5 43.5t-58 118.5h128q2 -27 21.5 -42.5t49 -15.5t49 15.5t21.5 42.5h128q-3 -75 -57.5 -118.5t-141 -43.5zM401 276v244h215v-520h-205v49q-57 -59 -147 -59q-99 0 -158.5 60.5t-59.5 182.5v287h214v-250q0 -53 17.5 -76t50.5 -23q31 0 52 25.5 t21 79.5z" />
<glyph unicode="&#x16e;" horiz-adv-x="744" d="M374 706q-56 0 -94.5 37t-38.5 90.5t38.5 90t94.5 36.5t94.5 -36.5t38.5 -90t-38.5 -90.5t-94.5 -37zM374.5 782q21.5 0 36.5 14.5t15 37t-15 36.5t-36.5 14t-36.5 -14t-15 -36.5t15 -37t36.5 -14.5zM372.5 -15q-153.5 0 -239 82.5t-85.5 231.5v366h225v-359 q0 -140 101.5 -140t101.5 140v359h220v-366q0 -149 -85 -231.5t-238.5 -82.5z" />
<glyph unicode="&#x16f;" horiz-adv-x="663" d="M330.5 560q-56.5 0 -94.5 37t-38 90.5t38 90.5t94.5 37t95 -37t38.5 -90.5t-38.5 -90.5t-95 -37zM331 739q-9 0 -16.5 -2.5t-14 -7t-11.5 -10.5t-7.5 -14t-2.5 -17q0 -15 7 -27t18.5 -18.5t26.5 -6.5q21 0 36 14.5t15 37t-15 37t-36 14.5zM401 276v244h215v-520h-205v49 q-57 -59 -147 -59q-99 0 -158.5 60.5t-59.5 182.5v287h214v-250q0 -53 17.5 -76t50.5 -23q31 0 52 25.5t21 79.5z" />
<glyph unicode="&#x170;" horiz-adv-x="744" d="M334 719h-142l49 152h186zM557 719h-143l50 152h185zM372.5 -15q-153.5 0 -239 82.5t-85.5 231.5v366h225v-359q0 -140 101.5 -140t101.5 140v359h220v-366q0 -149 -85 -231.5t-238.5 -82.5z" />
<glyph unicode="&#x171;" horiz-adv-x="663" d="M198 729h185l-92 -152h-143zM605 729l-92 -152h-143l50 152h185zM401 276v244h215v-520h-205v49q-57 -59 -147 -59q-99 0 -158.5 60.5t-59.5 182.5v287h214v-250q0 -53 17.5 -76t50.5 -23q31 0 52 25.5t21 79.5z" />
<glyph unicode="&#x172;" horiz-adv-x="744" d="M476 306v359h220v-366q0 -113 -48.5 -186t-134.5 -106q-73 -29 -102 -52.5t-29 -46.5q0 -18 12.5 -28.5t37.5 -10.5q28 0 56 13l26 -88q-40 -22 -107 -22q-47 0 -81 14.5t-52 40.5t-18 62q0 57 50 101q-123 17 -190.5 97t-67.5 212v366h225v-359q0 -140 101.5 -140 t101.5 140z" />
<glyph unicode="&#x173;" horiz-adv-x="663" d="M614 -118l25 -88q-40 -22 -107 -22q-47 0 -81 14.5t-51.5 40.5t-17.5 62q0 64 63 111h-34v49q-57 -59 -147 -59q-99 0 -158.5 60.5t-59.5 182.5v287h214v-250q0 -53 17.5 -76t50.5 -23q31 0 52 25.5t21 79.5v244h215v-520q-60 -26 -84.5 -47.5t-24.5 -44.5 q0 -18 12.5 -28.5t38.5 -10.5q27 0 56 13z" />
<glyph unicode="&#x174;" horiz-adv-x="1145" d="M653 719l-80 73l-80 -73h-133l122 152h182l122 -152h-133zM801 282l122 383h213l-213 -665h-240l-107 355l-113 -355h-241l-212 665h230l116 -378l123 378h206z" />
<glyph unicode="&#x175;" horiz-adv-x="928" d="M544 577l-79 73l-80 -73h-133l121 152h183l121 -152h-133zM653 242l93 278h188l-181 -520h-209l-78 240l-82 -240h-209l-181 520h204l89 -275l93 275h182z" />
<glyph unicode="&#x176;" horiz-adv-x="674" d="M417 719l-80 73l-80 -73h-133l122 152h182l122 -152h-133zM484 665h216l-251 -424v-241h-224v244l-251 421h237l136 -230z" />
<glyph unicode="&#x177;" horiz-adv-x="611" d="M377 577l-80 73l-79 -73h-133l121 152h183l121 -152h-133zM314 241l109 279h203l-214 -530q-40 -102 -101 -143t-149 -41q-44 0 -88 13t-70 34l71 147q36 -28 76 -28q35 0 53 21l-218 527h220z" />
<glyph unicode="&#x178;" horiz-adv-x="674" d="M232 712q-37 0 -61.5 23t-24.5 60t24.5 61t61.5 24t61 -24t24 -61q0 -25 -11 -44t-30.5 -29t-43.5 -10zM443 712q-37 0 -61.5 23t-24.5 60q0 25 11.5 44.5t31 30t43.5 10.5q36 0 60.5 -24t24.5 -61q0 -18 -6.5 -34t-18 -26.5t-27 -16.5t-33.5 -6zM484 665h216l-251 -424 v-241h-224v244l-251 421h237l136 -230z" />
<glyph unicode="&#x179;" horiz-adv-x="652" d="M362 871h204l-187 -152h-142zM626 527l-304 -353h319v-174h-611v138l304 353h-294v174h586v-138z" />
<glyph unicode="&#x17a;" horiz-adv-x="541" d="M301 729h204l-187 -152h-142zM514 396l-215 -239h225v-157h-496v124l215 239h-207v157h478v-124z" />
<glyph unicode="&#x17b;" horiz-adv-x="652" d="M336.5 710q-47.5 0 -78 30t-30.5 78t30.5 78t78 30t78 -30t30.5 -78t-30.5 -78t-78 -30zM626 527l-304 -353h319v-174h-611v138l304 353h-294v174h586v-138z" />
<glyph unicode="&#x17c;" horiz-adv-x="541" d="M275.5 567q-47.5 0 -78 30.5t-30.5 78t30.5 78t78 30.5t78 -30.5t30.5 -78t-30.5 -78t-78 -30.5zM514 396l-215 -239h225v-157h-496v124l215 239h-207v157h478v-124z" />
<glyph unicode="&#x17d;" horiz-adv-x="652" d="M549 871l-121 -152h-183l-121 152h132l80 -73l80 73h133zM626 527l-304 -353h319v-174h-611v138l304 353h-294v174h586v-138z" />
<glyph unicode="&#x17e;" horiz-adv-x="541" d="M488 729l-121 -152h-183l-121 152h133l80 -73l79 73h133zM514 396l-215 -239h225v-157h-496v124l215 239h-207v157h478v-124z" />
<glyph unicode="&#x17f;" horiz-adv-x="347" d="M315 714q81 0 128 -25l-52 -149q-26 12 -48 12q-45 0 -45 -60v-492h-214v334h-72v157h72v3q0 102 61 161t170 59z" />
<glyph unicode="&#x18f;" horiz-adv-x="777" d="M370 680q167 0 273.5 -97t106.5 -251q0 -153 -102 -250t-259 -97q-162 0 -261.5 98t-99.5 259v36h492q-11 55 -52 88t-100 33q-42 0 -91.5 -21.5t-78.5 -56.5l-132 136q48 53 132 88t172 35zM388.5 149q55.5 0 89 27.5t42.5 78.5h-263q9 -51 42.5 -78.5t89 -27.5z" />
<glyph unicode="&#x192;" horiz-adv-x="494" d="M344 492v-1h113l-19 -157h-106l-38 -307q-13 -103 -80 -162t-174 -59q-82 0 -129 26l69 149q23 -12 48 -12q13 0 23.5 6t18.5 19.5t10 33.5l37 306h-71l19 157h72v3q12 102 80 161t178 59q80 0 125 -25l-70 -149q-26 12 -47 12q-24 0 -40 -15t-19 -45z" />
<glyph unicode="&#x1a0;" horiz-adv-x="805" d="M683 565q95 -92 95 -233q0 -150 -106.5 -248.5t-269 -98.5t-268.5 98.5t-106 248.5q0 152 107.5 250t276.5 98q38 0 94 -6t72 -6q29 0 46 14.5t17 40.5q0 32 -19 54l122 43q35 -44 35 -106q0 -108 -96 -149zM403 166q41 0 75 20t54 58t20 88q0 76 -42.5 121.5 t-106.5 45.5t-106.5 -45.5t-42.5 -121t42.5 -121t106.5 -45.5z" />
<glyph unicode="&#x1a1;" horiz-adv-x="644" d="M556 438q68 -73 68 -178q0 -118 -85 -194t-217 -76t-217 76t-85 194.5t85 193.5t220 75q26 0 63 -4.5t48 -4.5q23 0 35.5 15.5t12.5 42.5q0 29 -21 54l121 42q37 -46 37 -105q0 -84 -65 -131zM322 158q24 0 43 11t30.5 35t11.5 56q0 49 -24 75.5t-61 26.5t-60.5 -26.5 t-23.5 -75.5t23.5 -75.5t60.5 -26.5z" />
<glyph unicode="&#x1af;" horiz-adv-x="763" d="M808 714q0 -128 -112 -167v-248q0 -149 -85 -231.5t-238.5 -82.5t-239 82.5t-85.5 231.5v366h225v-359q0 -140 101.5 -140t101.5 140v359h142q20 0 36 16.5t16 41.5q0 32 -19 54l121 43q36 -44 36 -106z" />
<glyph unicode="&#x1b0;" horiz-adv-x="682" d="M708 569q0 -116 -92 -160v-409h-205v49q-57 -59 -147 -59q-99 0 -158.5 60.5t-59.5 182.5v287h214v-250q0 -53 17.5 -76t50.5 -23q31 0 52 25.5t21 79.5v244h117q10 0 19.5 4t16.5 11.5t11.5 18.5t4.5 24q0 32 -19 54l122 42q35 -44 35 -105z" />
<glyph unicode="&#x1b7;" horiz-adv-x="621" d="M562 527l-129 -124q81 -20 124 -70t43 -119q0 -45 -18.5 -85t-55.5 -73t-99 -52t-142 -19q-73 0 -145 15.5t-125 44.5l72 165q88 -48 190 -48q45 0 71 13t26 38q0 45 -88 45h-89v138l103 100h-253v169h515v-138z" />
<glyph unicode="&#x1c4;" horiz-adv-x="1369" d="M1270 871l-121 -152h-183l-121 152h133l79 -73l80 73h133zM54 665h328q169 0 272 -90t103 -242.5t-103 -242.5t-272 -90h-328v665zM1347 527l-304 -353h319v-174h-611v138l304 353h-294v174h586v-138zM278 175h94q72 0 115.5 41.5t43.5 116t-43.5 116t-115.5 41.5h-94 v-315z" />
<glyph unicode="&#x1c5;" horiz-adv-x="1326" d="M1273 729l-122 -152h-182l-122 152h133l80 -73l80 73h133zM54 665h328q169 0 272 -90t103 -242.5t-103 -242.5t-272 -90h-328v665zM1299 396l-215 -239h225v-157h-496v124l215 239h-207v157h478v-124zM278 175h94q72 0 115.5 41.5t43.5 116t-43.5 116t-115.5 41.5h-94 v-315z" />
<glyph unicode="&#x1c6;" horiz-adv-x="1195" d="M1144 729l-122 -152h-182l-122 152h133l80 -73l80 73h133zM408 484v221h214v-705h-204v43q-47 -53 -142 -53q-106 0 -178.5 74.5t-72.5 196t72.5 195t178.5 73.5q86 0 132 -45zM1169 396l-214 -239h225v-157h-496v124l215 239h-207v157h477v-124zM327 158q24 0 43 11 t30 35t11 56q0 49 -23.5 75.5t-60.5 26.5t-61 -26.5t-24 -75.5t24 -75.5t61 -26.5z" />
<glyph unicode="&#x1c7;" horiz-adv-x="1131" d="M636 496v169h447v-409q0 -135 -70 -203t-205 -68q-145 0 -229 82v-67h-525v665h224v-491h301v-72l105 124q53 -65 105 -65q36 0 54.5 21t18.5 61v253h-226z" />
<glyph unicode="&#x1c8;" horiz-adv-x="903" d="M749 561q-59 0 -94.5 31.5t-35.5 78.5q0 31 16 55.5t45.5 39t68.5 14.5q58 0 93.5 -29.5t35.5 -76.5q0 -32 -16 -57.5t-45.5 -40.5t-67.5 -15zM579 0h-525v665h224v-491h301v-174zM629 -194q-82 0 -132 26l51 149q23 -12 49 -12q20 0 32 14.5t12 44.5v492h215v-493 q0 -102 -60 -161.5t-167 -59.5z" />
<glyph unicode="&#x1c9;" horiz-adv-x="627" d="M472 561q-38 0 -68 14.5t-45.5 39.5t-15.5 56q0 47 35.5 78t93.5 31q29 0 53.5 -8t41 -21.5t25.5 -33.5t9 -43q0 -49 -35 -81t-94 -32zM262 0h-214v705h214v-705zM352 -194q-82 0 -132 26l52 149q23 -12 48 -12q20 0 32.5 14.5t12.5 44.5v492h215v-493 q0 -102 -60.5 -161.5t-167.5 -59.5z" />
<glyph unicode="&#x1ca;" horiz-adv-x="1309" d="M238 665l253 -302v302h219v-665h-185l-252 302v-302h-219v665h184zM813 496v169h448v-409q0 -135 -70 -203t-205 -68q-161 0 -245 99l121 142q52 -65 105 -65q23 0 39.5 9t24.5 27.5t8 45.5v253h-226z" />
<glyph unicode="&#x1cb;" horiz-adv-x="1081" d="M926 561q-58 0 -93.5 31.5t-35.5 78.5q0 31 15.5 55.5t45.5 39t68 14.5q59 0 94 -29.5t35 -76.5q0 -49 -35 -81t-94 -32zM710 665v-665h-185l-252 302v-302h-219v665h184l253 -302v302h219zM819 28v492h215v-493q0 -102 -60.5 -161.5t-166.5 -59.5q-83 0 -133 26l52 149 q23 -12 48 -12q21 0 33 14.5t12 44.5z" />
<glyph unicode="&#x1cc;" horiz-adv-x="984" d="M829 561q-58 0 -93.5 31.5t-35.5 78.5q0 31 15.5 55.5t45.5 39t68 14.5q59 0 94.5 -29.5t35.5 -76.5q0 -32 -16 -57.5t-45.5 -40.5t-68.5 -15zM621 296v-296h-214v259q0 90 -64 90q-36 0 -58.5 -25.5t-22.5 -79.5v-244h-214v520h204v-52q61 61 156 61q96 0 154.5 -58 t58.5 -175zM722 28v492h215v-493q0 -102 -60.5 -161.5t-166.5 -59.5q-83 0 -132 26l51 149q23 -12 48 -12q21 0 33 14.5t12 44.5z" />
<glyph unicode="&#x1cd;" horiz-adv-x="765" d="M596 871l-122 -152h-182l-122 152h133l80 -73l80 73h133zM784 0h-232l-45 116h-252l-45 -116h-228l291 665h220zM381 445l-65 -168h130z" />
<glyph unicode="&#x1ce;" horiz-adv-x="607" d="M518 729l-122 -152h-182l-122 152h133l80 -73l80 73h133zM280 529q281 0 281 -250v-279h-199v68q-37 -78 -147 -78q-92 0 -142.5 46t-50.5 116q0 157 237 157h87q-10 61 -98 61q-35 0 -71.5 -11t-61.5 -30l-68 141q29 19 69 32.5t82 20t82 6.5zM279 120q51 0 68 49v36 h-53q-66 0 -66 -43q0 -19 14 -30.5t37 -11.5z" />
<glyph unicode="&#x1d3;" horiz-adv-x="744" d="M587 871l-121 -152h-183l-121 152h132l80 -73l80 73h133zM476 306v359h220v-366q0 -149 -85 -231.5t-238.5 -82.5t-239 82.5t-85.5 231.5v366h225v-359q0 -140 101.5 -140t101.5 140z" />
<glyph unicode="&#x1d4;" horiz-adv-x="663" d="M543 729l-121 -152h-183l-121 152h133l80 -73l79 73h133zM401 276v244h215v-520h-205v49q-57 -59 -147 -59q-99 0 -158.5 60.5t-59.5 182.5v287h214v-250q0 -53 17.5 -76t50.5 -23q31 0 52 25.5t21 79.5z" />
<glyph unicode="&#x1e4;" horiz-adv-x="775" d="M689 322h73v-127h-73v-126q-59 -40 -137 -62t-153 -22q-162 0 -266.5 97.5t-104.5 249.5q0 153 105.5 250.5t270.5 97.5q199 0 304 -128l-144 -126q-63 73 -149 73q-74 0 -117.5 -45t-43.5 -122q0 -49 19.5 -86.5t55.5 -58.5t83 -21q43 0 82 16v13h-125v127h125v29h195 v-29z" />
<glyph unicode="&#x1e5;" horiz-adv-x="688" d="M627 66h61v-76h-75q-56 -184 -305 -184q-76 0 -143 17t-114 48l73 137q28 -23 74.5 -37.5t93.5 -14.5q67 0 98 34h-141v76h164v42l2 37q-52 -58 -155 -58q-108 0 -174 62t-66 159t65.5 158.5t173.5 61.5q112 0 165 -70v62h204v-416q0 -26 -1 -38zM327 231q27 0 47 9 t30.5 26.5t10.5 41.5q0 36 -23.5 56.5t-64.5 20.5q-42 0 -65.5 -20.5t-23.5 -56.5q0 -24 10.5 -41.5t30.5 -26.5t48 -9z" />
<glyph unicode="&#x1e6;" horiz-adv-x="730" d="M616 872l-122 -152h-182l-122 152h133l80 -73l80 73h133zM494 182v169h195v-282q-59 -40 -137 -62t-153 -22q-162 0 -266.5 97.5t-104.5 249.5q0 153 105.5 250.5t270.5 97.5q199 0 304 -128l-144 -126q-63 73 -149 73q-74 0 -117.5 -45t-43.5 -122q0 -49 19.5 -86.5 t55.5 -58.5t83 -21q43 0 82 16z" />
<glyph unicode="&#x1e7;" horiz-adv-x="675" d="M550 729l-122 -152h-182l-122 152h133l80 -73l80 73h133zM424 461v59h204v-416q0 -149 -82.5 -223.5t-233.5 -74.5q-163 0 -261 65l73 146q30 -23 76.5 -37t89.5 -14q64 0 93.5 27.5t29.5 80.5v10q-48 -56 -143 -56q-103 0 -176.5 70t-73.5 181.5t73.5 180.5t176.5 69 q106 0 154 -68zM326.5 196q38.5 0 63.5 23t25 60t-25 60t-63.5 23t-63.5 -23t-25 -60t25 -60t63.5 -23z" />
<glyph unicode="&#x1e8;" horiz-adv-x="726" d="M578 871l-122 -152h-182l-122 152h133l80 -73l80 73h133zM750 0h-259l-166 220l-50 -56v-164h-221v665h221v-241l218 241h244l-266 -293z" />
<glyph unicode="&#x1e9;" horiz-adv-x="677" d="M368 914l-122 -152h-182l-122 152h133l80 -73l80 73h133zM682 0h-259l-127 160l-34 -37v-123h-214v705h214v-336l149 151h254l-215 -226z" />
<glyph unicode="&#x1ea;" horiz-adv-x="805" d="M536 5q-125 -42 -125 -97q0 -18 13 -28.5t38 -10.5q27 0 56 13l25 -88q-40 -22 -107 -22q-47 0 -81 14.5t-51.5 40.5t-17.5 62q0 57 49 101q-137 20 -222 114.5t-85 227.5q0 151 106 249.5t268.5 98.5t269 -98.5t106.5 -249.5q0 -118 -67 -204.5t-175 -122.5zM254 332.5 q0 -75.5 42.5 -121t106.5 -45.5q41 0 75 20t54 58t20 88q0 76 -42.5 121.5t-106.5 45.5t-106.5 -45.5t-42.5 -121z" />
<glyph unicode="&#x1eb;" horiz-adv-x="644" d="M443 10q-66 -24 -90.5 -49t-24.5 -52q0 -11 5 -20t16.5 -14.5t28.5 -5.5q28 0 56 13l26 -88q-41 -22 -108 -22q-46 0 -80 14.5t-52 40.5t-18 62q0 64 59 106q-108 17 -174.5 89.5t-66.5 175.5q0 118 85 193.5t217 75.5q133 0 217.5 -75.5t84.5 -193.5q0 -86 -48.5 -152 t-132.5 -98zM322 362q-37 0 -60.5 -26.5t-23.5 -75.5t23.5 -75.5t60.5 -26.5q24 0 43 11t30.5 35t11.5 56q0 49 -24 75.5t-61 26.5z" />
<glyph unicode="&#x1ee;" horiz-adv-x="621" d="M514 871l-122 -152h-182l-122 152h133l80 -73l80 73h133zM562 527l-129 -124q81 -20 124 -70t43 -119q0 -45 -18.5 -85t-55.5 -73t-99 -52t-142 -19q-73 0 -145 15.5t-125 44.5l72 165q88 -48 190 -48q45 0 71 13t26 38q0 45 -88 45h-89v138l103 100h-253v169h515v-138z " />
<glyph unicode="&#x1ef;" horiz-adv-x="555" d="M471 729l-121 -152h-183l-121 152h133l79 -73l80 73h133zM506 382l-124 -140q78 -20 119 -72.5t41 -126.5q0 -47 -17.5 -88t-53 -75t-94.5 -54t-135 -20q-69 0 -138 17t-120 48l72 165q84 -53 179 -53q39 0 62.5 15.5t23.5 44.5q0 55 -79 55h-88v138l102 115h-242v169 h492v-138z" />
<glyph unicode="&#x1fa;" horiz-adv-x="765" d="M383 706q-56 0 -94.5 37t-38.5 90.5t38.5 90t94.5 36.5q20 0 45 -6l87 92l103 -77l-117 -76q15 -29 15 -60q0 -35 -17.5 -64t-48 -46t-67.5 -17zM383 884q-22 0 -36.5 -14t-14.5 -36.5t14.5 -37t36.5 -14.5t36.5 14.5t14.5 36.5q0 15 -7 27t-18.5 18t-25.5 6zM784 0h-232 l-45 116h-252l-45 -116h-228l291 665h220zM381 445l-65 -168h130z" />
<glyph unicode="&#x1fb;" horiz-adv-x="607" d="M305 560q-56 0 -94.5 37t-38.5 90.5t38.5 90.5t94.5 37q20 0 45 -7l87 93l104 -77l-118 -76q15 -29 15 -60q0 -54 -38.5 -91t-94.5 -37zM305 739q-11 0 -20.5 -3.5t-16 -10.5t-10.5 -16.5t-4 -20.5q0 -23 14.5 -37.5t36.5 -14.5t36.5 14.5t14.5 37t-14.5 37t-36.5 14.5z M280 529q281 0 281 -250v-279h-199v68q-37 -78 -147 -78q-92 0 -142.5 46t-50.5 116q0 157 237 157h87q-10 61 -98 61q-35 0 -71.5 -11t-61.5 -30l-68 141q29 19 69 32.5t82 20t82 6.5zM279 120q51 0 68 49v36h-53q-66 0 -66 -43q0 -19 14 -30.5t37 -11.5z" />
<glyph unicode="&#x1fc;" horiz-adv-x="1063" d="M614 871h204l-187 -152h-143zM698 256v-87h333v-169h-553v116h-210l-58 -116h-228l350 665h686v-169h-320v-78h281v-162h-281zM456 496l-108 -219h130v219h-22z" />
<glyph unicode="&#x1fd;" horiz-adv-x="952" d="M480 729h204l-187 -152h-143zM933 262q0 -24 -4 -54h-360q22 -59 103 -59q55 0 109 38l112 -113q-79 -84 -224 -84q-140 0 -222 78q-61 -78 -191 -78q-109 0 -171.5 46.5t-62.5 123.5q0 72 59.5 112t177.5 40h86q-12 58 -96 58q-80 0 -134 -41l-68 141q44 28 106.5 43.5 t125.5 15.5q122 0 188 -57q80 57 184 57q75 0 138 -30t103.5 -92t40.5 -145zM647 383q-32 0 -54.5 -19t-29.5 -52h165q-7 33 -28.5 52t-52.5 19zM281 120q31 0 48.5 18.5t17.5 51.5v18h-53q-66 0 -66 -44q0 -20 13.5 -32t39.5 -12z" />
<glyph unicode="&#x1fe;" horiz-adv-x="805" d="M428 871h205l-187 -152h-143zM748 732l-95 -134q59 -48 92 -116t33 -150q0 -150 -106.5 -248.5t-268.5 -98.5q-87 0 -163 31l-59 -82h-123l95 133q-60 48 -92.5 116t-32.5 149q0 151 106 249.5t269 98.5q86 0 162 -31l59 83h124zM254 332q0 -54 22 -92l177 250 q-24 9 -50 9q-64 0 -106.5 -45.5t-42.5 -121.5zM403 166q41 0 75 20t54 58t20 88q0 55 -22 93l-178 -250q25 -9 51 -9z" />
<glyph unicode="&#x1ff;" horiz-adv-x="644" d="M342 729h204l-187 -152h-142zM574 580l-66 -102q55 -36 85.5 -92.5t30.5 -125.5q0 -118 -84.5 -194t-217.5 -76q-64 0 -118 20l-49 -76h-90l71 109q-55 36 -85.5 92t-30.5 125q0 118 85 193.5t217 75.5q61 0 117 -18l45 69h90zM238 260q0 -25 7 -48l96 148q-11 2 -19 2 q-37 0 -60.5 -26.5t-23.5 -75.5zM322 158q24 0 43 11t30.5 35t11.5 56q0 29 -9 49l-96 -149q12 -2 20 -2z" />
<glyph unicode="&#x200;" horiz-adv-x="765" d="M294 871l49 -152h-143l-92 152h186zM516 871l49 -152h-142l-92 152h185zM784 0h-232l-45 116h-252l-45 -116h-228l291 665h220zM381 445l-65 -168h130z" />
<glyph unicode="&#x201;" horiz-adv-x="607" d="M216 729l49 -152h-142l-93 152h186zM438 729l49 -152h-142l-92 152h185zM280 529q281 0 281 -250v-279h-199v68q-37 -78 -147 -78q-92 0 -142.5 46t-50.5 116q0 157 237 157h87q-10 61 -98 61q-35 0 -71.5 -11t-61.5 -30l-68 141q29 19 69 32.5t82 20t82 6.5zM279 120 q51 0 68 49v36h-53q-66 0 -66 -43q0 -19 14 -30.5t37 -11.5z" />
<glyph unicode="&#x202;" horiz-adv-x="765" d="M383 777q-30 0 -49 -16t-21 -42h-129q4 74 58.5 118t140.5 44q57 0 101 -19.5t69.5 -56.5t27.5 -86h-128q-1 17 -10.5 30.5t-25 20.5t-34.5 7zM784 0h-232l-45 116h-252l-45 -116h-228l291 665h220zM381 445l-65 -168h130z" />
<glyph unicode="&#x203;" horiz-adv-x="607" d="M305 635q-29 0 -48.5 -16t-21.5 -42h-129q4 74 58.5 117.5t140.5 43.5q57 0 101 -19.5t69.5 -56t28.5 -85.5h-129q-2 26 -21.5 42t-48.5 16zM280 529q281 0 281 -250v-279h-199v68q-37 -78 -147 -78q-92 0 -142.5 46t-50.5 116q0 157 237 157h87q-10 61 -98 61 q-35 0 -71.5 -11t-61.5 -30l-68 141q29 19 69 32.5t82 20t82 6.5zM279 120q51 0 68 49v36h-53q-66 0 -66 -43q0 -19 14 -30.5t37 -11.5z" />
<glyph unicode="&#x204;" horiz-adv-x="639" d="M236 871l49 -152h-143l-92 152h186zM458 871l49 -152h-142l-92 152h185zM275 256v-87h332v-169h-553v665h541v-169h-320v-78h281v-162h-281z" />
<glyph unicode="&#x205;" horiz-adv-x="620" d="M221 729l50 -152h-143l-92 152h185zM444 729l49 -152h-142l-93 152h186zM600 260q0 -4 -2 -50h-361q23 -61 104 -61q23 0 42 4.5t33.5 12t32.5 21.5l112 -113q-76 -84 -227 -84q-141 0 -227.5 76.5t-86.5 193.5q0 118 84 193.5t210 75.5q79 0 143 -30t103.5 -92 t39.5 -147zM316 383q-33 0 -55 -18.5t-28 -50.5h167q-6 32 -28.5 50.5t-55.5 18.5z" />
<glyph unicode="&#x206;" horiz-adv-x="639" d="M325 777q-29 0 -48.5 -16t-21.5 -42h-129q4 74 58.5 118t140.5 44t140.5 -44t57.5 -118h-128q-1 17 -10.5 30.5t-25 20.5t-34.5 7zM275 256v-87h332v-169h-553v665h541v-169h-320v-78h281v-162h-281z" />
<glyph unicode="&#x207;" horiz-adv-x="620" d="M311 635q-30 0 -49.5 -16t-21.5 -42h-128q4 74 58 117.5t141 43.5q56 0 100.5 -19.5t70 -56t27.5 -85.5h-128q-1 17 -10.5 30t-25 20.5t-34.5 7.5zM600 260q0 -4 -2 -50h-361q23 -61 104 -61q23 0 42 4.5t33.5 12t32.5 21.5l112 -113q-76 -84 -227 -84 q-141 0 -227.5 76.5t-86.5 193.5q0 118 84 193.5t210 75.5q79 0 143 -30t103.5 -92t39.5 -147zM316 383q-33 0 -55 -18.5t-28 -50.5h167q-6 32 -28.5 50.5t-55.5 18.5z" />
<glyph unicode="&#x208;" horiz-adv-x="332" d="M126 719h-142l-92 152h185zM349 719h-143l-92 152h185zM278 0h-224v665h224v-665z" />
<glyph unicode="&#x209;" horiz-adv-x="309" d="M115 577h-143l-92 152h186zM337 577h-142l-92 152h185zM262 0h-214v520h214v-520z" />
<glyph unicode="&#x20a;" horiz-adv-x="332" d="M96 719h-128q3 74 57.5 118t140.5 44q57 0 101 -19.5t69.5 -56.5t28.5 -86h-128q-3 26 -22 42t-48.5 16t-49 -16t-21.5 -42zM278 0h-224v665h224v-665z" />
<glyph unicode="&#x20b;" horiz-adv-x="309" d="M104 577h-124q1 74 49.5 117.5t125.5 43.5q50 0 89 -19.5t62 -56t24 -85.5h-124q0 27 -13.5 43t-38 16t-37.5 -16t-13 -43zM262 0h-214v520h214v-520z" />
<glyph unicode="&#x20c;" horiz-adv-x="805" d="M363 719h-143l-92 152h186zM585 719h-142l-92 152h185zM402.5 -15q-162.5 0 -268.5 98.5t-106 249t106 249t268.5 98.5t269 -98.5t106.5 -249t-106.5 -249t-269 -98.5zM403 166q41 0 75 20t54 58t20 88q0 76 -42.5 121.5t-106.5 45.5t-106.5 -45.5t-42.5 -121t42.5 -121 t106.5 -45.5z" />
<glyph unicode="&#x20d;" horiz-adv-x="644" d="M279 577h-142l-92 152h185zM502 577h-143l-92 152h185zM322 -10q-132 0 -217 76t-85 194t85 193.5t217 75.5q133 0 217.5 -75.5t84.5 -193.5t-84.5 -194t-217.5 -76zM322 158q24 0 43 11t30.5 35t11.5 56q0 49 -24 75.5t-61 26.5t-60.5 -26.5t-23.5 -75.5t23.5 -75.5 t60.5 -26.5z" />
<glyph unicode="&#x20e;" horiz-adv-x="805" d="M332 719h-128q4 74 58.5 118t140.5 44t140.5 -44t57.5 -118h-128q-2 26 -21.5 42t-48.5 16q-20 0 -35 -7t-24.5 -20.5t-11.5 -30.5zM402.5 -15q-162.5 0 -268.5 98.5t-106 249t106 249t268.5 98.5t269 -98.5t106.5 -249t-106.5 -249t-269 -98.5zM403 166q41 0 75 20 t54 58t20 88q0 76 -42.5 121.5t-106.5 45.5t-106.5 -45.5t-42.5 -121t42.5 -121t106.5 -45.5z" />
<glyph unicode="&#x20f;" horiz-adv-x="644" d="M249 577h-128q3 74 57.5 117.5t140.5 43.5t140.5 -43.5t58.5 -117.5h-128q-3 26 -22 42t-49 16q-19 0 -34.5 -7.5t-25 -20.5t-10.5 -30zM322 -10q-132 0 -217 76t-85 194t85 193.5t217 75.5q133 0 217.5 -75.5t84.5 -193.5t-84.5 -194t-217.5 -76zM322 158q24 0 43 11 t30.5 35t11.5 56q0 49 -24 75.5t-61 26.5t-60.5 -26.5t-23.5 -75.5t23.5 -75.5t60.5 -26.5z" />
<glyph unicode="&#x210;" horiz-adv-x="707" d="M271 871l49 -152h-142l-92 152h185zM493 871l49 -152h-142l-92 152h185zM692 0h-240l-113 167h-61v-167h-224v665h320q139 0 221 -67.5t82 -183.5q0 -71 -32.5 -124.5t-92.5 -84.5zM451 414q0 37 -23 57.5t-68 20.5h-82v-156h82q45 0 68 20.5t23 57.5z" />
<glyph unicode="&#x211;" horiz-adv-x="433" d="M143 729l50 -152h-143l-92 152h185zM366 729l49 -152h-142l-93 152h186zM252 520v-56q57 65 168 65v-190q-25 4 -48 4q-110 0 -110 -112v-231h-214v520h204z" />
<glyph unicode="&#x212;" horiz-adv-x="707" d="M360 777q-29 0 -48.5 -16t-21.5 -42h-128q3 74 57.5 118t140.5 44t140.5 -44t58.5 -118h-129q-2 26 -21.5 42t-48.5 16zM692 0h-240l-113 167h-61v-167h-224v665h320q139 0 221 -67.5t82 -183.5q0 -71 -32.5 -124.5t-92.5 -84.5zM451 414q0 37 -23 57.5t-68 20.5h-82 v-156h82q45 0 68 20.5t23 57.5z" />
<glyph unicode="&#x213;" horiz-adv-x="433" d="M232.5 635q-29.5 0 -48.5 -16t-22 -42h-128q4 74 58.5 117.5t140.5 43.5t140.5 -43.5t57.5 -117.5h-128q-2 26 -21.5 42t-49 16zM252 520v-56q57 65 168 65v-190q-25 4 -48 4q-110 0 -110 -112v-231h-214v520h204z" />
<glyph unicode="&#x214;" horiz-adv-x="744" d="M334 719h-142l-92 152h185zM557 719h-143l-92 152h185zM372.5 -15q-153.5 0 -239 82.5t-85.5 231.5v366h225v-359q0 -140 101.5 -140t101.5 140v359h220v-366q0 -149 -85 -231.5t-238.5 -82.5z" />
<glyph unicode="&#x215;" horiz-adv-x="663" d="M241 729l50 -152h-143l-92 152h185zM464 729l49 -152h-143l-92 152h186zM401 276v244h215v-520h-205v49q-57 -59 -147 -59q-99 0 -158.5 60.5t-59.5 182.5v287h214v-250q0 -53 17.5 -76t50.5 -23q31 0 52 25.5t21 79.5z" />
<glyph unicode="&#x216;" horiz-adv-x="744" d="M304 719h-128q3 74 57.5 118t141 44t140.5 -44t58 -118h-128q-3 26 -22 42t-48.5 16t-49 -16t-21.5 -42zM372.5 -15q-153.5 0 -239 82.5t-85.5 231.5v366h225v-359q0 -140 101.5 -140t101.5 140v359h220v-366q0 -149 -85 -231.5t-238.5 -82.5z" />
<glyph unicode="&#x217;" horiz-adv-x="663" d="M331 635q-30 0 -49.5 -16t-21.5 -42h-128q4 74 58 117.5t140.5 43.5t141 -43.5t57.5 -117.5h-128q-2 17 -11 30t-24.5 20.5t-34.5 7.5zM401 276v244h215v-520h-205v49q-57 -59 -147 -59q-99 0 -158.5 60.5t-59.5 182.5v287h214v-250q0 -53 17.5 -76t50.5 -23 q31 0 52 25.5t21 79.5z" />
<glyph unicode="&#x218;" horiz-adv-x="624" d="M244 467q0 -15 20.5 -25.5t53 -17.5t71.5 -14.5t78 -21.5t71.5 -34.5t53 -57.5t20.5 -87q0 -96 -81 -160t-229 -64q-82 0 -160.5 18.5t-129.5 49.5l73 164q47 -28 106 -44.5t113 -16.5q86 0 86 36q0 15 -15.5 25.5t-41.5 16t-59 13.5t-67.5 15.5t-67.5 23t-59 36 t-41.5 55.5t-15.5 79q0 97 80.5 160.5t228.5 63.5t251 -58l-67 -162q-98 49 -185 49t-87 -42zM312.5 -48q39.5 0 62.5 -19t23 -52q0 -35 -24 -76l-37 -61h-94l25 75q-41 15 -41 62q0 33 23 52t62.5 19z" />
<glyph unicode="&#x219;" horiz-adv-x="536" d="M221 358q0 -12 22.5 -18.5t55.5 -8.5t71.5 -11t71.5 -23.5t55.5 -48t22.5 -82.5q0 -75 -70 -125.5t-199 -50.5q-67 0 -131.5 14.5t-104.5 37.5l59 141q24 -14 55 -24.5t63.5 -16t63.5 -5.5q66 0 66 25q0 10 -16.5 15.5t-43 8.5t-58.5 7t-63.5 13.5t-58 25.5t-43 46.5 t-16.5 73.5q0 76 70 126.5t196 50.5q129 0 212 -43l-59 -141q-69 38 -150 38q-71 0 -71 -25zM262.5 -48q39.5 0 62.5 -19t23 -52q0 -35 -24 -76l-37 -61h-94l25 75q-41 15 -41 62q0 33 23 52t62.5 19z" />
<glyph unicode="&#x21a;" horiz-adv-x="621" d="M4 491v174h614v-174h-195v-491h-224v491h-195zM310.5 -48q39.5 0 62.5 -19t23 -52q0 -35 -24 -76l-37 -61h-94l25 75q-41 15 -41 62q0 33 23 52t62.5 19z" />
<glyph unicode="&#x21b;" horiz-adv-x="437" d="M379 167l51 -149q-48 -28 -132 -28q-109 0 -168 53t-59 158v133h-71v157h71v145h215v-145h106v-157h-106v-131q0 -23 12.5 -36.5t32.5 -13.5q27 0 48 14zM260.5 -48q39.5 0 62.5 -19t23 -52q0 -35 -24 -76l-37 -61h-94l25 75q-41 15 -41 62q0 33 23 52t62.5 19z" />
<glyph unicode="&#x21e;" horiz-adv-x="763" d="M595 871l-122 -152h-182l-122 152h133l80 -73l80 73h133zM485 429v236h225v-665h-225v245h-207v-245h-224v665h224v-236h207z" />
<glyph unicode="&#x21f;" horiz-adv-x="666" d="M368 914l-122 -152h-182l-122 152h133l80 -73l80 73h133zM408 529q96 0 154.5 -58t58.5 -175v-296h-214v259q0 90 -64 90q-36 0 -58.5 -25.5t-22.5 -79.5v-244h-214v705h214v-227q60 51 146 51z" />
<glyph unicode="&#x22a;" horiz-adv-x="805" d="M602 902h-399v106h399v-106zM302 712q-23 0 -41 9.5t-29 27.5t-11 41q0 12 3 22.5t8 19.5t12.5 16t16.5 12t19.5 7.5t21.5 2.5q35 0 58 -22t23 -57.5t-23 -57t-58 -21.5zM504 712q-35 0 -58 21.5t-23 56.5q0 18 6 33t17 25.5t26 16t32 5.5q34 0 57 -22t23 -58 q0 -23 -10.5 -41t-29 -27.5t-40.5 -9.5zM402.5 -15q-162.5 0 -268.5 98.5t-106 249t106 249t268.5 98.5t269 -98.5t106.5 -249t-106.5 -249t-269 -98.5zM403 166q41 0 75 20t54 58t20 88q0 76 -42.5 121.5t-106.5 45.5t-106.5 -45.5t-42.5 -121t42.5 -121t106.5 -45.5z" />
<glyph unicode="&#x22b;" horiz-adv-x="644" d="M519 759h-399v106h399v-106zM218.5 569q-34.5 0 -57.5 22t-23 57t23 57.5t57.5 22.5t57.5 -22.5t23 -57.5t-23 -57t-57.5 -22zM420 569q-23 0 -41.5 9.5t-29 28t-10.5 41.5q0 35 23 57.5t58 22.5t58 -22.5t23 -57.5t-23 -57t-58 -22zM322 -10q-132 0 -217 76t-85 194 t85 193.5t217 75.5q133 0 217.5 -75.5t84.5 -193.5t-84.5 -194t-217.5 -76zM322 158q24 0 43 11t30.5 35t11.5 56q0 49 -24 75.5t-61 26.5t-60.5 -26.5t-23.5 -75.5t23.5 -75.5t60.5 -26.5z" />
<glyph unicode="&#x22c;" horiz-adv-x="805" d="M602 902h-399v106h399v-106zM475 710q-30 0 -57 11.5t-45.5 23.5t-28.5 12q-16 0 -27.5 -11t-12.5 -28h-104q0 68 34.5 105t96.5 37q29 0 56.5 -12t46.5 -24t30 -12q17 0 28 11.5t12 27.5h102q0 -66 -34 -103.5t-97 -37.5zM402.5 -15q-162.5 0 -268.5 98.5t-106 249 t106 249t268.5 98.5t269 -98.5t106.5 -249t-106.5 -249t-269 -98.5zM403 166q41 0 75 20t54 58t20 88q0 76 -42.5 121.5t-106.5 45.5t-106.5 -45.5t-42.5 -121t42.5 -121t106.5 -45.5z" />
<glyph unicode="&#x22d;" horiz-adv-x="644" d="M519 759h-399v106h399v-106zM391 567q-29 0 -56 12t-46 24t-29 12q-16 0 -27 -11t-13 -28h-104q0 67 34.5 104t96.5 37q30 0 57 -11.5t46.5 -23.5t29.5 -12q17 0 28 11t13 28h101q0 -44 -14.5 -75.5t-44 -49t-72.5 -17.5zM322 -10q-132 0 -217 76t-85 194t85 193.5 t217 75.5q133 0 217.5 -75.5t84.5 -193.5t-84.5 -194t-217.5 -76zM322 158q24 0 43 11t30.5 35t11.5 56q0 49 -24 75.5t-61 26.5t-60.5 -26.5t-23.5 -75.5t23.5 -75.5t60.5 -26.5z" />
<glyph unicode="&#x230;" horiz-adv-x="805" d="M602 911h-399v106h399v-106zM403 710q-37 0 -61.5 22.5t-24.5 60t24.5 61t61.5 23.5q24 0 43.5 -10.5t30.5 -30t11 -44t-11 -43.5t-30.5 -29t-43.5 -10zM402.5 -15q-162.5 0 -268.5 98.5t-106 249t106 249t268.5 98.5t269 -98.5t106.5 -249t-106.5 -249t-269 -98.5z M403 166q41 0 75 20t54 58t20 88q0 76 -42.5 121.5t-106.5 45.5t-106.5 -45.5t-42.5 -121t42.5 -121t106.5 -45.5z" />
<glyph unicode="&#x231;" horiz-adv-x="644" d="M519 769h-399v106h399v-106zM319 567q-37 0 -61 23t-24 60t24 60.5t61 23.5q24 0 43.5 -10.5t31 -30t11.5 -43.5q0 -37 -24.5 -60t-61.5 -23zM322 -10q-132 0 -217 76t-85 194t85 193.5t217 75.5q133 0 217.5 -75.5t84.5 -193.5t-84.5 -194t-217.5 -76zM322 158 q24 0 43 11t30.5 35t11.5 56q0 49 -24 75.5t-61 26.5t-60.5 -26.5t-23.5 -75.5t23.5 -75.5t60.5 -26.5z" />
<glyph unicode="&#x232;" horiz-adv-x="674" d="M138 851h399v-112h-399v112zM484 665h216l-251 -424v-241h-224v244l-251 421h237l136 -230z" />
<glyph unicode="&#x233;" horiz-adv-x="611" d="M98 709h399v-112h-399v112zM314 241l109 279h203l-214 -530q-40 -102 -101 -143t-149 -41q-44 0 -88 13t-70 34l71 147q36 -28 76 -28q35 0 53 21l-218 527h220z" />
<glyph unicode="&#x237;" horiz-adv-x="317" d="M43 -194q-82 0 -132 26l51 149q23 -12 48 -12q21 0 33 14.5t12 44.5v492h215v-493q0 -102 -60.5 -161.5t-166.5 -59.5z" />
<glyph unicode="&#x259;" horiz-adv-x="620" d="M286 529q141 0 227.5 -76t86.5 -194q0 -117 -83.5 -193t-210.5 -76q-79 0 -142.5 30t-103.5 92t-40 147q0 5 3 51h361q-23 60 -105 60q-34 0 -57.5 -8.5t-50.5 -29.5l-112 114q76 83 227 83zM304 137q33 0 55 18t29 51h-168q4 -16 11 -29t18 -22t25 -13.5t30 -4.5z" />
<glyph unicode="&#x292;" horiz-adv-x="555" d="M506 382l-124 -140q78 -20 119 -72.5t41 -126.5q0 -47 -17.5 -88t-53 -75t-94.5 -54t-135 -20q-69 0 -138 17t-120 48l72 165q84 -53 179 -53q39 0 62.5 15.5t23.5 44.5q0 55 -79 55h-88v138l102 115h-242v169h492v-138z" />
<glyph unicode="&#x2b9;" horiz-adv-x="241" d="M197 380h-152l-15 285h181z" />
<glyph unicode="&#x2ba;" horiz-adv-x="464" d="M197 380h-152l-15 285h181zM420 380h-152l-14 285h180z" />
<glyph unicode="&#x2bb;" horiz-adv-x="288" d="M256 923l-48 -160q62 -29 62 -106q0 -36 -16.5 -64t-45 -42.5t-64.5 -14.5t-64 14.5t-44.5 42.5t-16.5 64q0 25 7 50t30 75l67 141h133z" />
<glyph unicode="&#x2bc;" horiz-adv-x="305" d="M153 714q55 0 90 -33t35 -88q0 -17 -2 -30.5t-10.5 -36.5t-24.5 -58l-66 -141h-133l47 160q-61 30 -61 106q0 55 35 88t90 33z" />
<glyph unicode="&#x2be;" horiz-adv-x="570" d="M285 560v76q22 0 36.5 14.5t14.5 37t-14.5 37t-36.5 14.5v76q56 0 94.5 -37t38.5 -90.5t-38.5 -90.5t-94.5 -37z" />
<glyph unicode="&#x2bf;" horiz-adv-x="570" d="M285 636v-76q-56 0 -94.5 37t-38.5 90.5t38.5 90.5t94.5 37v-76q-14 0 -26 -6.5t-18.5 -18t-6.5 -26.5q0 -23 14.5 -37.5t36.5 -14.5z" />
<glyph unicode="&#x2c6;" horiz-adv-x="570" d="M376 729l122 -152h-133l-80 73l-80 -73h-133l122 152h182z" />
<glyph unicode="&#x2c7;" horiz-adv-x="570" d="M285 656l80 73h133l-122 -152h-182l-122 152h133z" />
<glyph unicode="&#x2c8;" horiz-adv-x="191" d="M164 472h-136v194h136v-194z" />
<glyph unicode="&#x2c9;" horiz-adv-x="570" d="M484 597h-398v112h398v-112z" />
<glyph unicode="&#x2ca;" horiz-adv-x="570" d="M328 577h-143l126 152h204z" />
<glyph unicode="&#x2cb;" horiz-adv-x="570" d="M385 577h-143l-187 152h204z" />
<glyph unicode="&#x2cc;" horiz-adv-x="195" d="M168 -222h-140v194h140v-194z" />
<glyph unicode="&#x2d8;" horiz-adv-x="570" d="M285 567q-86 0 -140.5 43.5t-58.5 118.5h129q2 -27 21.5 -42.5t48.5 -15.5t48.5 15.5t21.5 42.5h129q-4 -75 -58.5 -118.5t-140.5 -43.5z" />
<glyph unicode="&#x2d9;" horiz-adv-x="570" d="M285 567q-48 0 -78 30.5t-30 78t30 78t78 30.5t78 -30.5t30 -78t-30 -78t-78 -30.5z" />
<glyph unicode="&#x2da;" horiz-adv-x="570" d="M285 560q-56 0 -94.5 37t-38.5 90.5t38.5 90.5t94.5 37t94.5 -37t38.5 -90.5t-38.5 -90.5t-94.5 -37zM285 636q22 0 36.5 14.5t14.5 37t-14.5 37t-36.5 14.5q-14 0 -26 -6.5t-18.5 -18t-6.5 -26.5q0 -23 14.5 -37.5t36.5 -14.5z" />
<glyph unicode="&#x2db;" horiz-adv-x="570" d="M201 -228q-47 0 -81 14.5t-51.5 40.5t-17.5 62q0 52 41.5 93t117.5 65l75 -47q-60 -26 -84 -47.5t-24 -44.5q0 -18 12.5 -28.5t37.5 -10.5q28 0 56 13l26 -88q-41 -22 -108 -22z" />
<glyph unicode="&#x2dc;" horiz-adv-x="570" d="M362 567q-30 0 -58 14t-48.5 28t-34.5 14q-18 0 -29.5 -12.5t-12.5 -33.5h-102q1 75 36 119.5t95 44.5q30 0 58 -14t48.5 -28t34.5 -14q18 0 29.5 12t12.5 32h102q-1 -74 -36 -118t-95 -44z" />
<glyph unicode="&#x2dd;" horiz-adv-x="570" d="M245 577h-142l49 152h185zM467 577h-142l49 152h186z" />
<glyph unicode="&#x300;" d="M-185 577h-143l-187 152h204z" />
<glyph unicode="&#x301;" d="M-242 577h-143l126 152h204z" />
<glyph unicode="&#x302;" d="M-194 729l122 -152h-133l-80 73l-80 -73h-133l122 152h182z" />
<glyph unicode="&#x303;" d="M-208 567q-30 0 -58 14t-48.5 28t-34.5 14q-18 0 -29.5 -12.5t-12.5 -33.5h-102q1 75 36 119.5t95 44.5q30 0 58 -14t48.5 -28t34.5 -14q18 0 29.5 12t12.5 32h102q-1 -74 -36 -118t-95 -44z" />
<glyph unicode="&#x304;" d="M-86 597h-398v112h398v-112z" />
<glyph unicode="&#x306;" d="M-285 567q-86 0 -140.5 43.5t-58.5 118.5h129q2 -27 21.5 -42.5t48.5 -15.5t48.5 15.5t21.5 42.5h129q-4 -75 -58.5 -118.5t-140.5 -43.5z" />
<glyph unicode="&#x307;" d="M-285 567q-48 0 -78 30.5t-30 78t30 78t78 30.5t78 -30.5t30 -78t-30 -78t-78 -30.5z" />
<glyph unicode="&#x308;" d="M-390 569q-37 0 -61.5 23t-24.5 61q0 24 11.5 43.5t30.5 30t44 10.5q36 0 60.5 -23.5t24.5 -60.5q0 -25 -11 -44t-30.5 -29.5t-43.5 -10.5zM-180 569q-36 0 -60.5 23t-24.5 60.5t24.5 61t61 23.5t61 -23.5t24.5 -60.5q0 -19 -6.5 -34.5t-18 -26.5t-27.5 -17t-34 -6z" />
<glyph unicode="&#x309;" d="M-244 567l-65 62q44 21 44 51q0 17 -11 26.5t-29 9.5q-27 0 -54 -19l-44 80q49 38 123 38q60 0 97 -32.5t37 -84.5q0 -86 -98 -131z" />
<glyph unicode="&#x30a;" d="M-285 560q-56 0 -94.5 37t-38.5 90.5t38.5 90.5t94.5 37t94.5 -37t38.5 -90.5t-38.5 -90.5t-94.5 -37zM-285 636q14 0 26 6.5t18.5 18.5t6.5 27q0 22 -14.5 36.5t-36.5 14.5q-8 0 -16 -2.5t-14.5 -7t-11 -10.5t-7 -14t-2.5 -17q0 -23 14.5 -37.5t36.5 -14.5z" />
<glyph unicode="&#x30b;" d="M-325 577h-142l49 152h185zM-103 577h-142l49 152h186z" />
<glyph unicode="&#x30c;" d="M-285 656l80 73h133l-122 -152h-182l-122 152h133z" />
<glyph unicode="&#x30f;" d="M-325 577h-142l-93 152h186zM-103 577h-142l-92 152h185z" />
<glyph unicode="&#x311;" d="M-355 577h-129q4 74 58.5 117.5t140.5 43.5t140.5 -43.5t58.5 -117.5h-129q-2 26 -21.5 42t-48.5 16t-48.5 -16t-21.5 -42z" />
<glyph unicode="&#x312;" d="M-195 795l-37 -95q49 -16 49 -62q0 -33 -26 -52t-76 -19t-76 19t-26 52q0 31 29 76l51 81h112z" />
<glyph unicode="&#x31b;" d="M-285 389h-29v131h38q21 0 37 16t16 42q0 32 -19 54l121 42q35 -44 35 -105q0 -86 -52 -133t-147 -47z" />
<glyph unicode="&#x323;" d="M-285 -215q-37 0 -61 23t-24 60q0 25 11 44t30.5 29.5t43.5 10.5q37 0 61 -23.5t24 -60.5t-24 -60t-61 -23z" />
<glyph unicode="&#x324;" d="M-386 -206q-17 0 -31.5 5.5t-25.5 16t-17 25t-6 32.5q0 35 23 57t57.5 22t57.5 -22t23 -57t-23 -57t-58 -22zM-184.5 -206q-34.5 0 -57.5 22t-23 57t23 57t58 22q22 0 40.5 -9.5t29 -28t10.5 -41.5q0 -35 -23 -57t-57.5 -22z" />
<glyph unicode="&#x326;" d="M-285 -48q40 0 62.5 -19t22.5 -52q0 -35 -23 -76l-37 -61h-94l24 75q-40 15 -40 62q0 33 22.5 52t62.5 19z" />
<glyph unicode="&#x327;" d="M-324 -228q-56 0 -93 20l27 79q28 -12 57 -12q45 0 45 23q0 19 -39 19h-39l26 109h110l-13 -59q42 -6 61.5 -27t19.5 -49q0 -48 -44.5 -75.5t-117.5 -27.5z" />
<glyph unicode="&#x328;" d="M-369 -228q-70 0 -110 31.5t-40 85.5q0 52 41.5 93t117.5 65l75 -47q-60 -26 -84 -47.5t-24 -44.5q0 -18 12.5 -28.5t37.5 -10.5q28 0 56 13l26 -88q-41 -22 -108 -22z" />
<glyph unicode="&#x32e;" d="M-285 -214q-85 0 -139.5 41.5t-59.5 108.5h121q3 -24 24 -39t54 -15t54 15t24 39h121q-5 -67 -59.5 -108.5t-139.5 -41.5z" />
<glyph unicode="&#x331;" d="M-86 -182h-398v112h398v-112z" />
<glyph unicode="&#x335;" d="M-82 359h-406v105h406v-105z" />
<glyph unicode="&#x336;" d="M-66 346h-818v129h818v-129z" />
<glyph unicode="&#x337;" d="M-66 470l-372 -275l-66 95l372 275z" />
<glyph unicode="&#x338;" d="M-469 -66h-91l419 646h91z" />
<glyph unicode="&#x394;" horiz-adv-x="765" d="M273 665h220l291 -665h-802zM498 174l-117 287l-117 -287h234z" />
<glyph unicode="&#x3a9;" horiz-adv-x="834" d="M378 0h-370v174h114q-76 81 -76 200q0 66 28.5 123.5t78 97.5t118 62.5t146.5 22.5q105 0 189.5 -38.5t133 -109t48.5 -159.5q0 -118 -76 -199h114v-174h-370v162q52 27 81 74.5t29 106.5q0 73 -42 114.5t-106.5 41.5t-107 -41.5t-42.5 -114.5q0 -59 29.5 -107.5 t80.5 -73.5v-162z" />
<glyph unicode="&#x3bc;" horiz-adv-x="665" d="M403 276v244h215v-520h-186v48q-38 -58 -109 -58q-33 0 -61 14v-188h-214v704h214v-250q0 -53 17.5 -76t50.5 -23q31 0 52 25.5t21 79.5z" />
<glyph unicode="&#x3c0;" horiz-adv-x="696" d="M156 520h528v-149h-101v-371h-175v371h-36l-38 -371h-175l38 371h-13q-17 0 -28.5 -10.5t-11.5 -28.5q0 -22 18 -58l-147 -50q-36 76 -36 145q0 65 49.5 108t127.5 43z" />
<glyph unicode="&#x400;" horiz-adv-x="644" d="M304 871l125 -152h-142l-187 152h204zM279 256v-87h333v-169h-553v665h540v-169h-320v-78h281v-162h-281z" />
<glyph unicode="&#x401;" horiz-adv-x="644" d="M224 712q-37 0 -61 23t-24 60t24 61t61 24t61.5 -24t24.5 -61q0 -25 -11.5 -44t-31 -29t-43.5 -10zM435 712q-37 0 -61 23t-24 60t24 61t61 24t61.5 -24t24.5 -61q0 -25 -11.5 -44t-31 -29t-43.5 -10zM279 256v-87h333v-169h-553v665h540v-169h-320v-78h281v-162h-281z " />
<glyph unicode="&#x402;" horiz-adv-x="824" d="M430 491v-82q71 16 131 16q120 0 183 -58.5t63 -163.5q0 -44 -12.5 -79.5t-34.5 -60t-53 -41t-66.5 -24t-76.5 -7.5t-80 7l21 166q10 -4 28 -4q21 0 37 9.5t16 30.5q0 23 -21.5 37t-56.5 14q-37 0 -78 -16v-235h-220v491h-195v174h644v-174h-229z" />
<glyph unicode="&#x403;" horiz-adv-x="580" d="M328 871h204l-187 -152h-143zM59 665h506v-174h-286v-491h-220v665z" />
<glyph unicode="&#x404;" horiz-adv-x="686" d="M391 166q84 0 146 78l141 -126q-102 -133 -298 -133q-157 0 -256.5 97t-99.5 250.5t99.5 250.5t256.5 97q196 0 298 -133l-141 -126q-62 78 -146 78q-31 0 -56 -10.5t-43 -30t-29 -47.5h207v-161h-206q17 -40 49.5 -62t77.5 -22z" />
<glyph unicode="&#x405;" horiz-adv-x="638" d="M311 -15q-83 0 -161.5 18.5t-128.5 49.5l72 164q47 -28 106 -44.5t114 -16.5q86 0 86 36q0 15 -16 25.5t-41.5 16t-58.5 13.5t-67.5 15.5t-67.5 23t-59 36t-42 55.5t-16 79q0 97 81 160.5t229 63.5t251 -58l-68 -162q-97 49 -185 49q-86 0 -86 -42q0 -15 20 -25.5 t52.5 -17.5t72 -14.5t78.5 -21.5t71.5 -34.5t52.5 -57.5t20 -87q0 -96 -80.5 -160t-228.5 -64z" />
<glyph unicode="&#x406;" horiz-adv-x="338" d="M279 0h-220v665h220v-665z" />
<glyph unicode="&#x407;" horiz-adv-x="332" d="M61 712q-37 0 -61.5 23t-24.5 60t24.5 61t61.5 24t61 -24t24 -61q0 -25 -11 -44t-30.5 -29t-43.5 -10zM272 712q-37 0 -61.5 23t-24.5 60t24.5 61t61 24t61 -24t24.5 -61q0 -25 -11 -44t-30.5 -29t-43.5 -10zM278 0h-224v665h224v-665z" />
<glyph unicode="&#x408;" horiz-adv-x="570" d="M248 -15q-161 0 -245 99l121 142q52 -65 105 -65q23 0 39 9t24.5 27.5t8.5 45.5v253h-226v169h447v-409q0 -135 -69.5 -203t-204.5 -68z" />
<glyph unicode="&#x409;" horiz-adv-x="1122" d="M708 461h138q124 0 191.5 -55.5t67.5 -164.5q0 -117 -77 -179t-211 -62h-330v491h-152l-2 -77q-2 -84 -8 -143.5t-21 -116.5t-39 -91t-63.5 -54.5t-93.5 -20.5q-44 0 -95 12l12 180q13 -3 24 -3q19 0 32.5 7.5t22.5 23.5t15.5 34.5t10 47t5 54t3.5 62.5l8 259h562v-204z M708 157h94q34 0 56 21.5t22 59.5q0 66 -78 66h-94v-147z" />
<glyph unicode="&#x40a;" horiz-adv-x="1102" d="M702 440h136q118 0 182.5 -55.5t64.5 -157.5q0 -108 -70.5 -167.5t-195.5 -59.5h-337v258h-203v-258h-220v665h220v-233h203v233h220v-225zM702 157h88q33 0 51.5 16.5t18.5 46.5q0 63 -70 63h-88v-126z" />
<glyph unicode="&#x40b;" horiz-adv-x="830" d="M557 409q117 0 183.5 -64t66.5 -194v-151h-221v124q0 52 -22.5 78.5t-60.5 26.5q-35 0 -73 -18v-211h-220v491h-195v174h634v-174h-219v-97q73 15 127 15z" />
<glyph unicode="&#x40c;" horiz-adv-x="726" d="M400 871h204l-187 -152h-142zM487 665h234l-198 -323l197 -342h-253l-127 240h-63v-240h-224v665h224v-248h69z" />
<glyph unicode="&#x40d;" horiz-adv-x="778" d="M489 719h-142l-187 152h204zM271 0h-212v665h220v-346l229 346h211v-665h-220v345z" />
<glyph unicode="&#x40e;" horiz-adv-x="725" d="M362 703q-74 0 -120.5 19t-66.5 54.5t-20 89.5h149q0 -32 13 -46t45 -14t46 14.5t14 45.5h149q0 -81 -49.5 -122t-159.5 -41zM370 385l137 280h217l-267 -501q-47 -88 -115 -133.5t-150 -45.5q-63 0 -132 27l52 162q48 -12 72 -12q44 0 72 34l-254 469h236z" />
<glyph unicode="&#x40f;" horiz-adv-x="769" d="M490 665h221v-665h-224v-130h-205v130h-223v665h220v-491h211v491z" />
<glyph unicode="&#x410;" horiz-adv-x="807" d="M805 0h-232l-45 116h-252l-45 -116h-228l291 665h220zM402 445l-65 -168h129z" />
<glyph unicode="&#x411;" horiz-adv-x="707" d="M409 0h-350v665h577v-169h-357v-77h159q122 0 187 -52t65 -149q0 -102 -74.5 -160t-206.5 -58zM279 263v-106h115q34 0 52.5 14.5t18.5 40.5q0 51 -71 51h-115z" />
<glyph unicode="&#x412;" horiz-adv-x="705" d="M570 349q115 -42 115 -156q0 -59 -31 -102.5t-92.5 -67t-147.5 -23.5h-355v665h337q82 0 140.5 -20.5t89 -59.5t30.5 -94q0 -96 -86 -142zM374 508h-95v-99h95q55 0 55 49q0 50 -55 50zM279 157h125q55 0 55 53q0 51 -55 51h-125v-104z" />
<glyph unicode="&#x413;" horiz-adv-x="580" d="M59 665h506v-174h-286v-491h-220v665z" />
<glyph unicode="&#x414;" horiz-adv-x="820" d="M717 665v-491h88v-304h-206v130h-378v-130h-205v304h19q30 0 51 20.5t33.5 61.5t18.5 89.5t9 117.5l8 202h562zM344 491l-2 -47q-8 -197 -50 -270h205v317h-153z" />
<glyph unicode="&#x415;" horiz-adv-x="644" d="M279 256v-87h333v-169h-553v665h540v-169h-320v-78h281v-162h-281z" />
<glyph unicode="&#x416;" horiz-adv-x="1083" d="M1077 0h-257l-110 240h-58v-240h-219v240h-60l-110 -240h-257l178 350l-169 315h234l119 -248h65v248h219v-248h61l121 248h234l-168 -315z" />
<glyph unicode="&#x417;" horiz-adv-x="638" d="M504 346q35 -14 60.5 -38t39.5 -55t14 -66q0 -62 -45 -108.5t-119 -70t-164 -23.5q-144 0 -278 59l66 155q97 -39 193 -39q54 0 87 14.5t33 43.5q0 39 -65 39h-180v162h161q28 0 43 10.5t15 29.5q0 24 -25.5 36.5t-67.5 12.5q-88 0 -177 -43l-66 163q113 52 244 52 q85 0 157 -22.5t116.5 -68t44.5 -105.5q0 -44 -23 -80t-64 -58z" />
<glyph unicode="&#x418;" horiz-adv-x="778" d="M271 0h-212v665h220v-346l229 346h211v-665h-220v345z" />
<glyph unicode="&#x419;" horiz-adv-x="778" d="M389 703q-111 0 -159.5 41t-48.5 122h150q0 -32 13 -46t45 -14t45.5 14.5t13.5 45.5h150q0 -81 -49.5 -122t-159.5 -41zM271 0h-212v665h220v-346l229 346h211v-665h-220v345z" />
<glyph unicode="&#x41a;" horiz-adv-x="726" d="M487 665h234l-198 -323l197 -342h-253l-127 240h-63v-240h-224v665h224v-248h69z" />
<glyph unicode="&#x41b;" horiz-adv-x="766" d="M138 406l8 259h562v-665h-221v491h-152l-2 -77q-2 -84 -8 -143.5t-21 -116.5t-39 -91t-63.5 -54.5t-93.5 -20.5q-44 0 -95 12l12 180q13 -3 24 -3q19 0 32.5 7.5t22.5 23.5t15.5 34.5t10 47t5 54t3.5 62.5z" />
<glyph unicode="&#x41c;" horiz-adv-x="914" d="M855 665l2 -665h-204l-2 303l-145 -243h-98l-145 233v-293h-204v665h184l217 -354l211 354h184z" />
<glyph unicode="&#x41d;" horiz-adv-x="773" d="M490 429v236h224v-665h-224v245h-207v-245h-224v665h224v-236h207z" />
<glyph unicode="&#x41e;" horiz-adv-x="794" d="M397.5 -15q-162.5 0 -269 98.5t-106.5 249t106.5 249t269 98.5t268.5 -98.5t106 -249t-106 -249t-268.5 -98.5zM397 166q42 0 75.5 20t53.5 58t20 88q0 76 -42.5 121.5t-106.5 45.5t-106.5 -45.5t-42.5 -121t42.5 -121t106.5 -45.5z" />
<glyph unicode="&#x41f;" horiz-adv-x="760" d="M59 0v665h643v-665h-220v491h-203v-491h-220z" />
<glyph unicode="&#x420;" horiz-adv-x="700" d="M59 665h320q139 0 221 -67.5t82 -183t-82 -183.5t-221 -68h-96v-163h-224v665zM283 336h82q45 0 68 20.5t23 57.5t-23 57.5t-68 20.5h-82v-156z" />
<glyph unicode="&#x421;" horiz-adv-x="700" d="M393 -15q-161 0 -265.5 97.5t-104.5 250t104.5 250t265.5 97.5q197 0 299 -133l-142 -126q-61 78 -145 78q-71 0 -113.5 -45.5t-42.5 -121.5q0 -50 19.5 -87.5t54.5 -58t82 -20.5q84 0 145 78l142 -126q-102 -133 -299 -133z" />
<glyph unicode="&#x422;" horiz-adv-x="640" d="M15 665h610v-174h-195v-491h-220v491h-195v174z" />
<glyph unicode="&#x423;" horiz-adv-x="725" d="M370 385l137 280h217l-267 -501q-47 -88 -115 -133.5t-150 -45.5q-63 0 -132 27l52 162q48 -12 72 -12q44 0 72 34l-254 469h236z" />
<glyph unicode="&#x424;" horiz-adv-x="931" d="M910 335q0 -131 -87.5 -207.5t-254.5 -87.5v-74h-205v75q-112 9 -188.5 46t-115 99.5t-38.5 148.5q0 130 86.5 205t255.5 89v69h205v-69q168 -13 255 -88.5t87 -205.5zM568 456v-241q45 6 72.5 21t40.5 39.5t13 60.5t-13.5 60t-41 39t-71.5 21zM238 335q0 -35 14 -59 t41.5 -39t69.5 -21v239q-67 -9 -96 -37.5t-29 -82.5z" />
<glyph unicode="&#x425;" horiz-adv-x="749" d="M237 338l-220 328h257l96 -157l97 157h260l-216 -317l236 -349h-264l-113 172l-110 -172h-257z" />
<glyph unicode="&#x426;" horiz-adv-x="814" d="M711 665v-491h87v-304h-205v130h-534v665h220v-491h211v491h221z" />
<glyph unicode="&#x427;" horiz-adv-x="726" d="M447 386v279h221v-665h-221v213q-67 -20 -120 -20q-98 0 -164.5 31t-100.5 91.5t-34 149.5v200h220v-176q0 -119 107 -119q57 0 92 16z" />
<glyph unicode="&#x428;" horiz-adv-x="1045" d="M767 174v491h220v-665h-928v665h220v-491h134v491h221v-491h133z" />
<glyph unicode="&#x429;" horiz-adv-x="1083" d="M987 665v-491h81v-304h-205v130h-804v665h220v-491h134v491h221v-491h133v491h220z" />
<glyph unicode="&#x42a;" horiz-adv-x="821" d="M407 461h137q124 0 192 -55.5t68 -164.5q0 -117 -77 -179t-211 -62h-330v491h-171v174h392v-204zM407 157h94q34 0 56 21.5t22 59.5q0 66 -78 66h-94v-147z" />
<glyph unicode="&#x42b;" horiz-adv-x="1016" d="M279 461h138q124 0 191.5 -55.5t67.5 -164.5q0 -117 -76.5 -179t-210.5 -62h-330v665h220v-204zM958 0h-221v665h221v-665zM279 157h94q35 0 56.5 21.5t21.5 59.5q0 66 -78 66h-94v-147z" />
<glyph unicode="&#x42c;" horiz-adv-x="694" d="M279 461h138q124 0 191.5 -55.5t67.5 -164.5q0 -117 -76.5 -179t-210.5 -62h-330v665h220v-204zM279 157h94q35 0 56.5 21.5t21.5 59.5q0 66 -78 66h-94v-147z" />
<glyph unicode="&#x42d;" horiz-adv-x="686" d="M307 680q103 0 184.5 -44t126.5 -123.5t45 -180.5q0 -153 -99.5 -250t-256.5 -97q-196 0 -298 133l141 126q62 -78 145 -78q31 0 56.5 10.5t43.5 30t29 47.5h-207v161h206q-17 40 -50 62t-78 22q-83 0 -145 -78l-141 126q102 133 298 133z" />
<glyph unicode="&#x42e;" horiz-adv-x="1076" d="M687 680q159 0 263 -98.5t104 -249t-104 -249t-263 -98.5q-134 0 -231.5 71.5t-125.5 188.5h-51v-245h-220v665h220v-236h53q31 114 127 182.5t228 68.5zM687 166q60 0 100 45.5t40 121t-40 121t-100 45.5q-61 0 -101.5 -45.5t-40.5 -121.5q0 -50 19 -88t51 -58t72 -20z " />
<glyph unicode="&#x42f;" horiz-adv-x="701" d="M331 665h311v-665h-220v158h-60l-102 -158h-234l131 190q-43 20 -73 51.5t-45.5 73.5t-15.5 93q0 118 83 187.5t225 69.5zM422 492h-88q-85 0 -85 -81q0 -84 85 -84h88v165z" />
<glyph unicode="&#x430;" horiz-adv-x="589" d="M272 529q281 0 281 -250v-279h-200v68q-36 -78 -147 -78q-92 0 -142.5 46t-50.5 116q0 157 238 157h86q-10 61 -98 61q-23 0 -47 -5t-46.5 -14.5t-39.5 -21.5l-68 141q30 19 69.5 32.5t81.5 20t83 6.5zM271 120q51 0 67 49v36h-53q-66 0 -66 -43q0 -19 14 -30.5t38 -11.5 z" />
<glyph unicode="&#x431;" horiz-adv-x="651" d="M396 452q56 0 101.5 -16.5t75.5 -46t46.5 -69.5t16.5 -88q0 -115 -85.5 -181t-218.5 -66q-66 0 -119.5 17.5t-96 55t-66 103.5t-23.5 156q0 316 288 368l259 47l28 -176l-218 -39q-26 -5 -39.5 -8t-36.5 -11.5t-35.5 -20t-24.5 -31.5t-16 -47q65 53 164 53zM335 143 q36 0 59 24t23 60t-22.5 57t-59.5 21t-60 -21t-23 -54q0 -38 23 -62.5t60 -24.5z" />
<glyph unicode="&#x432;" horiz-adv-x="597" d="M492 273q86 -32 86 -121q0 -71 -56 -111.5t-165 -40.5h-307v520h292q69 0 119 -16.5t75.5 -47t25.5 -72.5q0 -74 -70 -111zM323 387h-85v-73h85q47 0 47 38q0 35 -47 35zM238 133h100q47 0 47 39q0 37 -47 37h-100v-76z" />
<glyph unicode="&#x433;" horiz-adv-x="515" d="M50 520h454v-168h-240v-352h-214v520z" />
<glyph unicode="&#x434;" horiz-adv-x="708" d="M627 520v-352h69v-271h-198v103h-287v-103h-199v271h16q24 0 40.5 12.5t25 37t13 52t5.5 66.5l7 184h508zM306 352l-1 -32q-1 -39 -3.5 -63t-9.5 -48.5t-19 -40.5h140v184h-107z" />
<glyph unicode="&#x435;" horiz-adv-x="623" d="M597 260q0 -4 -3 -50h-361q23 -61 104 -61q34 0 57.5 9t51.5 29l112 -113q-77 -84 -227 -84q-142 0 -228.5 76.5t-86.5 193.5q0 118 84 193.5t211 75.5q78 0 142 -30t104 -92t40 -147zM313 383q-34 0 -56 -18.5t-28 -50.5h167q-6 32 -28.5 50.5t-54.5 18.5z" />
<glyph unicode="&#x436;" horiz-adv-x="940" d="M941 0h-253l-79 173h-32v-173h-212v173h-34l-79 -173h-253l149 268l-138 252h226l90 -183h39v183h212v-183h37l91 183h226l-139 -252z" />
<glyph unicode="&#x437;" horiz-adv-x="553" d="M447 270q42 -15 65.5 -44.5t23.5 -67.5q0 -54 -39.5 -93.5t-102.5 -58t-142 -18.5q-134 0 -243 40l54 141q80 -29 183 -29q74 0 74 35q0 10 -4 16t-12.5 8.5t-23.5 2.5h-118v120h98q46 0 46 29q0 30 -68 30q-70 0 -166 -32l-48 135q121 47 231 47q117 0 192 -38.5 t75 -111.5q0 -34 -20 -63.5t-55 -47.5z" />
<glyph unicode="&#x438;" horiz-adv-x="691" d="M249 0h-199v520h214v-235l180 235h197v-520h-213v236z" />
<glyph unicode="&#x439;" horiz-adv-x="691" d="M332 562q-100 0 -145 40.5t-45 126.5h137q0 -32 11.5 -47.5t40.5 -15.5q53 0 53 63h139q0 -86 -46 -126.5t-145 -40.5zM249 0h-199v520h214v-235l180 235h197v-520h-213v236z" />
<glyph unicode="&#x43a;" horiz-adv-x="659" d="M662 0h-253l-103 173h-41v-173h-215v520h215v-183h47l114 183h226l-168 -249z" />
<glyph unicode="&#x43b;" horiz-adv-x="661" d="M107 294l8 226h496v-520h-215v352h-98l-3 -67q-2 -60 -8 -104t-19 -82.5t-33.5 -62t-51.5 -37t-73 -13.5q-43 0 -100 14l9 174q15 -2 22 -2q38 0 51 28t15 94z" />
<glyph unicode="&#x43c;" horiz-adv-x="793" d="M742 520l2 -520h-193l-1 233l-110 -192h-90l-107 197v-238h-193v520h227l124 -243l140 243h201z" />
<glyph unicode="&#x43d;" horiz-adv-x="674" d="M264 0h-214v520h214v-183h146v183h214v-520h-214v169h-146v-169z" />
<glyph unicode="&#x43e;" horiz-adv-x="636" d="M318 -10q-132 0 -217 76t-85 194t85 193.5t217 75.5q66 0 122 -20t95.5 -55t62 -85t22.5 -109q0 -118 -84.5 -194t-217.5 -76zM318 158q24 0 43 11t30.5 35t11.5 56q0 49 -24 75.5t-61 26.5t-60.5 -26.5t-23.5 -75.5t23.5 -75.5t60.5 -26.5z" />
<glyph unicode="&#x43f;" horiz-adv-x="658" d="M50 0v520h558v-520h-214v352h-130v-352h-214z" />
<glyph unicode="&#x440;" horiz-adv-x="666" d="M397 529q51 0 96.5 -19t80 -53t54.5 -85.5t20 -112.5q0 -121 -72.5 -195t-178.5 -74q-86 0 -132 45v-219h-215v704h205v-43q46 52 142 52zM346 158q37 0 60.5 26.5t23.5 75t-23.5 75.5t-60.5 27t-61 -27t-24 -75.5t24 -75t61 -26.5z" />
<glyph unicode="&#x441;" horiz-adv-x="587" d="M323 -10q-135 0 -221 75.5t-86 194.5t86 194t221 75q95 0 162.5 -41t93.5 -113l-167 -81q-31 68 -90 68q-38 0 -63 -26.5t-25 -75.5t25 -75.5t63 -26.5q59 0 90 68l167 -82q-26 -72 -93.5 -113t-162.5 -41z" />
<glyph unicode="&#x442;" horiz-adv-x="553" d="M11 520h531v-168h-158v-352h-214v352h-159v168z" />
<glyph unicode="&#x443;" horiz-adv-x="634" d="M325 241l109 279h203l-213 -530q-41 -102 -102 -143t-149 -41q-44 0 -88 13t-70 34l71 147q36 -28 76 -28q36 0 54 21l-219 527h221z" />
<glyph unicode="&#x444;" horiz-adv-x="855" d="M838 262q0 -122 -81.5 -191.5t-235.5 -82.5v-172h-187v172q-155 13 -236 82t-81 192q0 121 80 188t237 78v177h187v-177q76 -6 135 -26t99.5 -53t61.5 -80t21 -107zM220 262q0 -57 25.5 -85.5t88.5 -38.5v240q-32 -4 -53.5 -13t-35 -23.5t-19.5 -33.5t-6 -46zM521 378 v-240q42 6 67.5 21.5t36.5 40t11 62.5q0 53 -26 80.5t-89 35.5z" />
<glyph unicode="&#x445;" horiz-adv-x="624" d="M431 267l196 -267h-246l-71 111l-80 -111h-233l197 257l-191 263h242l74 -111l78 111h225z" />
<glyph unicode="&#x446;" horiz-adv-x="684" d="M603 520v-352h70v-271h-199v103h-424v520h214v-352h126v352h213z" />
<glyph unicode="&#x447;" horiz-adv-x="628" d="M365 320v200h214v-520h-214v176q-46 -27 -120 -27q-113 0 -168 51t-55 161v159h214v-145q0 -38 14.5 -53.5t45.5 -15.5q39 0 69 14z" />
<glyph unicode="&#x448;" horiz-adv-x="954" d="M692 168v352h212v-520h-854v520h214v-352h107v352h214v-352h107z" />
<glyph unicode="&#x449;" horiz-adv-x="954" d="M904 520v-352h68v-264h-199v96h-723v520h214v-352h107v352h214v-352h107v352h212z" />
<glyph unicode="&#x44a;" horiz-adv-x="693" d="M365 363h101q69 0 117.5 -20.5t73.5 -59.5t25 -94q0 -89 -64.5 -139t-178.5 -50h-288v352h-140v168h354v-157zM365 144h59q40 0 40 49q0 45 -40 45h-59v-94z" />
<glyph unicode="&#x44b;" horiz-adv-x="874" d="M264 363h107q104 0 156 -45t52 -130q0 -88 -61 -138t-173 -50h-295v520h214v-157zM824 0h-214v520h214v-520zM264 144h59q47 0 47 48q0 46 -47 46h-59v-94z" />
<glyph unicode="&#x44c;" horiz-adv-x="607" d="M264 363h115q104 0 160.5 -45.5t56.5 -129.5q0 -88 -65 -138t-179 -50h-302v520h214v-157zM264 144h67q46 0 46 48q0 46 -46 46h-67v-94z" />
<glyph unicode="&#x44d;" horiz-adv-x="579" d="M258 533q67 0 123.5 -20t96 -56t62 -86.5t22.5 -110.5q0 -121 -85 -197t-219 -76q-82 0 -147 27.5t-107 80.5l122 110q54 -61 123 -61q67 0 99 47h-165v140h164q-30 45 -98 45q-69 0 -123 -61l-122 110q87 108 254 108z" />
<glyph unicode="&#x44e;" horiz-adv-x="887" d="M579 529q127 0 209 -75.5t82 -193.5q0 -78 -37 -139.5t-103.5 -96t-150.5 -34.5q-68 0 -125.5 23t-96.5 64.5t-57 97.5h-36v-175h-214v520h214v-168h38q29 82 102.5 129.5t174.5 47.5zM578.5 158q34.5 0 57 26.5t22.5 75.5t-22 75.5t-57 26.5t-57.5 -26.5t-22.5 -75.5 t22.5 -75.5t57 -26.5z" />
<glyph unicode="&#x44f;" horiz-adv-x="615" d="M292 520h273v-520h-190v132h-52l-85 -132h-227l113 162q-102 50 -102 157q0 94 72 147.5t198 53.5zM375 353h-79q-55 0 -55 -41q0 -46 55 -46h79v87z" />
<glyph unicode="&#x450;" horiz-adv-x="623" d="M281 729l126 -152h-143l-187 152h204zM597 260q0 -4 -3 -50h-361q23 -61 104 -61q34 0 57.5 9t51.5 29l112 -113q-77 -84 -227 -84q-142 0 -228.5 76.5t-86.5 193.5q0 118 84 193.5t211 75.5q78 0 142 -30t104 -92t40 -147zM313 383q-34 0 -56 -18.5t-28 -50.5h167 q-6 32 -28.5 50.5t-54.5 18.5z" />
<glyph unicode="&#x451;" horiz-adv-x="623" d="M201.5 569q-36.5 0 -61 23t-24.5 60.5t24.5 61t60.5 23.5q24 0 43.5 -10.5t31 -30t11.5 -43.5q0 -38 -24.5 -61t-61 -23zM412 569q-37 0 -61 23t-24 61q0 24 11 43.5t30.5 30t43.5 10.5q37 0 61.5 -23.5t24.5 -60.5q0 -25 -11.5 -44t-31 -29.5t-43.5 -10.5zM597 260 q0 -4 -3 -50h-361q23 -61 104 -61q34 0 57.5 9t51.5 29l112 -113q-77 -84 -227 -84q-142 0 -228.5 76.5t-86.5 193.5q0 118 84 193.5t211 75.5q78 0 142 -30t104 -92t40 -147zM313 383q-34 0 -56 -18.5t-28 -50.5h167q-6 32 -28.5 50.5t-54.5 18.5z" />
<glyph unicode="&#x452;" horiz-adv-x="663" d="M411 529q46 0 84 -13.5t67.5 -41t45.5 -73t16 -105.5v-269q0 -67 -26.5 -116.5t-78 -77t-122.5 -27.5q-82 0 -132 26l51 149q24 -12 49 -12q13 0 23 6t15.5 19.5t5.5 33.5v231q0 90 -63 90q-36 0 -58.5 -25.5t-22.5 -79.5v-244h-215v554h-85v104h85v47h205v-47h204v-104 h-204v-86q60 61 156 61z" />
<glyph unicode="&#x453;" horiz-adv-x="515" d="M305 729h204l-187 -152h-142zM264 0h-214v520h454v-168h-240v-352z" />
<glyph unicode="&#x454;" horiz-adv-x="579" d="M331 143q69 0 122 61l123 -109q-88 -108 -255 -108q-134 0 -219 76t-85 196q0 121 85 197.5t219 76.5q167 0 255 -108l-123 -111q-53 61 -122 61q-68 0 -99 -46h164v-140h-163q29 -46 98 -46z" />
<glyph unicode="&#x455;" horiz-adv-x="536" d="M254 -10q-67 0 -131.5 14.5t-104.5 37.5l59 141q37 -21 85.5 -33.5t95.5 -12.5q67 0 67 25q0 10 -16.5 15.5t-43 8.5t-58.5 7t-64 13.5t-58 25.5t-42.5 46.5t-16.5 73.5q0 76 69.5 126.5t196.5 50.5q129 0 212 -43l-59 -141q-69 38 -151 38q-70 0 -70 -25q0 -12 22 -18.5 t55.5 -8.5t72 -11t71.5 -23.5t55 -48t22 -82.5q0 -75 -69.5 -125.5t-198.5 -50.5z" />
<glyph unicode="&#x456;" horiz-adv-x="315" d="M158 561q-29 0 -53.5 8.5t-41 23.5t-26 35t-9.5 43q0 47 36 78t94 31t93.5 -29.5t35.5 -76.5q0 -49 -35.5 -81t-93.5 -32zM265 0h-215v520h215v-520z" />
<glyph unicode="&#x457;" horiz-adv-x="309" d="M66 569q-33 0 -55.5 23t-22.5 60.5t22.5 61t55.5 23.5q22 0 40 -10.5t28 -30t10 -43.5q0 -38 -22 -61t-56 -23zM244 569q-34 0 -56.5 23t-22.5 60.5t22.5 61t56.5 23.5q22 0 39.5 -10.5t28 -30t10.5 -44t-10.5 -43.5t-28 -29.5t-39.5 -10.5zM262 0h-214v520h214v-520z " />
<glyph unicode="&#x458;" horiz-adv-x="315" d="M158 561q-29 0 -53.5 8.5t-41 23.5t-26 35t-9.5 43q0 47 36 78t94 31t93.5 -29.5t35.5 -76.5q0 -49 -35.5 -81t-93.5 -32zM38 -194q-82 0 -132 26l51 149q23 -12 49 -12q20 0 32 14.5t12 44.5v492h215v-493q0 -102 -60 -161.5t-167 -59.5z" />
<glyph unicode="&#x459;" horiz-adv-x="952" d="M611 363h114q104 0 160 -45.5t56 -129.5q0 -88 -64.5 -138t-178.5 -50h-302v352h-98l-3 -67q-2 -60 -8 -104t-19 -82.5t-33.5 -62t-51.5 -37t-73 -13.5q-43 0 -100 14l9 174q15 -2 22 -2q38 0 51 28t15 94l8 226h496v-157zM611 144h65q47 0 47 48q0 46 -47 46h-65v-94z " />
<glyph unicode="&#x45a;" horiz-adv-x="945" d="M616 350h102q105 0 161 -43t56 -125q0 -84 -65 -133t-178 -49h-290v181h-138v-181h-214v520h214v-170h138v170h214v-170zM616 141h60q19 0 29.5 11t10.5 28q0 37 -40 37h-60v-76z" />
<glyph unicode="&#x45b;" horiz-adv-x="663" d="M411 529q46 0 84 -13.5t67.5 -41t45.5 -73t16 -105.5v-296h-215v259q0 90 -63 90q-36 0 -58.5 -25.5t-22.5 -79.5v-244h-215v554h-104v104h104v47h215v-47h164v-104h-164v-76q60 51 146 51z" />
<glyph unicode="&#x45c;" horiz-adv-x="659" d="M363 729h204l-187 -152h-142zM662 0h-253l-103 173h-41v-173h-215v520h215v-183h47l114 183h226l-168 -249z" />
<glyph unicode="&#x45d;" horiz-adv-x="691" d="M431 577h-142l-187 152h204zM249 0h-199v520h214v-235l180 235h197v-520h-213v236z" />
<glyph unicode="&#x45e;" horiz-adv-x="634" d="M309 562q-99 0 -144.5 40.5t-45.5 126.5h137q0 -32 11.5 -47.5t40.5 -15.5q53 0 53 63h140q0 -86 -46.5 -126.5t-145.5 -40.5zM325 241l109 279h203l-213 -530q-41 -102 -102 -143t-149 -41q-44 0 -88 13t-70 34l71 147q36 -28 76 -28q36 0 54 21l-219 527h221z" />
<glyph unicode="&#x45f;" horiz-adv-x="644" d="M380 520h214v-520h-172v-103h-200v103h-172v520h214v-352h116v352z" />
<glyph unicode="&#x462;" horiz-adv-x="806" d="M390 451h147q121 0 186 -56t65 -161q0 -110 -74 -172t-206 -62h-339v509h-157v124h157v72h221v-72h208v-124h-208v-58zM390 157h103q34 0 52 18.5t18 52.5q0 66 -70 66h-103v-137z" />
<glyph unicode="&#x463;" horiz-adv-x="652" d="M310 363h115q69 0 117.5 -20.5t73.5 -59.5t25 -94q0 -89 -64.5 -139t-178.5 -50h-302v445h-95v123h95v137h214v-137h175v-123h-175v-82zM310 144h66q47 0 47 48q0 46 -47 46h-66v-94z" />
<glyph unicode="&#x46a;" horiz-adv-x="949" d="M905 124l38 -124h-230l-15 78q-4 24 -9.5 44t-11.5 35.5t-13 27.5t-14 20.5t-15.5 13.5t-17 7.5t-18.5 2.5h-25v-229h-200v229h-22q-18 0 -32.5 -7.5t-27.5 -24.5t-23.5 -46.5t-18.5 -72.5l-15 -78h-229l40 124q39 124 88.5 180.5t119.5 65.5l-149 164v131h738v-131 l-150 -163q72 -8 123.5 -65t88.5 -182zM475 373l131 144h-261l128 -144h2z" />
<glyph unicode="&#x46b;" horiz-adv-x="810" d="M781 92l30 -92h-209l-9 49q-13 66 -30.5 92t-44.5 26h-22v-167h-183v167h-20q-19 0 -32.5 -10t-25 -36.5t-19.5 -71.5l-10 -49h-207l30 92q34 100 74 146t97 56l-114 110v116h636v-116l-114 -110q58 -9 99 -55t74 -147zM404 298l102 93h-202z" />
<glyph unicode="&#x472;" horiz-adv-x="794" d="M397.5 680q162.5 0 268.5 -98.5t106 -249t-106 -249t-268.5 -98.5t-269 98.5t-106.5 249t106.5 249t269 98.5zM397 499q-48 0 -86 -27.5t-54 -75.5h280q-11 32 -31.5 55.5t-48.5 35.5t-60 12zM397 166q48 0 85.5 27t53.5 74h-278q17 -47 54 -74t85 -27z" />
<glyph unicode="&#x473;" horiz-adv-x="641" d="M320 529q134 0 219.5 -75t85.5 -193.5t-85.5 -194.5t-219.5 -76q-133 0 -218.5 76t-85.5 194t85.5 193.5t218.5 75.5zM320 384q-65 0 -89 -60h179q-25 60 -90 60zM320 136q64 0 89 59h-177q25 -59 88 -59z" />
<glyph unicode="&#x474;" horiz-adv-x="788" d="M491 0h-220l-267 665h241l139 -371l81 238q25 76 73.5 112t125.5 36q48 0 111 -14l-21 -200q-29 8 -45 8q-27 0 -43.5 -16.5t-29.5 -55.5z" />
<glyph unicode="&#x475;" horiz-adv-x="673" d="M332 269l57 152q42 114 171 114q46 0 106 -14l-21 -193q-30 6 -42 6q-13 0 -22 -5t-16 -16t-15 -32l-114 -281h-213l-226 520h234z" />
<glyph unicode="&#x48a;" horiz-adv-x="827" d="M389 703q-111 0 -159.5 41t-48.5 122h150q0 -32 13 -46t45 -14t45.5 14.5t13.5 45.5h150q0 -81 -49.5 -122t-159.5 -41zM719 665v-491h99l-86 -304h-174l19 130h-78v345l-228 -345h-212v665h220v-346l229 346h211z" />
<glyph unicode="&#x48b;" horiz-adv-x="723" d="M331.5 567q-86.5 0 -140.5 43.5t-58 118.5h128q2 -27 21.5 -42.5t49 -15.5t49 15.5t21.5 42.5h128q-3 -75 -57.5 -118.5t-141 -43.5zM641 520v-352h77l-76 -264h-169l17 96h-62v236l-179 -236h-199v520h214v-235l180 235h197z" />
<glyph unicode="&#x48c;" horiz-adv-x="730" d="M314 451h147q122 0 186.5 -56t64.5 -161q0 -110 -74 -172t-206 -62h-339v509h-81v124h81v72h221v-72h199v-124h-199v-58zM314 157h103q34 0 52 18.5t18 52.5q0 66 -70 66h-103v-137z" />
<glyph unicode="&#x48d;" horiz-adv-x="648" d="M308 335h115q104 0 160 -42t56 -118q0 -83 -64.5 -129t-178.5 -46h-302v369h-85v114h85v37h214v-37h176v-114h-176v-34zM308 133h66q47 0 47 44q0 42 -47 42h-66v-86z" />
<glyph unicode="&#x48e;" horiz-adv-x="701" d="M682 405q0 -72 -29 -126.5t-84 -87.5l51 -64l-65 -53l-67 84q-51 -14 -109 -14h-96v-144h-224v665h320q140 0 221.5 -69.5t81.5 -190.5zM283 492v-175h79l-48 61l64 53l65 -80q13 20 13 54q0 87 -91 87h-82z" />
<glyph unicode="&#x48f;" horiz-adv-x="670" d="M652 259q0 -137 -92 -213l43 -57l-61 -48l-52 66q-44 -17 -91 -17q-87 0 -134 45v-219h-215v704h205v-43q46 52 144 52q108 0 180.5 -73.5t72.5 -196.5zM351 158q5 0 19 2l-45 56l66 51l41 -54q8 21 8 46q0 50 -24.5 76.5t-64.5 26.5q-27 0 -47 -11.5t-31.5 -35 t-11.5 -56.5q0 -49 24.5 -75t65.5 -26z" />
<glyph unicode="&#x490;" horiz-adv-x="580" d="M279 0h-220v665h301v136h205v-310h-286v-491z" />
<glyph unicode="&#x491;" horiz-adv-x="515" d="M264 0h-214v520h255v106h199v-274h-240v-352z" />
<glyph unicode="&#x492;" horiz-adv-x="632" d="M615 665v-174h-286v-127h236v-124h-236v-240h-221v240h-95v124h95v301h507z" />
<glyph unicode="&#x493;" horiz-adv-x="559" d="M548 520v-168h-240v-77h154v-114h-154v-161h-214v161h-85v114h85v245h454z" />
<glyph unicode="&#x494;" horiz-adv-x="674" d="M279 491v-126q61 13 110 13q80 0 140.5 -29.5t93.5 -86.5t33 -136q0 -125 -80 -202.5t-206 -77.5q-35 0 -70 7l34 165q13 -3 24 -3q36 0 57 25.5t21 70.5q0 32 -11 54.5t-31.5 33.5t-48.5 11q-31 0 -66 -12v-198h-220v665h526v-174h-306z" />
<glyph unicode="&#x495;" horiz-adv-x="626" d="M264 352v-68q47 9 90 9q81 0 141 -29.5t91.5 -81.5t31.5 -120q0 -111 -78.5 -183.5t-205.5 -72.5q-41 0 -92 11l44 167q18 -4 37 -4q39 0 56.5 20t17.5 52q0 39 -22.5 56.5t-59.5 17.5q-27 0 -51 -6v-120h-214v520h454v-168h-240z" />
<glyph unicode="&#x496;" horiz-adv-x="1106" d="M900 350l89 -176h100v-304h-205v130h-64l-110 240h-58v-240h-219v240h-60l-110 -240h-257l178 350l-169 315h234l119 -248h65v248h219v-248h61l121 248h234z" />
<glyph unicode="&#x497;" horiz-adv-x="959" d="M792 268l58 -104h94v-261h-193v97h-63l-79 173h-32v-173h-212v173h-34l-79 -173h-253l149 268l-138 252h226l90 -183h39v183h212v-183h37l91 183h226z" />
<glyph unicode="&#x498;" horiz-adv-x="638" d="M618 187q0 -73 -61.5 -123.5t-161.5 -69.5v-124h-205v122q-96 16 -178 52l66 155q97 -39 193 -39q54 0 87 14.5t33 43.5q0 39 -65 39h-180v162h161q28 0 43 10.5t15 29.5q0 24 -25.5 36.5t-67.5 12.5q-88 0 -177 -43l-66 163q113 52 244 52q85 0 157 -22.5t116.5 -68 t44.5 -105.5q0 -44 -23 -80t-64 -58q35 -14 60.5 -38t39.5 -55t14 -66z" />
<glyph unicode="&#x499;" horiz-adv-x="553" d="M536 158q0 -61 -47.5 -102t-126.5 -58v-94h-200v88q-82 9 -153 36l54 141q80 -29 183 -29q74 0 74 35q0 10 -4 16t-12.5 8.5t-23.5 2.5h-118v120h98q46 0 46 29q0 30 -68 30q-70 0 -166 -32l-48 135q121 47 231 47q117 0 192 -38.5t75 -111.5q0 -34 -20 -63.5t-55 -47.5 q42 -15 65.5 -44.5t23.5 -67.5z" />
<glyph unicode="&#x49a;" horiz-adv-x="754" d="M523 342l97 -168h116v-304h-205v130h-64l-127 240h-63v-240h-224v665h224v-248h69l141 248h234z" />
<glyph unicode="&#x49b;" horiz-adv-x="659" d="M484 271l71 -107h111v-261h-193v97h-64l-103 173h-41v-173h-215v520h215v-183h47l114 183h226z" />
<glyph unicode="&#x49c;" horiz-adv-x="777" d="M771 0h-261l-104 240h-10v-90h-85v90h-34v-240h-224v665h224v-248h34v93h85v-93h12l116 248h234l-166 -323z" />
<glyph unicode="&#x49d;" horiz-adv-x="673" d="M674 0h-248l-74 173h-2v-53h-73l1 53h-21v-173h-214v520h214v-183h22l1 67h70v-67h6l86 183h220l-132 -251z" />
<glyph unicode="&#x49e;" horiz-adv-x="749" d="M510 665h234l-198 -323l197 -342h-253l-127 240h-63v-240h-224v515h-66v95h66v55h224v-55h97v-95h-97v-98h69z" />
<glyph unicode="&#x49f;" horiz-adv-x="656" d="M659 0h-252l-104 173h-41v-173h-214v554h-76v104h76v47h214v-47h105v-104h-105v-217h47l114 183h226l-167 -249z" />
<glyph unicode="&#x4a0;" horiz-adv-x="855" d="M617 665h233l-197 -323l196 -342h-252l-128 240h-62v-240h-225v491h-167v174h392v-248h68z" />
<glyph unicode="&#x4a1;" horiz-adv-x="755" d="M758 0h-253l-103 173h-41v-173h-215v356h-135v164h350v-183h47l114 183h226l-168 -249z" />
<glyph unicode="&#x4a2;" horiz-adv-x="816" d="M714 665v-491h82v-304h-205v130h-101v245h-207v-245h-224v665h224v-236h207v236h224z" />
<glyph unicode="&#x4a3;" horiz-adv-x="705" d="M624 520v-352h70v-264h-198v96h-86v169h-146v-169h-214v520h214v-183h146v183h214z" />
<glyph unicode="&#x4a4;" horiz-adv-x="1011" d="M997 665v-174h-283v-491h-224v245h-207v-245h-224v665h224v-236h207v236h507z" />
<glyph unicode="&#x4a5;" horiz-adv-x="875" d="M864 520v-168h-240v-352h-214v169h-146v-169h-214v520h214v-183h146v183h454z" />
<glyph unicode="&#x4a8;" horiz-adv-x="931" d="M886 145l15 -142q-70 -19 -143 -19q-89 0 -164 28q-81 -28 -168 -28q-63 0 -121 14.5t-109 46t-89 75.5t-59.5 107.5t-21.5 139.5q0 59 14 115.5t43 107.5t72 90l183 -82q-28 -33 -48 -74t-30 -83t-10 -83q0 -95 49 -153t123 -71q-83 102 -83 247q0 136 77 217.5 t208 81.5q125 0 197 -74t72 -205q0 -159 -112 -273q56 2 105 17zM619 523q-21 0 -38.5 -9t-28.5 -26.5t-17 -42.5t-6 -57q0 -134 87 -205q87 73 87 213q0 62 -21.5 94.5t-62.5 32.5z" />
<glyph unicode="&#x4a9;" horiz-adv-x="820" d="M782 137l7 -136q-57 -16 -123 -16q-76 0 -143 23q-71 -22 -152 -22q-158 0 -254 82t-96 223q0 72 27 135t78 109l174 -77q-65 -87 -65 -174q0 -60 29.5 -99t86.5 -52q-51 75 -51 167q0 107 66.5 170.5t182.5 63.5q110 0 174.5 -57t64.5 -158q0 -109 -75 -194q35 3 69 12z M546 383q-62 0 -62 -79q0 -88 58 -136q62 47 62 141q0 39 -13.5 56.5t-44.5 17.5z" />
<glyph unicode="&#x4aa;" horiz-adv-x="700" d="M405 166q84 0 145 78l142 -126q-80 -103 -221 -128v-120h-205v134q-111 34 -177 121.5t-66 206.5q0 153 104.5 250.5t265.5 97.5q197 0 299 -133l-142 -126q-61 78 -145 78q-71 0 -113.5 -45.5t-42.5 -121.5q0 -50 19.5 -87.5t54.5 -58t82 -20.5z" />
<glyph unicode="&#x4ab;" horiz-adv-x="587" d="M322 158q59 0 90 68l167 -82q-20 -56 -66.5 -94t-112.5 -52v-94h-200v106q-85 29 -134.5 95.5t-49.5 154.5q0 119 86 194t221 75q95 0 162.5 -41t93.5 -113l-167 -81q-31 68 -90 68q-38 0 -63 -26.5t-25 -75.5t25 -75.5t63 -26.5z" />
<glyph unicode="&#x4ac;" horiz-adv-x="640" d="M625 665v-174h-195v-317h86v-304h-205v130h-101v491h-195v174h610z" />
<glyph unicode="&#x4ad;" horiz-adv-x="553" d="M542 520v-168h-158v-184h70v-264h-198v96h-86v352h-159v168h531z" />
<glyph unicode="&#x4ae;" horiz-adv-x="727" d="M510 665h217l-251 -424v-241h-224v244l-251 421h237l135 -230z" />
<glyph unicode="&#x4af;" horiz-adv-x="634" d="M434 520h203l-214 -519v-185h-215v185l-211 519h221l104 -279z" />
<glyph unicode="&#x4b0;" horiz-adv-x="727" d="M510 665h217l-213 -360h65v-105h-103v-200h-224v200h-113v105h77l-215 360h237l135 -230z" />
<glyph unicode="&#x4b1;" horiz-adv-x="634" d="M434 520h203l-191 -463h121v-105h-144v-136h-215v136h-143v105h120l-188 463h221l104 -279z" />
<glyph unicode="&#x4b2;" horiz-adv-x="768" d="M511 349l118 -175h122v-304h-205v130h-63l-113 172l-110 -172h-257l234 338l-220 328h257l96 -157l97 157h260z" />
<glyph unicode="&#x4b3;" horiz-adv-x="624" d="M431 267l75 -103h137v-261h-193v97h-69l-71 111l-80 -111h-233l197 257l-191 263h242l74 -111l78 111h225z" />
<glyph unicode="&#x4b4;" horiz-adv-x="966" d="M863 665v-491h87v-304h-205v130h-534v491h-195v174h553v-174h-138v-317h211v491h221z" />
<glyph unicode="&#x4b5;" horiz-adv-x="788" d="M713 520v-352h64v-264h-198v96h-409v352h-159v168h448v-168h-75v-184h116v352h213z" />
<glyph unicode="&#x4b6;" horiz-adv-x="769" d="M668 665v-491h85v-304h-205v130h-101v213q-67 -20 -120 -20q-98 0 -164.5 31t-100.5 91.5t-34 149.5v200h220v-176q0 -119 107 -119q57 0 92 16v279h221z" />
<glyph unicode="&#x4b7;" horiz-adv-x="669" d="M579 520v-352h70v-264h-199v96h-85v176q-46 -27 -120 -27q-113 0 -168 51t-55 161v159h214v-145q0 -38 14.5 -53.5t45.5 -15.5q39 0 69 14v200h214z" />
<glyph unicode="&#x4b8;" horiz-adv-x="726" d="M447 386v279h221v-665h-221v213q-32 -10 -54 -13v-97h-85v90q-138 5 -209 74t-71 198v200h220v-176q0 -90 60 -111v87h85v-93q35 5 54 14z" />
<glyph unicode="&#x4b9;" horiz-adv-x="628" d="M365 320v200h214v-520h-214v176q-20 -11 -35 -15v-75h-74l1 63h-12q-113 0 -168 51t-55 161v159h214v-145q0 -48 23 -61l1 68h70v-73q19 4 35 11z" />
<glyph unicode="&#x4ba;" horiz-adv-x="726" d="M400 472q147 0 223 -69t76 -203v-200h-220v176q0 118 -108 118q-56 0 -92 -15v-279h-220v665h220v-213q67 20 121 20z" />
<glyph unicode="&#x4bb;" horiz-adv-x="663" d="M411 529q46 0 84 -13.5t67.5 -41t45.5 -73t16 -105.5v-296h-215v259q0 90 -63 90q-36 0 -58.5 -25.5t-22.5 -79.5v-244h-215v705h215v-227q60 51 146 51z" />
<glyph unicode="&#x4bc;" horiz-adv-x="996" d="M977 338q0 -43 -10 -82h-476q18 -44 54.5 -67.5t81.5 -23.5q83 0 143 72l162 -130q-58 -59 -139.5 -90.5t-168.5 -31.5q-86 0 -161 29.5t-131.5 92t-74.5 149.5h-25q-102 0 -161 51.5t-59 138.5q0 55 24 116l174 -28q-21 -39 -21 -70q0 -14 4 -25.5t12 -20.5t21 -14 t30 -6q11 68 46 122.5t85 89t109.5 52.5t121.5 18q69 0 132.5 -22t114.5 -63t81.5 -107.5t30.5 -149.5zM618 502q-44 0 -80.5 -27.5t-52.5 -76.5h259q-13 50 -48.5 77t-77.5 27z" />
<glyph unicode="&#x4bd;" horiz-adv-x="822" d="M810 260q0 -20 -3 -50h-369q22 -61 106 -61q35 0 59.5 9t52.5 29l114 -113q-79 -84 -232 -84q-129 0 -214 60.5t-104 159.5h-20q-38 0 -68 5.5t-52.5 17t-38 28.5t-23.5 40t-8 51q0 41 19 96l159 -26q-15 -29 -15 -56q0 -24 12 -38t35 -14q20 96 101.5 155.5t195.5 59.5 q60 0 112.5 -17.5t93 -50.5t64 -85t23.5 -116zM519 383q-34 0 -56.5 -18.5t-29.5 -50.5h171q-6 32 -28.5 50.5t-56.5 18.5z" />
<glyph unicode="&#x4be;" horiz-adv-x="996" d="M977 338q0 -43 -10 -82h-476q18 -44 54.5 -67.5t81.5 -23.5q83 0 143 72l162 -130q-78 -80 -201 -110v-127h-206v125q-102 23 -174.5 90t-93.5 171h-25q-102 0 -161 51.5t-59 138.5q0 55 24 116l174 -28q-21 -39 -21 -70q0 -14 4 -25.5t12 -20.5t21 -14t30 -6 q11 68 46 122.5t85 89t109.5 52.5t121.5 18q69 0 132.5 -22t114.5 -63t81.5 -107.5t30.5 -149.5zM618 502q-44 0 -80.5 -27.5t-52.5 -76.5h259q-13 50 -48.5 77t-77.5 27z" />
<glyph unicode="&#x4bf;" horiz-adv-x="822" d="M810 260q0 -20 -3 -50h-369q22 -61 106 -61q35 0 59.5 9t52.5 29l114 -113q-58 -62 -153 -77v-93h-200v103q-80 24 -131.5 77.5t-65.5 125.5h-20q-38 0 -68 5.5t-52.5 17t-38 28.5t-23.5 40t-8 51q0 41 19 96l159 -26q-15 -29 -15 -56q0 -24 12 -38t35 -14 q20 96 101.5 155.5t195.5 59.5q60 0 112.5 -17.5t93 -50.5t64 -85t23.5 -116zM519 383q-34 0 -56.5 -18.5t-29.5 -50.5h171q-6 32 -28.5 50.5t-56.5 18.5z" />
<glyph unicode="&#x4c0;" horiz-adv-x="342" d="M283 0h-224v665h224v-665z" />
<glyph unicode="&#x4c1;" horiz-adv-x="1083" d="M542 703q-110 0 -158.5 41t-48.5 122h149q0 -21 5.5 -34t18.5 -19.5t34 -6.5q33 0 46.5 14.5t13.5 45.5h149q0 -81 -49 -122t-160 -41zM1077 0h-257l-110 240h-58v-240h-219v240h-60l-110 -240h-257l178 350l-169 315h234l119 -248h65v248h219v-248h61l121 248h234 l-168 -315z" />
<glyph unicode="&#x4c2;" horiz-adv-x="940" d="M471 562q-99 0 -144.5 40.5t-45.5 126.5h138q0 -32 11 -47.5t40 -15.5q53 0 53 63h140q0 -86 -46 -126.5t-146 -40.5zM941 0h-253l-79 173h-32v-173h-212v173h-34l-79 -173h-253l149 268l-138 252h226l90 -183h39v183h212v-183h37l91 183h226l-139 -252z" />
<glyph unicode="&#x4c3;" horiz-adv-x="740" d="M493 665h234l-194 -315q101 -120 146.5 -195.5t45.5 -144.5q0 -98 -60.5 -153.5t-168.5 -55.5q-74 0 -140 29l51 152q23 -10 39 -10q34 0 34 45q0 37 -35.5 98t-88.5 125h-73v-240h-224v665h224v-248h69z" />
<glyph unicode="&#x4c4;" horiz-adv-x="659" d="M652 520l-159 -237q85 -93 123.5 -157t38.5 -124q0 -95 -62 -146.5t-156 -51.5q-67 0 -137 28l52 148q25 -11 45 -11q41 0 41 43q0 50 -106 161h-67v-173h-215v520h215v-183h47l114 183h226z" />
<glyph unicode="&#x4c6;" horiz-adv-x="692" d="M611 520v-352h76l-76 -264h-169l17 96h-63v352h-98l-3 -67q-2 -60 -8 -104t-19 -82.5t-33.5 -62t-51.5 -37t-73 -13.5q-43 0 -100 14l9 174q15 -2 22 -2q38 0 51 28t15 94l8 226h496z" />
<glyph unicode="&#x4c7;" horiz-adv-x="771" d="M348 -168l51 149q24 -11 45 -11q22 0 35 13.5t13 38.5v217h-213v-239h-220v665h220v-252h213v252h220v-646q0 -71 -32.5 -121t-83 -72.5t-112.5 -22.5q-71 0 -136 29z" />
<glyph unicode="&#x4c8;" horiz-adv-x="674" d="M398 -194q-82 0 -132 26l51 148q23 -12 49 -12q20 0 32 15t12 45v141h-146v-169h-214v520h214v-183h146v183h214v-493q0 -102 -59.5 -161.5t-166.5 -59.5z" />
<glyph unicode="&#x4c9;" horiz-adv-x="822" d="M714 665v-491h95l-85 -304h-175l19 130h-78v245h-207v-245h-224v665h224v-236h207v236h224z" />
<glyph unicode="&#x4ca;" horiz-adv-x="706" d="M624 520v-352h77l-76 -264h-169l17 96h-63v169h-146v-169h-214v520h214v-183h146v183h214z" />
<glyph unicode="&#x4cb;" horiz-adv-x="722" d="M443 431v234h220v-665h-139v-130h-205v304h124v85q-66 -20 -119 -20q-147 0 -223 64.5t-76 188.5v173h220v-148q0 -100 107 -100q54 0 91 14z" />
<glyph unicode="&#x4cc;" horiz-adv-x="624" d="M360 358v162h214v-520h-102v-96h-199v255h87v55q-45 -27 -120 -27q-113 0 -168 51t-55 161v121h214v-107q0 -38 14.5 -53.5t46.5 -15.5q38 0 68 14z" />
<glyph unicode="&#x4cd;" horiz-adv-x="986" d="M855 665l1 -491h121l-86 -304h-175l19 130h-82l-2 303l-145 -243h-98l-145 233v-293h-204v665h184l217 -354l211 354h184z" />
<glyph unicode="&#x4ce;" horiz-adv-x="847" d="M742 520l1 -352h99l-76 -264h-169l17 96h-63l-1 233l-110 -192h-90l-107 197v-238h-193v520h227l124 -243l140 243h201z" />
<glyph unicode="&#x4cf;" horiz-adv-x="315" d="M265 0h-215v705h215v-705z" />
<glyph unicode="&#x4d0;" horiz-adv-x="807" d="M403 703q-110 0 -158.5 41t-48.5 122h149q0 -32 13 -46t45 -14t46 14.5t14 45.5h149q0 -81 -49.5 -122t-159.5 -41zM805 0h-232l-45 116h-252l-45 -116h-228l291 665h220zM402 445l-65 -168h129z" />
<glyph unicode="&#x4d1;" horiz-adv-x="589" d="M296 562q-99 0 -144.5 40.5t-45.5 126.5h138q0 -16 2.5 -27t8 -19.5t15.5 -12.5t25 -4q54 0 54 63h139q0 -86 -46 -126.5t-146 -40.5zM272 529q281 0 281 -250v-279h-200v68q-36 -78 -147 -78q-92 0 -142.5 46t-50.5 116q0 157 238 157h86q-10 61 -98 61q-23 0 -47 -5 t-46.5 -14.5t-39.5 -21.5l-68 141q30 19 69.5 32.5t81.5 20t83 6.5zM271 120q51 0 67 49v36h-53q-66 0 -66 -43q0 -19 14 -30.5t38 -11.5z" />
<glyph unicode="&#x4d2;" horiz-adv-x="807" d="M298 712q-37 0 -61 23t-24 60q0 25 11 44.5t30.5 30t43.5 10.5q37 0 61.5 -24t24.5 -61q0 -25 -11.5 -44t-31 -29t-43.5 -10zM509 712q-37 0 -61 23t-24 60q0 25 11 44.5t30.5 30t43.5 10.5q37 0 61.5 -24t24.5 -61q0 -25 -11.5 -44t-31 -29t-43.5 -10zM805 0h-232 l-45 116h-252l-45 -116h-228l291 665h220zM402 445l-65 -168h129z" />
<glyph unicode="&#x4d3;" horiz-adv-x="589" d="M191 569q-37 0 -61.5 23t-24.5 60.5t24.5 61t61.5 23.5t61 -23.5t24 -60.5q0 -19 -6.5 -34.5t-18 -26.5t-27 -17t-33.5 -6zM402 569q-37 0 -61.5 23t-24.5 60.5t24.5 61t61.5 23.5t61 -23.5t24 -60.5q0 -25 -11 -44t-30.5 -29.5t-43.5 -10.5zM272 529q281 0 281 -250 v-279h-200v68q-36 -78 -147 -78q-92 0 -142.5 46t-50.5 116q0 157 238 157h86q-10 61 -98 61q-23 0 -47 -5t-46.5 -14.5t-39.5 -21.5l-68 141q30 19 69.5 32.5t81.5 20t83 6.5zM271 120q51 0 67 49v36h-53q-66 0 -66 -43q0 -19 14 -30.5t38 -11.5z" />
<glyph unicode="&#x4d4;" horiz-adv-x="1083" d="M718 256v-87h333v-169h-553v116h-210l-58 -116h-228l350 665h686v-169h-320v-78h281v-162h-281zM476 496l-108 -219h130v219h-22z" />
<glyph unicode="&#x4d5;" horiz-adv-x="941" d="M923 262q0 -24 -3 -54h-360q22 -59 102 -59q56 0 109 38l113 -113q-80 -84 -225 -84q-139 0 -221 78q-62 -78 -191 -78q-109 0 -172 46.5t-63 123.5q0 72 59.5 112t178.5 40h85q-12 58 -96 58q-79 0 -134 -41l-68 141q45 28 107.5 43.5t125.5 15.5q121 0 188 -57 q79 57 183 57q75 0 138 -30t103.5 -92t40.5 -145zM637 383q-32 0 -54 -19t-29 -52h164q-3 16 -10 29.5t-17.5 22.5t-24 14t-29.5 5zM272 120q31 0 48 18.5t17 51.5v18h-53q-66 0 -66 -44q0 -20 14 -32t40 -12z" />
<glyph unicode="&#x4d6;" horiz-adv-x="644" d="M329 703q-110 0 -158.5 41t-48.5 122h149q0 -32 13 -46t45 -14t46 14.5t14 45.5h149q0 -81 -49.5 -122t-159.5 -41zM279 256v-87h333v-169h-553v665h540v-169h-320v-78h281v-162h-281z" />
<glyph unicode="&#x4d7;" horiz-adv-x="623" d="M307 562q-67 0 -109 18t-61.5 54.5t-19.5 94.5h138q0 -21 4 -34t15.5 -21t31.5 -8q53 0 53 63h140q0 -86 -46.5 -126.5t-145.5 -40.5zM597 260q0 -4 -3 -50h-361q23 -61 104 -61q34 0 57.5 9t51.5 29l112 -113q-77 -84 -227 -84q-142 0 -228.5 76.5t-86.5 193.5 q0 118 84 193.5t211 75.5q78 0 142 -30t104 -92t40 -147zM313 383q-34 0 -56 -18.5t-28 -50.5h167q-6 32 -28.5 50.5t-54.5 18.5z" />
<glyph unicode="&#x4d8;" horiz-adv-x="776" d="M375 680q73 0 140.5 -22.5t121 -64.5t85 -109.5t31.5 -151.5q0 -67 -21 -124t-57 -97.5t-83.5 -69.5t-101 -42.5t-109.5 -13.5q-69 0 -133 22t-115.5 63t-82 107.5t-30.5 149.5q0 43 9 82h483q-12 29 -34 49.5t-49 31t-57 10.5q-83 0 -145 -72l-161 130q59 59 140.5 90.5 t168.5 31.5zM382 163q45 0 82.5 27.5t53.5 76.5h-265q7 -25 20 -45t30.5 -33t37.5 -19.5t41 -6.5z" />
<glyph unicode="&#x4d9;" horiz-adv-x="624" d="M294 529q141 0 227.5 -76t86.5 -194q0 -117 -84 -193t-210 -76q-79 0 -143 30t-103.5 92t-39.5 147q0 5 2 51h361q-23 60 -104 60q-23 0 -42 -4t-33.5 -12t-32.5 -22l-113 114q77 83 228 83zM312 137q33 0 55 18t28 51h-167q6 -33 28.5 -51t55.5 -18z" />
<glyph unicode="&#x4da;" horiz-adv-x="776" d="M283 712q-24 0 -43.5 10t-30.5 29t-11 44q0 37 24 61t61 24t61.5 -24t24.5 -61q0 -25 -11.5 -44t-31 -29t-43.5 -10zM494 712q-37 0 -61.5 23t-24.5 60q0 25 11.5 44.5t31 30t43.5 10.5q37 0 61.5 -24t24.5 -61q0 -25 -11.5 -44t-31 -29t-43.5 -10zM375 680 q73 0 140.5 -22.5t121 -64.5t85 -109.5t31.5 -151.5q0 -67 -21 -124t-57 -97.5t-83.5 -69.5t-101 -42.5t-109.5 -13.5q-69 0 -133 22t-115.5 63t-82 107.5t-30.5 149.5q0 43 9 82h483q-12 29 -34 49.5t-49 31t-57 10.5q-83 0 -145 -72l-161 130q59 59 140.5 90.5t168.5 31.5 zM382 163q45 0 82.5 27.5t53.5 76.5h-265q7 -25 20 -45t30.5 -33t37.5 -19.5t41 -6.5z" />
<glyph unicode="&#x4db;" horiz-adv-x="624" d="M212 569q-24 0 -43.5 10.5t-31 29.5t-11.5 44q0 37 24.5 60.5t61.5 23.5t61 -23.5t24 -60.5q0 -25 -11 -44t-30.5 -29.5t-43.5 -10.5zM423 569q-37 0 -61.5 23t-24.5 61q0 24 11.5 43.5t31 30t43.5 10.5q37 0 61 -23.5t24 -60.5q0 -25 -11 -44t-30.5 -29.5t-43.5 -10.5z M294 529q141 0 227.5 -76t86.5 -194q0 -117 -84 -193t-210 -76q-79 0 -143 30t-103.5 92t-39.5 147q0 5 2 51h361q-23 60 -104 60q-23 0 -42 -4t-33.5 -12t-32.5 -22l-113 114q77 83 228 83zM312 137q33 0 55 18t28 51h-167q6 -33 28.5 -51t55.5 -18z" />
<glyph unicode="&#x4dc;" horiz-adv-x="1083" d="M438 712q-37 0 -61.5 23t-24.5 60q0 25 11.5 44.5t31 30t43.5 10.5q37 0 61 -24t24 -61q0 -18 -6.5 -34t-18 -26.5t-27 -16.5t-33.5 -6zM649 712q-37 0 -61.5 23t-24.5 60q0 25 11.5 44.5t31 30t43.5 10.5q37 0 61 -24t24 -61q0 -25 -11 -44t-30.5 -29t-43.5 -10zM1077 0 h-257l-110 240h-58v-240h-219v240h-60l-110 -240h-257l178 350l-169 315h234l119 -248h65v248h219v-248h61l121 248h234l-168 -315z" />
<glyph unicode="&#x4dd;" horiz-adv-x="940" d="M366 569q-37 0 -61.5 23t-24.5 61q0 24 11.5 43.5t31 30t43.5 10.5q37 0 61 -23.5t24 -60.5q0 -25 -11 -44t-30.5 -29.5t-43.5 -10.5zM577 569q-37 0 -61.5 23t-24.5 60.5t24.5 61t61.5 23.5q24 0 43.5 -10.5t30.5 -30t11 -43.5q0 -38 -24 -61t-61 -23zM941 0h-253 l-79 173h-32v-173h-212v173h-34l-79 -173h-253l149 268l-138 252h226l90 -183h39v183h212v-183h37l91 183h226l-139 -252z" />
<glyph unicode="&#x4de;" horiz-adv-x="638" d="M206 712q-37 0 -61 23t-24 60t24 61t61 24q24 0 43.5 -10.5t31 -30t11.5 -44.5t-11.5 -44t-31 -29t-43.5 -10zM417 712q-37 0 -61 23t-24 60t24 61t61 24t61.5 -24t24.5 -61q0 -25 -11.5 -44t-31 -29t-43.5 -10zM504 346q35 -14 60.5 -38t39.5 -55t14 -66 q0 -62 -45 -108.5t-119 -70t-164 -23.5q-144 0 -278 59l66 155q97 -39 193 -39q54 0 87 14.5t33 43.5q0 39 -65 39h-180v162h161q28 0 43 10.5t15 29.5q0 24 -25.5 36.5t-67.5 12.5q-88 0 -177 -43l-66 163q113 52 244 52q85 0 157 -22.5t116.5 -68t44.5 -105.5 q0 -44 -23 -80t-64 -58z" />
<glyph unicode="&#x4df;" horiz-adv-x="553" d="M173 569q-37 0 -61.5 23t-24.5 60.5t24.5 61t61.5 23.5q24 0 43.5 -10.5t30.5 -30t11 -43.5q0 -38 -24 -61t-61 -23zM384 569q-37 0 -61.5 23t-24.5 61q0 24 11.5 43.5t31 30t43.5 10.5q37 0 61 -23.5t24 -60.5q0 -25 -11 -44t-30.5 -29.5t-43.5 -10.5zM447 270 q42 -15 65.5 -44.5t23.5 -67.5q0 -54 -39.5 -93.5t-102.5 -58t-142 -18.5q-134 0 -243 40l54 141q80 -29 183 -29q74 0 74 35q0 10 -4 16t-12.5 8.5t-23.5 2.5h-118v120h98q46 0 46 29q0 30 -68 30q-70 0 -166 -32l-48 135q121 47 231 47q117 0 192 -38.5t75 -111.5 q0 -34 -20 -63.5t-55 -47.5z" />
<glyph unicode="&#x4e0;" horiz-adv-x="621" d="M562 527l-129 -124q81 -20 124 -70t43 -119q0 -45 -18.5 -85t-55.5 -73t-99 -52t-142 -19q-73 0 -145 15.5t-125 44.5l72 165q88 -48 190 -48q45 0 71 13t26 38q0 45 -88 45h-89v138l103 100h-253v169h515v-138z" />
<glyph unicode="&#x4e1;" horiz-adv-x="555" d="M506 382l-124 -140q78 -20 119 -72.5t41 -126.5q0 -47 -17.5 -88t-53 -75t-94.5 -54t-135 -20q-69 0 -138 17t-120 48l72 165q84 -53 179 -53q39 0 62.5 15.5t23.5 44.5q0 55 -79 55h-88v138l102 115h-242v169h492v-138z" />
<glyph unicode="&#x4e2;" horiz-adv-x="778" d="M589 739h-399v112h399v-112zM271 0h-212v665h220v-346l229 346h211v-665h-220v345z" />
<glyph unicode="&#x4e3;" horiz-adv-x="691" d="M531 597h-399v112h399v-112zM249 0h-199v520h214v-235l180 235h197v-520h-213v236z" />
<glyph unicode="&#x4e4;" horiz-adv-x="778" d="M284 712q-37 0 -61 23t-24 60t24 61t61 24t61.5 -24t24.5 -61q0 -25 -11.5 -44t-31 -29t-43.5 -10zM495 712q-37 0 -61.5 23t-24.5 60q0 25 11.5 44.5t31 30t43.5 10.5q37 0 61 -24t24 -61q0 -25 -11 -44t-30.5 -29t-43.5 -10zM271 0h-212v665h220v-346l229 346h211v-665 h-220v345z" />
<glyph unicode="&#x4e5;" horiz-adv-x="691" d="M226 569q-24 0 -43.5 10.5t-30.5 29.5t-11 44q0 18 6.5 34t18 27t27 17t33.5 6q37 0 61.5 -23.5t24.5 -60.5q0 -25 -11.5 -44t-31 -29.5t-43.5 -10.5zM437 569q-37 0 -61 23t-24 61q0 24 11 43.5t30.5 30t43.5 10.5q37 0 61 -23.5t24 -60.5q0 -25 -11 -44t-30.5 -29.5 t-43.5 -10.5zM249 0h-199v520h214v-235l180 235h197v-520h-213v236z" />
<glyph unicode="&#x4e6;" horiz-adv-x="794" d="M292 712q-37 0 -61.5 23t-24.5 60q0 25 11.5 44.5t31 30t43.5 10.5t43.5 -10.5t30.5 -30t11 -44.5t-11 -44t-30.5 -29t-43.5 -10zM503 712q-37 0 -61.5 23t-24.5 60t24.5 61t61 24t61 -24t24.5 -61q0 -25 -11 -44t-30.5 -29t-43.5 -10zM397.5 -15q-162.5 0 -269 98.5 t-106.5 249t106.5 249t269 98.5t268.5 -98.5t106 -249t-106 -249t-268.5 -98.5zM397 166q42 0 75.5 20t53.5 58t20 88q0 76 -42.5 121.5t-106.5 45.5t-106.5 -45.5t-42.5 -121t42.5 -121t106.5 -45.5z" />
<glyph unicode="&#x4e7;" horiz-adv-x="636" d="M210 569q-37 0 -61.5 23t-24.5 60.5t24.5 61t61.5 23.5t61 -23.5t24 -60.5q0 -25 -11 -44t-30.5 -29.5t-43.5 -10.5zM421 569q-37 0 -61.5 23t-24.5 60.5t24.5 61t61.5 23.5t61 -23.5t24 -60.5q0 -25 -11 -44t-30.5 -29.5t-43.5 -10.5zM318 -10q-132 0 -217 76t-85 194 t85 193.5t217 75.5q66 0 122 -20t95.5 -55t62 -85t22.5 -109q0 -118 -84.5 -194t-217.5 -76zM318 158q24 0 43 11t30.5 35t11.5 56q0 49 -24 75.5t-61 26.5t-60.5 -26.5t-23.5 -75.5t23.5 -75.5t60.5 -26.5z" />
<glyph unicode="&#x4e8;" horiz-adv-x="794" d="M397.5 680q162.5 0 268.5 -98.5t106 -249t-106 -249t-268.5 -98.5t-269 98.5t-106.5 249t106.5 249t269 98.5zM397 499q-48 0 -86 -27.5t-54 -75.5h280q-11 32 -31.5 55.5t-48.5 35.5t-60 12zM397 166q48 0 85.5 27t53.5 74h-278q17 -47 54 -74t85 -27z" />
<glyph unicode="&#x4e9;" horiz-adv-x="641" d="M320 529q134 0 219.5 -75t85.5 -193.5t-85.5 -194.5t-219.5 -76q-133 0 -218.5 76t-85.5 194t85.5 193.5t218.5 75.5zM320 384q-65 0 -89 -60h179q-25 60 -90 60zM320 136q64 0 89 59h-177q25 -59 88 -59z" />
<glyph unicode="&#x4ea;" horiz-adv-x="794" d="M292 712q-37 0 -61.5 23t-24.5 60q0 25 11.5 44.5t31 30t43.5 10.5t43.5 -10.5t30.5 -30t11 -44.5t-11 -44t-30.5 -29t-43.5 -10zM503 712q-37 0 -61.5 23t-24.5 60t24.5 61t61 24t61 -24t24.5 -61q0 -25 -11 -44t-30.5 -29t-43.5 -10zM397.5 680q162.5 0 268.5 -98.5 t106 -249t-106 -249t-268.5 -98.5t-269 98.5t-106.5 249t106.5 249t269 98.5zM397 499q-48 0 -86 -27.5t-54 -75.5h280q-11 32 -31.5 55.5t-48.5 35.5t-60 12zM397 166q48 0 85.5 27t53.5 74h-278q17 -47 54 -74t85 -27z" />
<glyph unicode="&#x4eb;" horiz-adv-x="641" d="M216 569q-37 0 -61.5 23t-24.5 60.5t24.5 61t61.5 23.5q24 0 43.5 -10.5t30.5 -30t11 -43.5q0 -38 -24 -61t-61 -23zM427 569q-37 0 -61.5 23t-24.5 60.5t24.5 61t61 23.5t61 -23.5t24.5 -60.5q0 -25 -11 -44t-30.5 -29.5t-43.5 -10.5zM320 529q134 0 219.5 -75 t85.5 -193.5t-85.5 -194.5t-219.5 -76q-133 0 -218.5 76t-85.5 194t85.5 193.5t218.5 75.5zM320 384q-65 0 -89 -60h179q-25 60 -90 60zM320 136q64 0 89 59h-177q25 -59 88 -59z" />
<glyph unicode="&#x4ec;" horiz-adv-x="686" d="M219 712q-36 0 -60.5 23t-24.5 60t24.5 61t61 24t61 -24t24.5 -61q0 -25 -11.5 -44t-30.5 -29t-44 -10zM430 712q-37 0 -61 23t-24 60t24.5 61t61 24t61 -24t24.5 -61q0 -25 -11.5 -44t-31 -29t-43.5 -10zM307 680q103 0 184.5 -44t126.5 -123.5t45 -180.5 q0 -153 -99.5 -250t-256.5 -97q-196 0 -298 133l141 126q62 -78 145 -78q31 0 56.5 10.5t43.5 30t29 47.5h-207v161h206q-17 40 -50 62t-78 22q-83 0 -145 -78l-141 126q102 133 298 133z" />
<glyph unicode="&#x4ed;" horiz-adv-x="579" d="M175 569q-37 0 -61.5 23t-24.5 60.5t24.5 61t61.5 23.5t61 -23.5t24 -60.5q0 -25 -11 -44t-30.5 -29.5t-43.5 -10.5zM386 569q-37 0 -61.5 23t-24.5 61q0 24 11.5 43.5t31 30t43.5 10.5q36 0 60.5 -23.5t24.5 -60.5q0 -25 -11 -44t-30.5 -29.5t-43.5 -10.5zM258 533 q67 0 123.5 -20t96 -56t62 -86.5t22.5 -110.5q0 -121 -85 -197t-219 -76q-82 0 -147 27.5t-107 80.5l122 110q54 -61 123 -61q67 0 99 47h-165v140h164q-30 45 -98 45q-69 0 -123 -61l-122 110q87 108 254 108z" />
<glyph unicode="&#x4ee;" horiz-adv-x="725" d="M163 851h399v-112h-399v112zM370 385l137 280h217l-267 -501q-47 -88 -115 -133.5t-150 -45.5q-63 0 -132 27l52 162q48 -12 72 -12q44 0 72 34l-254 469h236z" />
<glyph unicode="&#x4ef;" horiz-adv-x="634" d="M109 709h399v-112h-399v112zM325 241l109 279h203l-213 -530q-41 -102 -102 -143t-149 -41q-44 0 -88 13t-70 34l71 147q36 -28 76 -28q36 0 54 21l-219 527h221z" />
<glyph unicode="&#x4f0;" horiz-adv-x="725" d="M257 712q-36 0 -60.5 23t-24.5 60t24.5 61t61 24t61 -24t24.5 -61q0 -25 -11.5 -44t-30.5 -29t-44 -10zM468 712q-37 0 -61 23t-24 60t24.5 61t61 24t61 -24t24.5 -61q0 -25 -11.5 -44t-31 -29t-43.5 -10zM370 385l137 280h217l-267 -501q-47 -88 -115 -133.5t-150 -45.5 q-63 0 -132 27l52 162q48 -12 72 -12q44 0 72 34l-254 469h236z" />
<glyph unicode="&#x4f1;" horiz-adv-x="634" d="M203 569q-37 0 -61 23t-24 60.5t24.5 61t61 23.5t61 -23.5t24.5 -60.5q0 -19 -6.5 -34.5t-18 -26.5t-27.5 -17t-34 -6zM414 569q-37 0 -61 23t-24 61q0 24 11 43.5t30.5 30t43.5 10.5q37 0 61.5 -23.5t24.5 -60.5q0 -25 -11.5 -44t-31 -29.5t-43.5 -10.5zM325 241 l109 279h203l-213 -530q-41 -102 -102 -143t-149 -41q-44 0 -88 13t-70 34l71 147q36 -28 76 -28q36 0 54 21l-219 527h221z" />
<glyph unicode="&#x4f2;" horiz-adv-x="725" d="M230 871h185l-92 -152h-143zM637 871l-92 -152h-142l49 152h185zM370 385l137 280h217l-267 -501q-47 -88 -115 -133.5t-150 -45.5q-63 0 -132 27l52 162q48 -12 72 -12q44 0 72 34l-254 469h236z" />
<glyph unicode="&#x4f3;" horiz-adv-x="634" d="M176 729h185l-92 -152h-143zM583 729l-92 -152h-142l49 152h185zM325 241l109 279h203l-213 -530q-41 -102 -102 -143t-149 -41q-44 0 -88 13t-70 34l71 147q36 -28 76 -28q36 0 54 21l-219 527h221z" />
<glyph unicode="&#x4f4;" horiz-adv-x="726" d="M249 712q-37 0 -61.5 23t-24.5 60t24.5 61t61.5 24q24 0 43.5 -10.5t30.5 -30t11 -44.5t-11 -44t-30.5 -29t-43.5 -10zM460 712q-37 0 -61.5 23t-24.5 60q0 25 11.5 44.5t31 30t43.5 10.5q37 0 61 -24t24 -61q0 -18 -6.5 -34t-18 -26.5t-27 -16.5t-33.5 -6zM447 386v279 h221v-665h-221v213q-67 -20 -120 -20q-98 0 -164.5 31t-100.5 91.5t-34 149.5v200h220v-176q0 -119 107 -119q57 0 92 16z" />
<glyph unicode="&#x4f5;" horiz-adv-x="628" d="M191 569q-37 0 -61.5 23t-24.5 60.5t24.5 61t61.5 23.5t61 -23.5t24 -60.5q0 -19 -6.5 -34.5t-18 -26.5t-27 -17t-33.5 -6zM402 569q-37 0 -61.5 23t-24.5 60.5t24.5 61t61.5 23.5t61 -23.5t24 -60.5q0 -25 -11 -44t-30.5 -29.5t-43.5 -10.5zM365 320v200h214v-520h-214 v176q-46 -27 -120 -27q-113 0 -168 51t-55 161v159h214v-145q0 -38 14.5 -53.5t45.5 -15.5q39 0 69 14z" />
<glyph unicode="&#x4f6;" horiz-adv-x="580" d="M565 665v-174h-286v-317h86v-304h-205v130h-101v665h506z" />
<glyph unicode="&#x4f7;" horiz-adv-x="515" d="M504 520v-168h-240v-184h70v-264h-198v96h-86v520h454z" />
<glyph unicode="&#x4f8;" horiz-adv-x="1016" d="M407 712q-37 0 -61.5 23t-24.5 60t24.5 61t61 24t61 -24t24.5 -61q0 -25 -11 -44t-30.5 -29t-43.5 -10zM618 712q-37 0 -61.5 23t-24.5 60t24.5 61t61 24t61 -24t24.5 -61q0 -25 -11.5 -44t-30.5 -29t-43 -10zM279 461h138q124 0 191.5 -55.5t67.5 -164.5 q0 -117 -76.5 -179t-210.5 -62h-330v665h220v-204zM958 0h-221v665h221v-665zM279 157h94q35 0 56.5 21.5t21.5 59.5q0 66 -78 66h-94v-147z" />
<glyph unicode="&#x4f9;" horiz-adv-x="874" d="M331 569q-37 0 -61.5 23t-24.5 60.5t24.5 61t61 23.5t61 -23.5t24.5 -60.5q0 -25 -11 -44t-30.5 -29.5t-43.5 -10.5zM542 569q-37 0 -61.5 23t-24.5 60.5t24.5 61t61 23.5t61 -23.5t24.5 -60.5q0 -25 -11.5 -44t-30.5 -29.5t-43 -10.5zM264 363h107q104 0 156 -45 t52 -130q0 -88 -61 -138t-173 -50h-295v520h214v-157zM824 0h-214v520h214v-520zM264 144h59q47 0 47 48q0 46 -47 46h-59v-94z" />
<glyph unicode="&#x4fa;" horiz-adv-x="632" d="M615 665v-174h-286v-127h236v-124h-236v-119h63v-99q0 -104 -63.5 -161.5t-161.5 -57.5q-68 0 -139 29l45 134q25 -10 45 -10q48 0 58 44h-72v240h-94v124h94v301h511z" />
<glyph unicode="&#x4fb;" horiz-adv-x="528" d="M514 520v-168h-206v-50h154v-114h-154v-67h70v-94q0 -104 -63.5 -162.5t-162.5 -58.5q-64 0 -132 26l45 131q26 -11 45 -11q45 0 53 48h-70v188h-84v114h84v218h421z" />
<glyph unicode="&#x4fc;" horiz-adv-x="734" d="M485 665h242l-225 -313q113 -130 164.5 -209.5t51.5 -143.5q0 -93 -66.5 -146t-163.5 -53q-72 0 -138 30l50 152q21 -9 38 -9q35 0 35 37q0 48 -104 167l-112 -177h-253l238 335l-232 330h252l113 -167z" />
<glyph unicode="&#x4fd;" horiz-adv-x="627" d="M398 520h225l-177 -235q47 -52 72 -82.5t52 -70t38 -74.5t11 -72q0 -57 -29 -99t-77 -62.5t-108 -20.5q-67 0 -138 28l51 148q27 -11 48 -11q18 0 28.5 9t10.5 25q0 38 -77 126l-97 -129h-233l197 258l-192 262h243l74 -111z" />
<glyph unicode="&#x4fe;" horiz-adv-x="749" d="M665 283h-109l191 -283h-264l-113 172l-110 -172h-257l196 283h-120v124h112l-174 259h257l96 -157l97 157h260l-177 -259h115v-124z" />
<glyph unicode="&#x4ff;" horiz-adv-x="625" d="M480 201l147 -201h-246l-71 111l-80 -111h-233l154 201h-90v114h90l-148 205h242l74 -111l78 111h225l-154 -205h100v-114h-88z" />
<glyph unicode="&#x510;" horiz-adv-x="638" d="M560 195l66 -151q-133 -59 -278 -59q-91 0 -164.5 23.5t-118 70t-44.5 108.5q0 53 30 94t83 63q-41 22 -63.5 58t-22.5 81q0 60 45 106t117.5 69t159.5 23q128 0 239 -50l-66 -166q-88 43 -176 43q-28 0 -48.5 -5t-32.5 -16.5t-12 -28.5q0 -19 14.5 -29.5t43.5 -10.5h160 v-165h-179q-66 0 -66 -38q0 -29 33.5 -44.5t87.5 -15.5q92 0 192 40z" />
<glyph unicode="&#x511;" horiz-adv-x="553" d="M491 169l54 -141q-109 -40 -243 -40q-79 0 -142.5 18.5t-102.5 58t-39 93.5q0 38 23.5 67.5t64.5 44.5q-34 18 -54 47.5t-20 63.5q0 73 75 111.5t192 38.5q110 0 231 -47l-48 -135q-96 32 -167 32q-67 0 -67 -30q0 -29 46 -29h98v-120h-118q-22 0 -31 -6t-9 -21 q0 -35 74 -35q102 0 183 29z" />
<glyph unicode="&#x512;" horiz-adv-x="766" d="M343 -168l51 149q24 -11 45 -11q11 0 19.5 3t15 9.5t10 16.5t3.5 23v469h-152l-2 -77q-2 -84 -8 -143.5t-21 -116.5t-39 -91t-63.5 -54.5t-93.5 -20.5q-44 0 -95 12l12 180q13 -3 24 -3q19 0 32.5 7.5t22.5 23.5t15.5 34.5t10 47t5 54t3.5 62.5l8 259h562v-646 q0 -71 -33 -121t-83.5 -72.5t-112.5 -22.5q-70 0 -136 29z" />
<glyph unicode="&#x513;" horiz-adv-x="662" d="M107 294l8 226h497v-492q0 -102 -60.5 -162t-169.5 -60q-79 0 -129 26l51 148q23 -12 47 -12q46 0 46 60v324h-99l-3 -67q-2 -60 -8 -104t-19 -82.5t-33.5 -62t-51.5 -37t-73 -13.5q-43 0 -100 14l9 174q15 -2 22 -2q38 0 51 28t15 94z" />
<glyph unicode="&#x51a;" horiz-adv-x="795" d="M712 30l96 -114q-71 -84 -193 -84q-89 0 -155.5 34.5t-155.5 127.5q-126 27 -204 119t-78 219q0 151 106.5 249.5t269 98.5t268.5 -98.5t106 -249.5q0 -109 -58 -193t-156 -124q26 -27 61 -27q50 0 93 42zM397 499q-64 0 -106.5 -45.5t-42.5 -121t42.5 -121t106.5 -45.5 q42 0 75.5 20t53.5 58t20 88q0 76 -42.5 121.5t-106.5 45.5z" />
<glyph unicode="&#x51b;" horiz-adv-x="666" d="M412 477v43h205v-704h-215v219q-46 -45 -132 -45q-106 0 -178.5 74t-72.5 195.5t72.5 195.5t178.5 74q96 0 142 -52zM321 158q37 0 61 26.5t24 74.5q0 33 -11.5 56.5t-30.5 35t-43 11.5q-37 0 -60.5 -27t-23.5 -75.5t23.5 -75t60.5 -26.5z" />
<glyph unicode="&#x51c;" horiz-adv-x="1119" d="M782 293l119 372h212l-212 -665h-236l-103 352l-108 -352h-236l-212 665h231l113 -368l116 368h206z" />
<glyph unicode="&#x51d;" horiz-adv-x="959" d="M669 256l91 264h200l-182 -520h-222l-75 243l-77 -243h-223l-182 520h216l84 -262l91 262h194z" />
<glyph unicode="&#x524;" horiz-adv-x="803" d="M702 665v-491h86v-304h-206v130h-100v491h-203v-491h-220v665h643z" />
<glyph unicode="&#x525;" horiz-adv-x="658" d="M608 520v-352h70v-264h-198v96h-86v352h-130v-352h-214v520h558z" />
<glyph unicode="&#x526;" horiz-adv-x="800" d="M699 200v-26h86v-304h-205v130h-101v176q0 118 -108 118q-56 0 -92 -15v-279h-220v665h220v-213q67 20 121 20q147 0 223 -69t76 -203z" />
<glyph unicode="&#x527;" horiz-adv-x="712" d="M624 296v-128h77v-264h-198v96h-94v259q0 90 -63 90q-36 0 -58.5 -25.5t-22.5 -79.5v-244h-215v705h215v-227q60 51 146 51q46 0 84 -13.5t67.5 -41t45.5 -73t16 -105.5z" />
<glyph unicode="&#x528;" horiz-adv-x="770" d="M-86 -168l51 149q24 -11 45 -11t34.5 13.5t13.5 38.5v643h220v-252h213v252h221v-665h-221v239h-213v-220q0 -71 -32.5 -121t-83 -72.5t-113.5 -22.5q-70 0 -135 29z" />
<glyph unicode="&#x529;" horiz-adv-x="675" d="M411 342v178h214v-520h-214v174h-147v-147q0 -102 -59.5 -161.5t-166.5 -59.5q-82 0 -132 26l51 148q23 -12 49 -12q20 0 32 15t12 45v492h214v-178h147z" />
<glyph unicode="&#x52e;" horiz-adv-x="809" d="M708 665v-491h85v-304h-205v130h-101v491h-152l-2 -77q-2 -84 -8 -143.5t-21 -116.5t-39 -91t-63.5 -54.5t-93.5 -20.5q-44 0 -95 12l12 180q13 -3 24 -3q19 0 32.5 7.5t22.5 23.5t15.5 34.5t10 47t5 54t3.5 62.5l8 259h562z" />
<glyph unicode="&#x52f;" horiz-adv-x="691" d="M611 520v-352h69v-264h-198v96h-86v352h-98l-3 -67q-2 -60 -8 -104t-19 -82.5t-33.5 -62t-51.5 -37t-73 -13.5q-43 0 -100 14l9 174q15 -2 22 -2q38 0 51 28t15 94l8 226h496z" />
<glyph unicode="&#x1e08;" horiz-adv-x="706" d="M423 872h204l-187 -152h-143zM409 166q84 0 146 78l141 -126q-96 -125 -274 -132l-8 -35q42 -6 61.5 -27t19.5 -49q0 -32 -20 -55t-56.5 -35.5t-85.5 -12.5q-56 0 -93 20l27 79q28 -12 57 -12q46 0 46 23q0 19 -39 19h-39l22 91q-129 26 -207.5 118t-78.5 222 q0 153 104.5 250.5t265.5 97.5q196 0 298 -133l-141 -126q-62 78 -146 78q-70 0 -112.5 -45.5t-42.5 -121.5q0 -50 19.5 -87.5t54.5 -58t81 -20.5z" />
<glyph unicode="&#x1e09;" horiz-adv-x="584" d="M333 729h205l-187 -152h-143zM326 158q59 0 90 68l166 -82q-24 -67 -84.5 -107.5t-145.5 -45.5l-10 -40q42 -6 61.5 -27t19.5 -49q0 -48 -44 -75.5t-118 -27.5q-56 0 -93 20l27 79q28 -12 57 -12q45 0 45 23q0 19 -39 19h-39l23 98q-101 22 -161.5 92.5t-60.5 168.5 q0 119 86 194t221 75q94 0 162 -41t93 -113l-166 -81q-31 68 -90 68q-38 0 -63 -26.5t-25 -75.5t25 -75.5t63 -26.5z" />
<glyph unicode="&#x1e0c;" horiz-adv-x="784" d="M382 0h-328v665h328q169 0 272 -90t103 -242.5t-103 -242.5t-272 -90zM278 490v-315h94q72 0 115.5 41.5t43.5 116t-43.5 116t-115.5 41.5h-94zM343 -215q-37 0 -61.5 23t-24.5 60q0 25 11.5 44t31 29.5t43.5 10.5q37 0 61 -23.5t24 -60.5t-24 -60t-61 -23z" />
<glyph unicode="&#x1e0d;" horiz-adv-x="669" d="M408 484v221h214v-705h-204v43q-47 -53 -142 -53q-106 0 -178.5 74.5t-72.5 196t72.5 195t178.5 73.5q86 0 132 -45zM327 158q24 0 43 11t30 35t11 56q0 49 -23.5 75.5t-60.5 26.5t-61 -26.5t-24 -75.5t24 -75.5t61 -26.5zM363 -48q37 0 61 -23.5t24 -60.5t-24 -60 t-61 -23t-61.5 23t-24.5 60q0 25 11.5 44t31 29.5t43.5 10.5z" />
<glyph unicode="&#x1e0e;" horiz-adv-x="784" d="M382 0h-328v665h328q169 0 272 -90t103 -242.5t-103 -242.5t-272 -90zM278 490v-315h94q72 0 115.5 41.5t43.5 116t-43.5 116t-115.5 41.5h-94zM542 -182h-399v112h399v-112z" />
<glyph unicode="&#x1e0f;" horiz-adv-x="669" d="M408 484v221h214v-705h-204v43q-47 -53 -142 -53q-106 0 -178.5 74.5t-72.5 196t72.5 195t178.5 73.5q86 0 132 -45zM327 158q24 0 43 11t30 35t11 56q0 49 -23.5 75.5t-60.5 26.5t-61 -26.5t-24 -75.5t24 -75.5t61 -26.5zM562 -182h-399v112h399v-112z" />
<glyph unicode="&#x1e14;" horiz-adv-x="639" d="M328 1016l97 -123h-143l-158 123h204zM524 728h-399v106h399v-106zM275 256v-87h332v-169h-553v665h541v-169h-320v-78h281v-162h-281z" />
<glyph unicode="&#x1e15;" horiz-adv-x="620" d="M314 874l96 -124h-142l-159 124h205zM510 585h-399v107h399v-107zM600 260q0 -4 -2 -50h-361q23 -61 104 -61q23 0 42 4.5t33.5 12t32.5 21.5l112 -113q-76 -84 -227 -84q-141 0 -227.5 76.5t-86.5 193.5q0 118 84 193.5t210 75.5q79 0 143 -30t103.5 -92t39.5 -147z M316 383q-33 0 -55 -18.5t-28 -50.5h167q-6 32 -28.5 50.5t-55.5 18.5z" />
<glyph unicode="&#x1e16;" horiz-adv-x="639" d="M322 1016h204l-158 -123h-143zM125 834h399v-106h-399v106zM275 256v-87h332v-169h-553v665h541v-169h-320v-78h281v-162h-281z" />
<glyph unicode="&#x1e17;" horiz-adv-x="620" d="M308 874h204l-159 -124h-142zM111 692h399v-107h-399v107zM600 260q0 -4 -2 -50h-361q23 -61 104 -61q23 0 42 4.5t33.5 12t32.5 21.5l112 -113q-76 -84 -227 -84q-141 0 -227.5 76.5t-86.5 193.5q0 118 84 193.5t210 75.5q79 0 143 -30t103.5 -92t39.5 -147zM316 383 q-33 0 -55 -18.5t-28 -50.5h167q-6 32 -28.5 50.5t-55.5 18.5z" />
<glyph unicode="&#x1e1c;" horiz-adv-x="639" d="M325 710q-86 0 -140.5 43.5t-58.5 117.5h129q2 -26 21.5 -42t48.5 -16t48.5 16t21.5 42h128q-3 -74 -57.5 -117.5t-140.5 -43.5zM607 169v-169h-229l-11 -49q41 -6 60.5 -27t19.5 -49q0 -32 -20 -55t-56.5 -35.5t-84.5 -12.5q-57 0 -93 20l26 79q29 -12 57 -12 q46 0 46 23q0 19 -39 19h-39l24 99h-214v665h541v-169h-320v-78h281v-162h-281v-87h332z" />
<glyph unicode="&#x1e1d;" horiz-adv-x="620" d="M310.5 567q-86.5 0 -140.5 43.5t-58 118.5h128q2 -27 21.5 -42.5t49 -15.5t49 15.5t21.5 42.5h128q-3 -75 -57.5 -118.5t-141 -43.5zM600 260q0 -4 -2 -50h-361q23 -61 104 -61q23 0 42 4.5t33.5 12t32.5 21.5l112 -113q-34 -38 -83 -58.5t-116 -24.5l-10 -40 q42 -6 61.5 -27t19.5 -49q0 -32 -20 -55t-56.5 -35.5t-84.5 -12.5q-57 0 -93 20l26 79q29 -12 57 -12q46 0 46 23q0 19 -39 19h-39l23 97q-107 21 -170 92t-63 170q0 118 84 193.5t210 75.5q79 0 143 -30t103.5 -92t39.5 -147zM316 383q-33 0 -55 -18.5t-28 -50.5h167 q-6 32 -28.5 50.5t-55.5 18.5z" />
<glyph unicode="&#x1e20;" horiz-adv-x="730" d="M203 852h399v-112h-399v112zM494 182v169h195v-282q-59 -40 -137 -62t-153 -22q-162 0 -266.5 97.5t-104.5 249.5q0 153 105.5 250.5t270.5 97.5q199 0 304 -128l-144 -126q-63 73 -149 73q-74 0 -117.5 -45t-43.5 -122q0 -49 19.5 -86.5t55.5 -58.5t83 -21q43 0 82 16z " />
<glyph unicode="&#x1e21;" horiz-adv-x="675" d="M138 709h399v-112h-399v112zM424 461v59h204v-416q0 -149 -82.5 -223.5t-233.5 -74.5q-163 0 -261 65l73 146q30 -23 76.5 -37t89.5 -14q64 0 93.5 27.5t29.5 80.5v10q-48 -56 -143 -56q-103 0 -176.5 70t-73.5 181.5t73.5 180.5t176.5 69q106 0 154 -68zM326.5 196 q38.5 0 63.5 23t25 60t-25 60t-63.5 23t-63.5 -23t-25 -60t25 -60t63.5 -23z" />
<glyph unicode="&#x1e24;" horiz-adv-x="763" d="M485 429v236h225v-665h-225v245h-207v-245h-224v665h224v-236h207zM382 -48q37 0 61 -23.5t24 -60.5t-24 -60t-61 -23t-61.5 23t-24.5 60q0 25 11.5 44t31 29.5t43.5 10.5z" />
<glyph unicode="&#x1e25;" horiz-adv-x="666" d="M408 529q96 0 154.5 -58t58.5 -175v-296h-214v259q0 90 -64 90q-36 0 -58.5 -25.5t-22.5 -79.5v-244h-214v705h214v-227q60 51 146 51zM337 -48q37 0 61.5 -23.5t24.5 -60.5t-24.5 -60t-61.5 -23t-61 23t-24 60q0 25 11 44t30.5 29.5t43.5 10.5z" />
<glyph unicode="&#x1e2a;" horiz-adv-x="763" d="M485 429v236h225v-665h-225v245h-207v-245h-224v665h224v-236h207zM381.5 -118q32.5 0 54 15t24.5 39h120q-4 -67 -58.5 -108.5t-139.5 -41.5q-57 0 -101 18.5t-69.5 53t-28.5 78.5h121q3 -24 24 -39t53.5 -15z" />
<glyph unicode="&#x1e2b;" horiz-adv-x="666" d="M408 529q96 0 154.5 -58t58.5 -175v-296h-214v259q0 90 -64 90q-36 0 -58.5 -25.5t-22.5 -79.5v-244h-214v705h214v-227q60 51 146 51zM337.5 -118q32.5 0 53.5 15t24 39h121q-4 -67 -58.5 -108.5t-140 -41.5t-140 41.5t-58.5 108.5h120q3 -24 24.5 -39t54 -15z" />
<glyph unicode="&#x1e2e;" horiz-adv-x="332" d="M209 892h-143l97 124h205zM65.5 711q-34.5 0 -57.5 21.5t-23 57t23 57.5t57.5 22t57.5 -22t23 -57.5t-23 -57t-57.5 -21.5zM267 711q-23 0 -41 9.5t-29 27.5t-11 41q0 36 23 58t58 22t58 -22t23 -57.5t-23 -57t-58 -21.5zM278 0h-224v665h224v-665z" />
<glyph unicode="&#x1e2f;" horiz-adv-x="309" d="M198 750h-143l97 124h204zM54 569q-23 0 -41 9.5t-29 28t-11 41.5q0 35 23.5 57.5t58 22.5t57.5 -22.5t23 -57.5t-23 -57t-58 -22zM256 569q-17 0 -32 5.5t-26 16t-17 25t-6 32.5q0 35 23 57.5t57.5 22.5t57.5 -22.5t23 -57.5t-23 -57t-57 -22zM262 0h-214v520h214v-520z " />
<glyph unicode="&#x1e36;" horiz-adv-x="586" d="M579 0h-525v665h224v-491h301v-174zM328 -215q-37 0 -61.5 23t-24.5 60q0 25 11.5 44t31 29.5t43.5 10.5q37 0 61 -23.5t24 -60.5t-24 -60t-61 -23z" />
<glyph unicode="&#x1e37;" horiz-adv-x="309" d="M262 0h-214v705h214v-705zM155 -215q-37 0 -61.5 23t-24.5 60t24.5 60.5t61.5 23.5t61 -23.5t24 -60.5t-24 -60t-61 -23z" />
<glyph unicode="&#x1e3a;" horiz-adv-x="586" d="M579 0h-525v665h224v-491h301v-174zM527 -182h-399v112h399v-112z" />
<glyph unicode="&#x1e3b;" horiz-adv-x="309" d="M262 0h-214v705h214v-705zM354 -182h-399v112h399v-112z" />
<glyph unicode="&#x1e42;" horiz-adv-x="906" d="M850 665l2 -665h-204l-2 303l-144 -243h-99l-145 233v-293h-204v665h184l217 -354l211 354h184zM452 -48q37 0 61.5 -23.5t24.5 -60.5t-24.5 -60t-61.5 -23t-61 23t-24 60q0 25 11 44t30.5 29.5t43.5 10.5z" />
<glyph unicode="&#x1e43;" horiz-adv-x="988" d="M735 529q94 0 150.5 -57.5t56.5 -175.5v-296h-214v259q0 90 -58 90q-31 0 -49.5 -23t-18.5 -72v-254h-214v259q0 90 -58 90q-31 0 -49.5 -23t-18.5 -72v-254h-214v520h204v-49q58 58 147 58q110 0 162 -79q66 79 174 79zM493 -48q37 0 61.5 -23.5t24.5 -60.5t-24.5 -60 t-61.5 -23t-61 23t-24 60t24 60.5t61 23.5z" />
<glyph unicode="&#x1e44;" horiz-adv-x="763" d="M382 710q-48 0 -78 30t-30 78q0 31 13.5 56t38 38.5t56.5 13.5q48 0 78 -30t30 -78t-30 -78t-78 -30zM491 363v302h219v-665h-185l-252 302v-302h-219v665h184z" />
<glyph unicode="&#x1e45;" horiz-adv-x="666" d="M337.5 567q-47.5 0 -78 30.5t-30.5 78t30.5 78t78 30.5t78 -30.5t30.5 -78t-30.5 -78t-78 -30.5zM408 529q96 0 154.5 -58t58.5 -175v-296h-214v259q0 90 -64 90q-36 0 -58.5 -25.5t-22.5 -79.5v-244h-214v520h204v-52q61 61 156 61z" />
<glyph unicode="&#x1e46;" horiz-adv-x="763" d="M491 363v302h219v-665h-185l-252 302v-302h-219v665h184zM382 -48q37 0 61 -23.5t24 -60.5t-24 -60t-61 -23t-61.5 23t-24.5 60q0 25 11.5 44t31 29.5t43.5 10.5z" />
<glyph unicode="&#x1e47;" horiz-adv-x="666" d="M408 529q96 0 154.5 -58t58.5 -175v-296h-214v259q0 90 -64 90q-36 0 -58.5 -25.5t-22.5 -79.5v-244h-214v520h204v-52q61 61 156 61zM337 -48q37 0 61.5 -23.5t24.5 -60.5t-24.5 -60t-61.5 -23t-61 23t-24 60q0 25 11 44t30.5 29.5t43.5 10.5z" />
<glyph unicode="&#x1e48;" horiz-adv-x="763" d="M491 363v302h219v-665h-185l-252 302v-302h-219v665h184zM581 -182h-399v112h399v-112z" />
<glyph unicode="&#x1e49;" horiz-adv-x="666" d="M408 529q96 0 154.5 -58t58.5 -175v-296h-214v259q0 90 -64 90q-36 0 -58.5 -25.5t-22.5 -79.5v-244h-214v520h204v-52q61 61 156 61zM537 -182h-399v112h399v-112z" />
<glyph unicode="&#x1e4a;" horiz-adv-x="763" d="M491 363v302h219v-665h-185l-252 302v-302h-219v665h184zM168 -200l122 152h182l122 -152h-133l-80 73l-80 -73h-133z" />
<glyph unicode="&#x1e4b;" horiz-adv-x="666" d="M408 529q96 0 154.5 -58t58.5 -175v-296h-214v259q0 90 -64 90q-36 0 -58.5 -25.5t-22.5 -79.5v-244h-214v520h204v-52q61 61 156 61zM118 -200l121 152h183l121 -152h-133l-79 73l-80 -73h-133z" />
<glyph unicode="&#x1e4c;" horiz-adv-x="805" d="M446 893h-143l97 123h204zM475 710q-30 0 -57 11.5t-45.5 23.5t-28.5 12q-16 0 -27.5 -11t-12.5 -28h-104q0 68 34.5 105t96.5 37q29 0 56.5 -12t46.5 -24t30 -12q17 0 28 11.5t12 27.5h102q0 -66 -34 -103.5t-97 -37.5zM402.5 -15q-162.5 0 -268.5 98.5t-106 249 t106 249t268.5 98.5t269 -98.5t106.5 -249t-106.5 -249t-269 -98.5zM403 166q41 0 75 20t54 58t20 88q0 76 -42.5 121.5t-106.5 45.5t-106.5 -45.5t-42.5 -121t42.5 -121t106.5 -45.5z" />
<glyph unicode="&#x1e4d;" horiz-adv-x="644" d="M362 750h-143l97 124h205zM391 567q-29 0 -56 12t-46 24t-29 12q-16 0 -27 -11t-13 -28h-104q0 67 34.5 104t96.5 37q30 0 57 -11.5t46.5 -23.5t29.5 -12q17 0 28 11t13 28h101q0 -44 -14.5 -75.5t-44 -49t-72.5 -17.5zM322 -10q-132 0 -217 76t-85 194t85 193.5 t217 75.5q133 0 217.5 -75.5t84.5 -193.5t-84.5 -194t-217.5 -76zM322 158q24 0 43 11t30.5 35t11.5 56q0 49 -24 75.5t-61 26.5t-60.5 -26.5t-23.5 -75.5t23.5 -75.5t60.5 -26.5z" />
<glyph unicode="&#x1e4e;" horiz-adv-x="805" d="M302 885q-35 0 -58 22t-23 57q0 24 11 42t29 28t41 10q35 0 58 -22.5t23 -57.5t-23 -57t-58 -22zM503.5 885q-34.5 0 -57.5 22t-23 57q0 24 10.5 42t29 28t41.5 10q34 0 57 -22.5t23 -57.5t-23 -57t-57.5 -22zM475 710q-30 0 -57 11.5t-45.5 23.5t-28.5 12 q-16 0 -27.5 -11t-12.5 -28h-104q0 68 34.5 105t96.5 37q29 0 56.5 -12t46.5 -24t30 -12q17 0 28 11.5t12 27.5h102q0 -66 -34 -103.5t-97 -37.5zM402.5 -15q-162.5 0 -268.5 98.5t-106 249t106 249t268.5 98.5t269 -98.5t106.5 -249t-106.5 -249t-269 -98.5zM403 166 q41 0 75 20t54 58t20 88q0 76 -42.5 121.5t-106.5 45.5t-106.5 -45.5t-42.5 -121t42.5 -121t106.5 -45.5z" />
<glyph unicode="&#x1e4f;" horiz-adv-x="644" d="M218.5 743q-34.5 0 -57.5 22t-23 57t23 57.5t57.5 22.5t57.5 -22.5t23 -57.5t-23 -57t-57.5 -22zM420 743q-35 0 -58 22t-23 57t23 57.5t58 22.5t58 -22.5t23 -57.5t-23 -57t-58 -22zM391 567q-29 0 -56 12t-46 24t-29 12q-16 0 -27 -11t-13 -28h-104q0 67 34.5 104 t96.5 37q30 0 57 -11.5t46.5 -23.5t29.5 -12q17 0 28 11t13 28h101q0 -44 -14.5 -75.5t-44 -49t-72.5 -17.5zM322 -10q-132 0 -217 76t-85 194t85 193.5t217 75.5q133 0 217.5 -75.5t84.5 -193.5t-84.5 -194t-217.5 -76zM322 158q24 0 43 11t30.5 35t11.5 56q0 49 -24 75.5 t-61 26.5t-60.5 -26.5t-23.5 -75.5t23.5 -75.5t60.5 -26.5z" />
<glyph unicode="&#x1e50;" horiz-adv-x="805" d="M503 893h-143l-159 123h205zM602 728h-399v106h399v-106zM402.5 -15q-162.5 0 -268.5 98.5t-106 249t106 249t268.5 98.5t269 -98.5t106.5 -249t-106.5 -249t-269 -98.5zM403 166q41 0 75 20t54 58t20 88q0 76 -42.5 121.5t-106.5 45.5t-106.5 -45.5t-42.5 -121 t42.5 -121t106.5 -45.5z" />
<glyph unicode="&#x1e51;" horiz-adv-x="644" d="M419 750h-143l-158 124h204zM519 585h-399v107h399v-107zM322 -10q-132 0 -217 76t-85 194t85 193.5t217 75.5q133 0 217.5 -75.5t84.5 -193.5t-84.5 -194t-217.5 -76zM322 158q24 0 43 11t30.5 35t11.5 56q0 49 -24 75.5t-61 26.5t-60.5 -26.5t-23.5 -75.5t23.5 -75.5 t60.5 -26.5z" />
<glyph unicode="&#x1e52;" horiz-adv-x="805" d="M446 893h-143l97 123h204zM602 728h-399v106h399v-106zM402.5 -15q-162.5 0 -268.5 98.5t-106 249t106 249t268.5 98.5t269 -98.5t106.5 -249t-106.5 -249t-269 -98.5zM403 166q41 0 75 20t54 58t20 88q0 76 -42.5 121.5t-106.5 45.5t-106.5 -45.5t-42.5 -121t42.5 -121 t106.5 -45.5z" />
<glyph unicode="&#x1e53;" horiz-adv-x="644" d="M362 750h-143l97 124h205zM519 585h-399v107h399v-107zM322 -10q-132 0 -217 76t-85 194t85 193.5t217 75.5q133 0 217.5 -75.5t84.5 -193.5t-84.5 -194t-217.5 -76zM322 158q24 0 43 11t30.5 35t11.5 56q0 49 -24 75.5t-61 26.5t-60.5 -26.5t-23.5 -75.5t23.5 -75.5 t60.5 -26.5z" />
<glyph unicode="&#x1e5a;" horiz-adv-x="707" d="M552 205l140 -205h-240l-113 167h-61v-167h-224v665h320q139 0 221 -67.5t82 -183.5q0 -71 -32.5 -124.5t-92.5 -84.5zM451 414q0 37 -23 57.5t-68 20.5h-82v-156h82q45 0 68 20.5t23 57.5zM360 -48q37 0 61.5 -23.5t24.5 -60.5t-24.5 -60t-61.5 -23t-61 23t-24 60 t24 60.5t61 23.5z" />
<glyph unicode="&#x1e5b;" horiz-adv-x="433" d="M252 520v-56q57 65 168 65v-190q-25 4 -48 4q-110 0 -110 -112v-231h-214v520h204zM155 -48q37 0 61 -23.5t24 -60.5t-24 -60t-61 -23t-61.5 23t-24.5 60t24.5 60.5t61.5 23.5z" />
<glyph unicode="&#x1e5e;" horiz-adv-x="707" d="M339 167h-61v-167h-224v665h320q139 0 221 -67.5t82 -183.5q0 -71 -32.5 -124.5t-92.5 -84.5l140 -205h-240zM451 414q0 37 -23 57.5t-68 20.5h-82v-156h82q45 0 68 20.5t23 57.5zM560 -182h-399v112h399v-112z" />
<glyph unicode="&#x1e5f;" horiz-adv-x="433" d="M252 520v-56q57 65 168 65v-190q-25 4 -48 4q-110 0 -110 -112v-231h-214v520h204zM354 -182h-399v112h399v-112z" />
<glyph unicode="&#x1e60;" horiz-adv-x="624" d="M312.5 710q-47.5 0 -78 30t-30.5 78t30.5 78t78 30t78 -30t30.5 -78t-30.5 -78t-78 -30zM302 -15q-82 0 -160.5 18.5t-129.5 49.5l73 164q47 -28 106 -44.5t113 -16.5q86 0 86 36q0 15 -15.5 25.5t-41.5 16t-59 13.5t-67.5 15.5t-67.5 23t-59 36t-41.5 55.5t-15.5 79 q0 97 80.5 160.5t228.5 63.5t251 -58l-67 -162q-98 49 -185 49t-87 -42q0 -15 20.5 -25.5t53 -17.5t71.5 -14.5t78 -21.5t71.5 -34.5t53 -57.5t20.5 -87q0 -96 -81 -160t-229 -64z" />
<glyph unicode="&#x1e61;" horiz-adv-x="536" d="M262 567q-48 0 -78 30.5t-30 78t30 78t78 30.5t78 -30.5t30 -78t-30 -78t-78 -30.5zM251 -10q-67 0 -131.5 14.5t-104.5 37.5l59 141q24 -14 55 -24.5t63.5 -16t63.5 -5.5q66 0 66 25q0 10 -16.5 15.5t-43 8.5t-58.5 7t-63.5 13.5t-58 25.5t-43 46.5t-16.5 73.5 q0 76 70 126.5t196 50.5q129 0 212 -43l-59 -141q-69 38 -150 38q-71 0 -71 -25q0 -12 22.5 -18.5t55.5 -8.5t71.5 -11t71.5 -23.5t55.5 -48t22.5 -82.5q0 -75 -70 -125.5t-199 -50.5z" />
<glyph unicode="&#x1e62;" horiz-adv-x="624" d="M302 -15q-82 0 -160.5 18.5t-129.5 49.5l73 164q47 -28 106 -44.5t113 -16.5q86 0 86 36q0 15 -15.5 25.5t-41.5 16t-59 13.5t-67.5 15.5t-67.5 23t-59 36t-41.5 55.5t-15.5 79q0 97 80.5 160.5t228.5 63.5t251 -58l-67 -162q-98 49 -185 49t-87 -42q0 -15 20.5 -25.5 t53 -17.5t71.5 -14.5t78 -21.5t71.5 -34.5t53 -57.5t20.5 -87q0 -96 -81 -160t-229 -64zM312.5 -215q-24.5 0 -43.5 10t-30.5 29t-11.5 44q0 37 24.5 60.5t61 23.5t61 -23.5t24.5 -60.5q0 -25 -11 -44t-30.5 -29t-44 -10z" />
<glyph unicode="&#x1e63;" horiz-adv-x="536" d="M251 -10q-67 0 -131.5 14.5t-104.5 37.5l59 141q24 -14 55 -24.5t63.5 -16t63.5 -5.5q66 0 66 25q0 10 -16.5 15.5t-43 8.5t-58.5 7t-63.5 13.5t-58 25.5t-43 46.5t-16.5 73.5q0 76 70 126.5t196 50.5q129 0 212 -43l-59 -141q-69 38 -150 38q-71 0 -71 -25 q0 -12 22.5 -18.5t55.5 -8.5t71.5 -11t71.5 -23.5t55.5 -48t22.5 -82.5q0 -75 -70 -125.5t-199 -50.5zM262 -215q-37 0 -61 23t-24 60t24 60.5t61 23.5t61.5 -23.5t24.5 -60.5t-24.5 -60t-61.5 -23z" />
<glyph unicode="&#x1e64;" horiz-adv-x="624" d="M312.5 884q-24.5 0 -43.5 10t-30.5 29t-11.5 43.5t11.5 44t30.5 30t44 10.5q36 0 60.5 -24t24.5 -61q0 -24 -11 -43t-30.5 -29t-44 -10zM355 719h-142l97 124h204zM302 -15q-82 0 -160.5 18.5t-129.5 49.5l73 164q47 -28 106 -44.5t113 -16.5q86 0 86 36q0 15 -15.5 25.5 t-41.5 16t-59 13.5t-67.5 15.5t-67.5 23t-59 36t-41.5 55.5t-15.5 79q0 97 80.5 160.5t228.5 63.5t251 -58l-67 -162q-98 49 -185 49t-87 -42q0 -15 20.5 -25.5t53 -17.5t71.5 -14.5t78 -21.5t71.5 -34.5t53 -57.5t20.5 -87q0 -96 -81 -160t-229 -64z" />
<glyph unicode="&#x1e65;" horiz-adv-x="536" d="M262 741q-37 0 -61 23t-24 60t24 60.5t61 23.5t61.5 -23.5t24.5 -60.5t-24.5 -60t-61.5 -23zM305 577h-143l97 123h205zM251 -10q-67 0 -131.5 14.5t-104.5 37.5l59 141q24 -14 55 -24.5t63.5 -16t63.5 -5.5q66 0 66 25q0 10 -16.5 15.5t-43 8.5t-58.5 7t-63.5 13.5 t-58 25.5t-43 46.5t-16.5 73.5q0 76 70 126.5t196 50.5q129 0 212 -43l-59 -141q-69 38 -150 38q-71 0 -71 -25q0 -12 22.5 -18.5t55.5 -8.5t71.5 -11t71.5 -23.5t55.5 -48t22.5 -82.5q0 -75 -70 -125.5t-199 -50.5z" />
<glyph unicode="&#x1e66;" horiz-adv-x="624" d="M313 862q-37 0 -61.5 22.5t-24.5 60t24.5 61t61.5 23.5q24 0 43.5 -10.5t30.5 -30t11 -44.5q0 -37 -24 -59.5t-61 -22.5zM525 843l-122 -124h-181l-122 124h133l80 -58l79 58h133zM244 467q0 -15 20.5 -25.5t53 -17.5t71.5 -14.5t78 -21.5t71.5 -34.5t53 -57.5t20.5 -87 q0 -96 -81 -160t-229 -64q-82 0 -160.5 18.5t-129.5 49.5l73 164q47 -28 106 -44.5t113 -16.5q86 0 86 36q0 15 -15.5 25.5t-41.5 16t-59 13.5t-67.5 15.5t-67.5 23t-59 36t-41.5 55.5t-15.5 79q0 97 80.5 160.5t228.5 63.5t251 -58l-67 -162q-98 49 -185 49t-87 -42z" />
<glyph unicode="&#x1e67;" horiz-adv-x="536" d="M262 719q-37 0 -61 23t-24 60t24 60.5t61 23.5q24 0 43.5 -10.5t31 -30t11.5 -43.5q0 -37 -24.5 -60t-61.5 -23zM475 700l-123 -123h-180l-123 123h133l80 -58l80 58h133zM221 358q0 -12 22.5 -18.5t55.5 -8.5t71.5 -11t71.5 -23.5t55.5 -48t22.5 -82.5q0 -75 -70 -125.5 t-199 -50.5q-67 0 -131.5 14.5t-104.5 37.5l59 141q24 -14 55 -24.5t63.5 -16t63.5 -5.5q66 0 66 25q0 10 -16.5 15.5t-43 8.5t-58.5 7t-63.5 13.5t-58 25.5t-43 46.5t-16.5 73.5q0 76 70 126.5t196 50.5q129 0 212 -43l-59 -141q-69 38 -150 38q-71 0 -71 -25z" />
<glyph unicode="&#x1e68;" horiz-adv-x="624" d="M312.5 710q-47.5 0 -78 30t-30.5 78t30.5 78t78 30t78 -30t30.5 -78t-30.5 -78t-78 -30zM302 -15q-82 0 -160.5 18.5t-129.5 49.5l73 164q47 -28 106 -44.5t113 -16.5q86 0 86 36q0 15 -15.5 25.5t-41.5 16t-59 13.5t-67.5 15.5t-67.5 23t-59 36t-41.5 55.5t-15.5 79 q0 97 80.5 160.5t228.5 63.5t251 -58l-67 -162q-98 49 -185 49t-87 -42q0 -15 20.5 -25.5t53 -17.5t71.5 -14.5t78 -21.5t71.5 -34.5t53 -57.5t20.5 -87q0 -96 -81 -160t-229 -64zM312.5 -215q-24.5 0 -43.5 10t-30.5 29t-11.5 44q0 37 24.5 60.5t61 23.5t61 -23.5 t24.5 -60.5q0 -25 -11 -44t-30.5 -29t-44 -10z" />
<glyph unicode="&#x1e69;" horiz-adv-x="536" d="M262 567q-48 0 -78 30.5t-30 78t30 78t78 30.5t78 -30.5t30 -78t-30 -78t-78 -30.5zM251 -10q-67 0 -131.5 14.5t-104.5 37.5l59 141q24 -14 55 -24.5t63.5 -16t63.5 -5.5q66 0 66 25q0 10 -16.5 15.5t-43 8.5t-58.5 7t-63.5 13.5t-58 25.5t-43 46.5t-16.5 73.5 q0 76 70 126.5t196 50.5q129 0 212 -43l-59 -141q-69 38 -150 38q-71 0 -71 -25q0 -12 22.5 -18.5t55.5 -8.5t71.5 -11t71.5 -23.5t55.5 -48t22.5 -82.5q0 -75 -70 -125.5t-199 -50.5zM262 -215q-37 0 -61 23t-24 60t24 60.5t61 23.5t61.5 -23.5t24.5 -60.5t-24.5 -60 t-61.5 -23z" />
<glyph unicode="&#x1e6c;" horiz-adv-x="621" d="M423 0h-224v491h-195v174h614v-174h-195v-491zM311 -215q-37 0 -61.5 23t-24.5 60q0 25 11.5 44t31 29.5t43.5 10.5q36 0 60.5 -23.5t24.5 -60.5t-24 -60t-61 -23z" />
<glyph unicode="&#x1e6d;" horiz-adv-x="437" d="M379 167l51 -149q-48 -28 -132 -28q-109 0 -168 53t-59 158v133h-71v157h71v145h215v-145h106v-157h-106v-131q0 -23 12.5 -36.5t32.5 -13.5q27 0 48 14zM260.5 -48q36.5 0 61 -23.5t24.5 -60.5q0 -25 -11.5 -44t-31 -29t-43.5 -10q-37 0 -61 23t-24 60t24.5 60.5 t61 23.5z" />
<glyph unicode="&#x1e6e;" horiz-adv-x="621" d="M423 0h-224v491h-195v174h614v-174h-195v-491zM510 -182h-399v112h399v-112z" />
<glyph unicode="&#x1e6f;" horiz-adv-x="437" d="M71 201v133h-71v157h71v145h215v-145h106v-157h-106v-131q0 -23 12.5 -36.5t32.5 -13.5q27 0 48 14l51 -149q-48 -28 -132 -28q-109 0 -168 53t-59 158zM61 -182v112h399v-112h-399z" />
<glyph unicode="&#x1e78;" horiz-adv-x="744" d="M417 893h-142l96 123h205zM446 710q-29 0 -56 11.5t-46 23.5t-29 12q-16 0 -27 -11t-12 -28h-105q0 68 34.5 105t96.5 37q30 0 57 -12t46.5 -24t29.5 -12q17 0 28 11.5t13 27.5h102q0 -66 -34 -103.5t-98 -37.5zM372.5 -15q-153.5 0 -239 82.5t-85.5 231.5v366h225v-359 q0 -140 101.5 -140t101.5 140v359h220v-366q0 -149 -85 -231.5t-238.5 -82.5z" />
<glyph unicode="&#x1e79;" horiz-adv-x="663" d="M328 874h204l-159 -124h-142zM272 615q-17 0 -28 -11t-12 -28h-105q0 67 35 104t96 37q30 0 57 -11.5t46.5 -23.5t29.5 -12q12 0 21 5.5t14 14t6 19.5h102q0 -67 -34 -104.5t-97 -37.5q-23 0 -45.5 7.5t-36 16.5t-27.5 16.5t-22 7.5zM401 276v244h215v-520h-205v49 q-57 -59 -147 -59q-99 0 -158.5 60.5t-59.5 182.5v287h214v-250q0 -53 17.5 -76t50.5 -23q31 0 52 25.5t21 79.5z" />
<glyph unicode="&#x1e7a;" horiz-adv-x="744" d="M273.5 885q-34.5 0 -57.5 22t-23 57t23 57.5t57.5 22.5t57.5 -22.5t23 -57.5t-23 -57t-57.5 -22zM475 885q-35 0 -58 22t-23 57q0 24 11 42t29 28t41 10q35 0 58 -22.5t23 -57.5t-23 -57t-58 -22zM574 728h-399v106h399v-106zM372.5 -15q-153.5 0 -239 82.5t-85.5 231.5 v366h225v-359q0 -140 101.5 -140t101.5 140v359h220v-366q0 -149 -85 -231.5t-238.5 -82.5z" />
<glyph unicode="&#x1e7b;" horiz-adv-x="663" d="M230 743q-35 0 -58 22t-23 57t23 57.5t58 22.5t58 -22.5t23 -57.5q0 -24 -11 -42t-29 -27.5t-41 -9.5zM431.5 743q-34.5 0 -57.5 22t-23 57q0 17 6 32t17 25.5t25.5 16.5t31.5 6q35 0 58 -22.5t23 -57.5t-23 -57t-57.5 -22zM131 692h399v-107h-399v107zM401 276v244h215 v-520h-205v49q-57 -59 -147 -59q-99 0 -158.5 60.5t-59.5 182.5v287h214v-250q0 -53 17.5 -76t50.5 -23q31 0 52 25.5t21 79.5z" />
<glyph unicode="&#x1e80;" horiz-adv-x="1145" d="M547 871l126 -152h-143l-187 152h204zM801 282l122 383h213l-213 -665h-240l-107 355l-113 -355h-241l-212 665h230l116 -378l123 378h206z" />
<glyph unicode="&#x1e81;" horiz-adv-x="928" d="M439 729l125 -152h-142l-187 152h204zM653 242l93 278h188l-181 -520h-209l-78 240l-82 -240h-209l-181 520h204l89 -275l93 275h182z" />
<glyph unicode="&#x1e82;" horiz-adv-x="1145" d="M598 871h205l-187 -152h-143zM801 282l122 383h213l-213 -665h-240l-107 355l-113 -355h-241l-212 665h230l116 -378l123 378h206z" />
<glyph unicode="&#x1e83;" horiz-adv-x="928" d="M490 729h204l-187 -152h-142zM653 242l93 278h188l-181 -520h-209l-78 240l-82 -240h-209l-181 520h204l89 -275l93 275h182z" />
<glyph unicode="&#x1e84;" horiz-adv-x="1145" d="M467 712q-36 0 -60.5 23t-24.5 60q0 25 11 44.5t30.5 30t43.5 10.5t43.5 -10.5t31 -30t11.5 -44.5t-11.5 -44t-30.5 -29t-44 -10zM678 712q-37 0 -61 23t-24 60t24.5 61t61 24t61 -24t24.5 -61q0 -25 -11.5 -44t-31 -29t-43.5 -10zM801 282l122 383h213l-213 -665h-240 l-107 355l-113 -355h-241l-212 665h230l116 -378l123 378h206z" />
<glyph unicode="&#x1e85;" horiz-adv-x="928" d="M359 569q-37 0 -61 23t-24 60.5t24 61t61 23.5t61.5 -23.5t24.5 -60.5q0 -25 -11.5 -44t-31 -29.5t-43.5 -10.5zM570 569q-37 0 -61.5 23t-24.5 60.5t24.5 61t61.5 23.5t61.5 -23.5t24.5 -60.5q0 -25 -11.5 -44t-31 -29.5t-43.5 -10.5zM653 242l93 278h188l-181 -520 h-209l-78 240l-82 -240h-209l-181 520h204l89 -275l93 275h182z" />
<glyph unicode="&#x1e8e;" horiz-adv-x="674" d="M337.5 710q-47.5 0 -78 30t-30.5 78t30.5 78t78 30t78 -30t30.5 -78t-30.5 -78t-78 -30zM484 665h216l-251 -424v-241h-224v244l-251 421h237l136 -230z" />
<glyph unicode="&#x1e8f;" horiz-adv-x="611" d="M297.5 567q-47.5 0 -78 30.5t-30.5 78t30.5 78t78 30.5t78 -30.5t30.5 -78t-30.5 -78t-78 -30.5zM314 241l109 279h203l-214 -530q-40 -102 -101 -143t-149 -41q-44 0 -88 13t-70 34l71 147q36 -28 76 -28q35 0 53 21l-218 527h220z" />
<glyph unicode="&#x1e92;" horiz-adv-x="652" d="M626 527l-304 -353h319v-174h-611v138l304 353h-294v174h586v-138zM336 -48q37 0 61.5 -23.5t24.5 -60.5t-24.5 -60t-61.5 -23t-61 23t-24 60q0 25 11 44t30.5 29.5t43.5 10.5z" />
<glyph unicode="&#x1e93;" horiz-adv-x="541" d="M514 396l-215 -239h225v-157h-496v124l215 239h-207v157h478v-124zM275.5 -48q36.5 0 61 -23.5t24.5 -60.5q0 -25 -11.5 -44t-30.5 -29t-43 -10q-37 0 -61.5 23t-24.5 60t24.5 60.5t61 23.5z" />
<glyph unicode="&#x1e97;" horiz-adv-x="437" d="M73 686q-37 0 -61 23t-24 60.5t24 61t61 23.5q24 0 43.5 -10.5t31 -30t11.5 -43.5q0 -38 -24.5 -61t-61.5 -23zM284 686q-37 0 -61 23t-24 60.5t24 61t61 23.5t61.5 -23.5t24.5 -61t-24.5 -60.5t-61.5 -23zM379 167l51 -149q-48 -28 -132 -28q-109 0 -168 53t-59 158v133 h-71v157h71v145h215v-145h106v-157h-106v-131q0 -23 12.5 -36.5t32.5 -13.5q27 0 48 14z" />
<glyph unicode="&#x1e9e;" horiz-adv-x="758" d="M663 489l-78 -91q67 -24 107.5 -75t40.5 -123q0 -98 -75.5 -156.5t-188.5 -58.5q-89 0 -149 22l31 167q39 -18 80 -18q76 0 76 54t-73 54q-32 0 -59 -9l-38 90l136 159q-28 5 -61 5q-69 0 -104 -40t-35 -114v-355h-225v360q0 149 94.5 234.5t266.5 85.5q66 0 137 -17 t117 -45v-129z" />
<glyph unicode="&#x1ea0;" horiz-adv-x="765" d="M493 665l291 -665h-232l-45 116h-252l-45 -116h-228l291 665h220zM381 445l-65 -168h130zM383 -48q37 0 61 -23.5t24 -60.5q0 -25 -11 -44t-30.5 -29t-43.5 -10q-37 0 -61.5 23t-24.5 60t24.5 60.5t61.5 23.5z" />
<glyph unicode="&#x1ea1;" horiz-adv-x="607" d="M280 529q281 0 281 -250v-279h-199v68q-37 -78 -147 -78q-92 0 -142.5 46t-50.5 116q0 157 237 157h87q-10 61 -98 61q-35 0 -71.5 -11t-61.5 -30l-68 141q29 19 69 32.5t82 20t82 6.5zM279 120q51 0 68 49v36h-53q-66 0 -66 -43q0 -19 14 -30.5t37 -11.5zM283 -48 q37 0 61.5 -23.5t24.5 -60.5q0 -25 -11.5 -44t-31 -29t-43.5 -10q-37 0 -61 23t-24 60t24 60.5t61 23.5z" />
<glyph unicode="&#x1ea2;" horiz-adv-x="765" d="M363 859q-27 0 -54 -19l-44 80q49 38 123 38q59 0 96.5 -32.5t37.5 -84.5q0 -87 -98 -131l-65 61q44 21 44 52q0 11 -5 19t-14 12.5t-21 4.5zM784 0h-232l-45 116h-252l-45 -116h-228l291 665h220zM381 445l-65 -168h130z" />
<glyph unicode="&#x1ea3;" horiz-adv-x="607" d="M285 716q-27 0 -54 -19l-44 80q49 38 123 38q59 0 96.5 -32.5t37.5 -84.5q0 -86 -98 -131l-65 62q44 21 44 51q0 17 -11 26.5t-29 9.5zM280 529q281 0 281 -250v-279h-199v68q-37 -78 -147 -78q-92 0 -142.5 46t-50.5 116q0 157 237 157h87q-10 61 -98 61 q-35 0 -71.5 -11t-61.5 -30l-68 141q29 19 69 32.5t82 20t82 6.5zM279 120q51 0 68 49v36h-53q-66 0 -66 -43q0 -19 14 -30.5t37 -11.5z" />
<glyph unicode="&#x1ea4;" horiz-adv-x="765" d="M618 942h204l-159 -123h-142zM463 719l-80 58l-80 -58h-133l123 124h180l123 -124h-133zM-18 0l291 665h220l291 -665h-232l-45 116h-252l-45 -116h-228zM381 445l-65 -168h130z" />
<glyph unicode="&#x1ea5;" horiz-adv-x="607" d="M443 676l97 124h204l-159 -124h-142zM385 577l-80 58l-80 -58h-133l123 123h180l123 -123h-133zM280 529q281 0 281 -250v-279h-199v68q-37 -78 -147 -78q-92 0 -142.5 46t-50.5 116q0 157 237 157h87q-10 61 -98 61q-35 0 -71.5 -11t-61.5 -30l-68 141q29 19 69 32.5 t82 20t82 6.5zM279 120q51 0 68 49v36h-53q-66 0 -66 -43q0 -19 14 -30.5t37 -11.5z" />
<glyph unicode="&#x1ea6;" horiz-adv-x="765" d="M623 942l97 -123h-142l-159 123h204zM463 719l-80 58l-80 -58h-133l123 124h180l123 -124h-133zM784 0h-232l-45 116h-252l-45 -116h-228l291 665h220zM381 445l-65 -168h130z" />
<glyph unicode="&#x1ea7;" horiz-adv-x="607" d="M545 800l97 -124h-142l-159 124h204zM385 577l-80 58l-80 -58h-133l123 123h180l123 -123h-133zM280 529q281 0 281 -250v-279h-199v68q-37 -78 -147 -78q-92 0 -142.5 46t-50.5 116q0 157 237 157h87q-10 61 -98 61q-35 0 -71.5 -11t-61.5 -30l-68 141q29 19 69 32.5 t82 20t82 6.5zM279 120q51 0 68 49v36h-53q-66 0 -66 -43q0 -19 14 -30.5t37 -11.5z" />
<glyph unicode="&#x1ea8;" horiz-adv-x="765" d="M542 902q-20 0 -43 -12l-33 58q38 24 94 24q47 0 74.5 -22.5t27.5 -61.5q0 -29 -21.5 -52.5t-53.5 -35.5l-49 43q32 16 32 35q0 7 -3.5 12.5t-10 8.5t-14.5 3zM463 719l-80 58l-80 -58h-133l123 124h180l123 -124h-133zM784 0h-232l-45 116h-252l-45 -116h-228l291 665 h220zM381 445l-65 -168h130z" />
<glyph unicode="&#x1ea9;" horiz-adv-x="607" d="M465 759q-21 0 -44 -11l-32 58q37 23 94 23q46 0 73.5 -22t27.5 -61q0 -30 -21 -53t-54 -36l-49 43q32 17 32 35q0 7 -3.5 12.5t-9.5 8.5t-14 3zM385 577l-80 58l-80 -58h-133l123 123h180l123 -123h-133zM280 529q281 0 281 -250v-279h-199v68q-37 -78 -147 -78 q-92 0 -142.5 46t-50.5 116q0 157 237 157h87q-10 61 -98 61q-35 0 -71.5 -11t-61.5 -30l-68 141q29 19 69 32.5t82 20t82 6.5zM279 120q51 0 68 49v36h-53q-66 0 -66 -43q0 -19 14 -30.5t37 -11.5z" />
<glyph unicode="&#x1eaa;" horiz-adv-x="765" d="M324 923q-11 0 -19.5 -5t-14 -13.5t-6.5 -20.5h-104q0 68 34.5 105t96.5 37q29 0 56.5 -12t46.5 -24t30 -12q17 0 28 11.5t12 27.5h102q0 -66 -34 -103.5t-97 -37.5q-30 0 -56.5 12t-45.5 23.5t-29 11.5zM463 719l-80 58l-80 -58h-133l123 124h180l123 -124h-133zM784 0 h-232l-45 116h-252l-45 -116h-228l291 665h220zM381 445l-65 -168h130z" />
<glyph unicode="&#x1eab;" horiz-adv-x="607" d="M246 781q-16 0 -27 -11t-13 -28h-104q0 67 34.5 104.5t96.5 37.5q29 0 56.5 -12t46.5 -24t30 -12t20 5.5t14.5 14t6.5 19.5h101q0 -44 -14.5 -75.5t-44.5 -49t-72 -17.5q-30 0 -56.5 12t-45.5 24t-29 12zM385 577l-80 58l-80 -58h-133l123 123h180l123 -123h-133z M280 529q281 0 281 -250v-279h-199v68q-37 -78 -147 -78q-92 0 -142.5 46t-50.5 116q0 157 237 157h87q-10 61 -98 61q-35 0 -71.5 -11t-61.5 -30l-68 141q29 19 69 32.5t82 20t82 6.5zM279 120q51 0 68 49v36h-53q-66 0 -66 -43q0 -19 14 -30.5t37 -11.5z" />
<glyph unicode="&#x1eac;" horiz-adv-x="765" d="M463 719l-80 73l-80 -73h-133l122 152h182l122 -152h-133zM493 665l291 -665h-232l-45 116h-252l-45 -116h-228l291 665h220zM381 445l-65 -168h130zM383 -48q37 0 61 -23.5t24 -60.5q0 -25 -11 -44t-30.5 -29t-43.5 -10q-37 0 -61.5 23t-24.5 60t24.5 60.5t61.5 23.5z " />
<glyph unicode="&#x1ead;" horiz-adv-x="607" d="M385 577l-80 73l-80 -73h-133l122 152h182l122 -152h-133zM280 529q281 0 281 -250v-279h-199v68q-37 -78 -147 -78q-92 0 -142.5 46t-50.5 116q0 157 237 157h87q-10 61 -98 61q-35 0 -71.5 -11t-61.5 -30l-68 141q29 19 69 32.5t82 20t82 6.5zM279 120q51 0 68 49v36 h-53q-66 0 -66 -43q0 -19 14 -30.5t37 -11.5zM283 -48q37 0 61.5 -23.5t24.5 -60.5q0 -25 -11.5 -44t-31 -29t-43.5 -10q-37 0 -61 23t-24 60t24 60.5t61 23.5z" />
<glyph unicode="&#x1eae;" horiz-adv-x="765" d="M380 1002h204l-158 -123h-143zM383 710q-86 0 -140 36t-59 97h121q3 -18 24 -29t53.5 -11t54 11t24.5 29h120q-4 -61 -58 -97t-140 -36zM784 0h-232l-45 116h-252l-45 -116h-228l291 665h220zM381 445l-65 -168h130z" />
<glyph unicode="&#x1eaf;" horiz-adv-x="607" d="M302 860h204l-158 -124h-143zM305 567q-86 0 -140 36t-59 97h121q3 -18 24 -29t54 -11t54 11t24 29h121q-3 -40 -28.5 -70.5t-69.5 -46.5t-101 -16zM280 529q281 0 281 -250v-279h-199v68q-37 -78 -147 -78q-92 0 -142.5 46t-50.5 116q0 157 237 157h87q-10 61 -98 61 q-35 0 -71.5 -11t-61.5 -30l-68 141q29 19 69 32.5t82 20t82 6.5zM279 120q51 0 68 49v36h-53q-66 0 -66 -43q0 -19 14 -30.5t37 -11.5z" />
<glyph unicode="&#x1eb0;" horiz-adv-x="765" d="M386 1002l97 -123h-143l-159 123h205zM382.5 803q32.5 0 54 11t24.5 29h120q-4 -61 -58 -97t-140 -36t-140 36t-59 97h121q3 -18 24 -29t53.5 -11zM784 0h-232l-45 116h-252l-45 -116h-228l291 665h220zM381 445l-65 -168h130z" />
<glyph unicode="&#x1eb1;" horiz-adv-x="607" d="M308 860l97 -124h-143l-158 124h204zM305 660q33 0 54 11t24 29h121q-3 -40 -28.5 -70.5t-69.5 -46.5t-101 -16q-86 0 -140 36t-59 97h121q3 -18 24 -29t54 -11zM280 529q281 0 281 -250v-279h-199v68q-37 -78 -147 -78q-92 0 -142.5 46t-50.5 116q0 157 237 157h87 q-10 61 -98 61q-35 0 -71.5 -11t-61.5 -30l-68 141q29 19 69 32.5t82 20t82 6.5zM279 120q51 0 68 49v36h-53q-66 0 -66 -43q0 -19 14 -30.5t37 -11.5z" />
<glyph unicode="&#x1eb2;" horiz-adv-x="765" d="M371 952q-20 0 -43 -12l-33 58q38 24 95 24q46 0 73.5 -22.5t27.5 -60.5q0 -30 -21.5 -53t-53.5 -36l-49 43q32 17 32 35q0 7 -3.5 12.5t-10 8.5t-14.5 3zM383 710q-86 0 -140 36t-59 97h121q3 -18 24 -29t53.5 -11t54 11t24.5 29h120q-4 -61 -58 -97t-140 -36zM784 0 h-232l-45 116h-252l-45 -116h-228l291 665h220zM381 445l-65 -168h130z" />
<glyph unicode="&#x1eb3;" horiz-adv-x="607" d="M294 809q-21 0 -44 -11l-32 58q37 24 94 24q30 0 53 -10t35.5 -29t12.5 -45q0 -30 -21 -53t-54 -35l-49 42q32 17 32 36q0 7 -3.5 12.5t-9.5 8t-14 2.5zM305 567q-86 0 -140 36t-59 97h121q3 -18 24 -29t54 -11t54 11t24 29h121q-3 -40 -28.5 -70.5t-69.5 -46.5t-101 -16 zM280 529q281 0 281 -250v-279h-199v68q-37 -78 -147 -78q-92 0 -142.5 46t-50.5 116q0 157 237 157h87q-10 61 -98 61q-35 0 -71.5 -11t-61.5 -30l-68 141q29 19 69 32.5t82 20t82 6.5zM279 120q51 0 68 49v36h-53q-66 0 -66 -43q0 -19 14 -30.5t37 -11.5z" />
<glyph unicode="&#x1eb4;" horiz-adv-x="765" d="M324 917q-11 0 -19.5 -5t-14 -14t-6.5 -20h-104q0 67 34.5 104t96.5 37q29 0 56.5 -11.5t46.5 -23.5t30 -12q7 0 13 2t11 5.5t8.5 8.5t5.5 11t2 12h102q0 -67 -34 -104.5t-97 -37.5q-30 0 -56.5 12t-45.5 24t-29 12zM382.5 803q32.5 0 54 11t24.5 29h120q-4 -61 -58 -97 t-140 -36t-140 36t-59 97h121q3 -18 24 -29t53.5 -11zM784 0h-232l-45 116h-252l-45 -116h-228l291 665h220zM381 445l-65 -168h130z" />
<glyph unicode="&#x1eb5;" horiz-adv-x="607" d="M246 774q-11 0 -19.5 -5t-14 -13.5t-6.5 -20.5h-104q0 68 34.5 105t96.5 37q29 0 56.5 -12t46.5 -24t30 -12q17 0 28 11.5t13 27.5h101q0 -66 -34 -103.5t-97 -37.5q-30 0 -56.5 11.5t-45.5 23.5t-29 12zM305 660q33 0 54 11t24 29h121q-3 -40 -28.5 -70.5t-69.5 -46.5 t-101 -16q-86 0 -140 36t-59 97h121q3 -18 24 -29t54 -11zM280 529q281 0 281 -250v-279h-199v68q-37 -78 -147 -78q-92 0 -142.5 46t-50.5 116q0 157 237 157h87q-10 61 -98 61q-35 0 -71.5 -11t-61.5 -30l-68 141q29 19 69 32.5t82 20t82 6.5zM279 120q51 0 68 49v36h-53 q-66 0 -66 -43q0 -19 14 -30.5t37 -11.5z" />
<glyph unicode="&#x1eb6;" horiz-adv-x="765" d="M383 710q-86 0 -140.5 43.5t-58.5 117.5h129q1 -17 10.5 -30.5t25 -20.5t34.5 -7q29 0 48.5 16t21.5 42h128q-3 -74 -57.5 -117.5t-140.5 -43.5zM493 665l291 -665h-232l-45 116h-252l-45 -116h-228l291 665h220zM381 445l-65 -168h130zM383 -48q37 0 61 -23.5t24 -60.5 q0 -25 -11 -44t-30.5 -29t-43.5 -10q-37 0 -61.5 23t-24.5 60t24.5 60.5t61.5 23.5z" />
<glyph unicode="&#x1eb7;" horiz-adv-x="607" d="M305 567q-86 0 -140.5 43.5t-58.5 118.5h129q2 -27 21.5 -42.5t48.5 -15.5t48.5 15.5t21.5 42.5h129q-4 -75 -58.5 -118.5t-140.5 -43.5zM280 529q281 0 281 -250v-279h-199v68q-37 -78 -147 -78q-92 0 -142.5 46t-50.5 116q0 157 237 157h87q-10 61 -98 61 q-35 0 -71.5 -11t-61.5 -30l-68 141q29 19 69 32.5t82 20t82 6.5zM279 120q51 0 68 49v36h-53q-66 0 -66 -43q0 -19 14 -30.5t37 -11.5zM283 -48q37 0 61.5 -23.5t24.5 -60.5q0 -25 -11.5 -44t-31 -29t-43.5 -10q-37 0 -61 23t-24 60t24 60.5t61 23.5z" />
<glyph unicode="&#x1eb8;" horiz-adv-x="639" d="M275 256v-87h332v-169h-553v665h541v-169h-320v-78h281v-162h-281zM325 -48q37 0 61 -23.5t24 -60.5t-24 -60t-61 -23t-61.5 23t-24.5 60q0 25 11.5 44t31 29.5t43.5 10.5z" />
<glyph unicode="&#x1eb9;" horiz-adv-x="620" d="M600 260q0 -4 -2 -50h-361q23 -61 104 -61q23 0 42 4.5t33.5 12t32.5 21.5l112 -113q-76 -84 -227 -84q-141 0 -227.5 76.5t-86.5 193.5q0 118 84 193.5t210 75.5q79 0 143 -30t103.5 -92t39.5 -147zM316 383q-33 0 -55 -18.5t-28 -50.5h167q-6 32 -28.5 50.5t-55.5 18.5 zM311 -48q36 0 60.5 -23.5t24.5 -60.5t-24 -60t-61 -23t-61.5 23t-24.5 60q0 25 11.5 44t31 29.5t43.5 10.5z" />
<glyph unicode="&#x1eba;" horiz-adv-x="639" d="M305 859q-27 0 -54 -19l-44 80q49 38 123 38q59 0 96.5 -32.5t37.5 -84.5q0 -87 -98 -131l-65 61q44 21 44 52q0 11 -5 19t-14 12.5t-21 4.5zM275 256v-87h332v-169h-553v665h541v-169h-320v-78h281v-162h-281z" />
</font>
</defs>
</svg>
